<svg xmlns="http://www.w3.org/2000/svg" viewBox="0 0 352.45 194.48"><defs><style>.cls-1{fill:#29293d;}</style></defs><g id="Calque_1" data-name="Calque 1"><path class="cls-1" d="M271.59,192.05a2.3,2.3,0,0,1,2.39-2.4,2.32,2.32,0,0,1,1.73.67,2.22,2.22,0,0,1,.69,1.61,2.41,2.41,0,0,1-2.35,2.34,2.29,2.29,0,0,1-2.31-2.27v0Z"/><path class="cls-1" d="M280.66,175.34H287v18.59h-4v-14.7h-2.36Z"/><path class="cls-1" d="M298.61,174.84a5.18,5.18,0,0,1,4.59,2.5,17.58,17.58,0,0,1,0,14.57,5.44,5.44,0,0,1-9.05.16,13.52,13.52,0,0,1-1.73-7.59,13.23,13.23,0,0,1,1.61-7.11,5,5,0,0,1,4.48-2.53Zm-2.09,9.62c0,4,.69,5.95,2.05,5.95a1.73,1.73,0,0,0,1.63-1.31,13.18,13.18,0,0,0,.48-4.19,15.94,15.94,0,0,0-.48-4.61,1.77,1.77,0,0,0-1.73-1.43c-1.21,0-2,1.92-2,5.59Z"/><path class="cls-1" d="M309.51,175.3h7.91V179h-4.79l-.41,2.82a5.43,5.43,0,0,1,4.08,1.72,6.25,6.25,0,0,1,1.42,4.33,6.73,6.73,0,0,1-1.73,4.78,5.78,5.78,0,0,1-4.46,1.72,14,14,0,0,1-4.11-.83L308,190a9.14,9.14,0,0,0,3,.81,2.36,2.36,0,0,0,1.93-.82,3.65,3.65,0,0,0,.68-2.35,2.42,2.42,0,0,0-.9-2,4,4,0,0,0-2.57-.72,9.15,9.15,0,0,0-1.95.26Z"/><path class="cls-1" d="M326.58,174.84a5.18,5.18,0,0,1,4.59,2.5,17.58,17.58,0,0,1,0,14.57,5.44,5.44,0,0,1-9,.16,13.52,13.52,0,0,1-1.73-7.59,13.23,13.23,0,0,1,1.61-7.11,5,5,0,0,1,4.48-2.53Zm-2.08,9.62c0,4,.69,5.95,2.05,5.95a1.73,1.73,0,0,0,1.62-1.31,12.9,12.9,0,0,0,.48-4.19,15.6,15.6,0,0,0-.48-4.61,1.77,1.77,0,0,0-1.73-1.43C325.17,178.87,324.5,180.79,324.5,184.46Z"/><path class="cls-1" d="M339.19,181.11v1.57a4.76,4.76,0,0,1,3.45-2,2.67,2.67,0,0,1,2.76,2.2,8.1,8.1,0,0,1,1.83-1.72,3.56,3.56,0,0,1,2-.54c1.9,0,2.83,1.31,2.83,3.95v9.32h-4v-7.57c0-1.23-.4-1.85-1.19-1.85s-1.23.6-1.23,1.83v7.59h-4.07v-7.8a1.86,1.86,0,0,0-.32-1.15,1,1,0,0,0-.83-.47,1.06,1.06,0,0,0-.88.45,1.92,1.92,0,0,0-.33,1.21v7.76H335.2V181.06Z"/><polygon class="cls-1" points="32.66 64.08 18.23 64.08 18.23 2.35 0 2.35 0 82.68 32.66 82.68 32.66 64.08"/><path class="cls-1" d="M39,26.71,44,32.37q9-8.11,9-24.49V0H38.27V14.81h6.12A22.32,22.32,0,0,1,39,26.71Z"/><path class="cls-1" d="M160.82,84.9q9.87,0,15.38-3a19.39,19.39,0,0,0,8.33-9.54,44,44,0,0,0,2.83-17.25V2.36H168.77v56a10.17,10.17,0,0,1-2.14,6.8,8.06,8.06,0,0,1-11.39.21.6.6,0,0,1-.08-.08,9,9,0,0,1-2.1-6.27V2.43H134.34V52.32q0,17.75,6,25.2T160.82,84.9Z"/><path class="cls-1" d="M93.59,2Q83.71,2,78.23,5a19.3,19.3,0,0,0-8.35,9.54,44,44,0,0,0-2.83,17.25V194.39H85.64V120.91h15.71v73.48h18.71V34.59q0-17.75-6-25.21T93.59,2Zm-8,101.75V28.52a10.14,10.14,0,0,1,2.14-6.79,8.1,8.1,0,0,1,11.44-.19l0,0a9,9,0,0,1,2.1,6.3v75.88Z"/><polygon class="cls-1" points="210.28 82.68 228.75 82.68 228.75 20.7 241.32 20.7 241.32 2.35 197.82 2.35 197.82 20.7 210.28 20.7 210.28 82.68"/><path class="cls-1" d="M270.86,46.1h.31L285.9,82.68h19.26L290.61,46.46a18.59,18.59,0,0,0,8.22-8.23A23.86,23.86,0,0,0,301.66,27q0-11.34-7.45-18T273.88,2.34H252.63V82.68h18.23Zm0-28.22q6.48.2,9.3,2.59c1.86,1.6,2.79,4.26,2.79,8q0,8.24-12.07,8.47Z"/><polygon class="cls-1" points="333.69 65.53 333.69 50.91 349.86 50.91 349.86 34.25 333.69 34.25 333.69 19.44 352.33 19.44 352.33 2.35 315.44 2.35 315.44 82.68 352.45 82.68 352.45 65.53 333.69 65.53"/><path class="cls-1" d="M47.2,111.44q-8.16-7.66-21.59-7.67H.14v90.64H20.71V159.92h3.54q14.58,0,22.85-7.5t8.24-20.7A26.45,26.45,0,0,0,47.2,111.44ZM30.94,139.88c-2.19,1.69-5.59,2.58-10.23,2.66V121.15c4.76,0,8.19.93,10.35,2.54s3.19,4.36,3.19,8.26a9.37,9.37,0,0,1-3.38,7.93Z"/><path class="cls-1" d="M190.34,144.26a27.06,27.06,0,0,0,3.19-12.73q0-12.82-8.41-20.3t-23-7.46h-24v90.64h20.57V153.19h.35l16.64,41.29h21.73l-16.43-40.87A21.05,21.05,0,0,0,190.34,144.26Zm-31.58-1.45V121.29c4.9.12,8.4,1.1,10.51,2.91s3.15,4.81,3.15,9q.08,9.3-13.59,9.61Z"/><rect class="cls-1" x="210.28" y="103.77" width="142.17" height="17.18"/></g></svg>