<svg xmlns="http://www.w3.org/2000/svg" viewBox="0 0 236.38 208.82"><defs><style>.cls-1{fill:#f21b54;}.cls-2{fill:#29293d;}</style></defs><g id="Calque_1" data-name="Calque 1"><circle class="cls-1" cx="178.01" cy="30.72" r="30.72"/><path class="cls-2" d="M236.29,104V92.14c0-7.87-2.94-11.7-8.3-11.81H136.25v-.78a54.34,54.34,0,0,0-108.68,0v.78H11.81A11.81,11.81,0,0,0,0,92.14v0A11.81,11.81,0,0,0,11.81,104H27.57v.38a104.41,104.41,0,0,0,208.81.15V104Zm-23.59.4a80.73,80.73,0,1,1-161.44,2.34c0-.77,0-1.56,0-2.34V104h0V79.55a30.72,30.72,0,1,1,61.42-1.44v66A11.81,11.81,0,0,0,124.44,156h0a11.81,11.81,0,0,0,11.81-11.81V104H212.7Z"/><circle class="cls-2" cx="81.91" cy="92.15" r="11.81"/></g></svg>