<svg xmlns="http://www.w3.org/2000/svg" viewBox="0 0 214.47 282.79"><defs><style>.cls-1{fill:#691d1d;}.cls-2{fill:#a1d96a;}.cls-3{fill:#f21b54;}.cls-4{fill:#f28cb1;}.cls-5{fill:#84143d;}.cls-6{fill:#5b7a34;}.cls-7{fill:#d3edb9;}.cls-8{fill:#fff;}</style></defs><g id="Calque_1" data-name="Calque 1"><path class="cls-1" d="M186.25,135.54a3.77,3.77,0,0,1-1.9-.55,3.86,3.86,0,0,1-1.44-1.48,4.25,4.25,0,0,1,0-4.09,3.9,3.9,0,0,1,6.83-.06l0,.06a4.18,4.18,0,0,1,.51,2.05,4,4,0,0,1-4,4.07Zm0-7.45a3.21,3.21,0,0,0-1.63.44,3.34,3.34,0,0,0-1.21,1.21,3.59,3.59,0,0,0-.44,1.73,3.43,3.43,0,0,0,.42,1.68,3.25,3.25,0,0,0,1.21,1.23,3.21,3.21,0,0,0,1.65.46,3.24,3.24,0,0,0,1.66-.46,3,3,0,0,0,1.2-1.21,3.46,3.46,0,0,0,0-3.41,3.4,3.4,0,0,0-1.21-1.23A3.54,3.54,0,0,0,186.25,128.09Zm.4,4.19h1.78v.87h-4.49v-1.61a2.2,2.2,0,0,1,.38-1.36,1.15,1.15,0,0,1,1-.49,1,1,0,0,1,.91.64,1,1,0,0,1,.45-.49,1.74,1.74,0,0,1,.74-.14h.91v.88a3.49,3.49,0,0,1-1,0,.78.78,0,0,0-.57.18,1,1,0,0,0-.19.65Zm-.71,0v-.78a1.1,1.1,0,0,0-.17-.68.49.49,0,0,0-.43-.28.62.62,0,0,0-.53.21,1.32,1.32,0,0,0-.15.73v.8Z"/><polygon class="cls-2" points="138.95 62.92 155.09 50.49 155.09 28.75 155.09 25.04 138.95 25.04 137.51 27.61 133.99 22.55 129.01 13.86 122.19 7.65 116.58 4.54 111.62 13.86 109.76 21.3 109.84 30.4 106.37 28.86 101.69 31.85 101.69 39.32 105.41 48.01 111 56.7 120.31 62.92 132.74 62.92 138.95 62.92"/><path class="cls-3" d="M158.82,105.14l-20-16.33-18.51-6.65-23.6-2.48L69.4,89,44,96.41s-18.68,20.53-20.55,19.9S7,129.57,6.21,130.69,2.94,154.2,2.94,154.2l6.21,26.1,20.36,21.36L34,210.09,58.21,225l14.3,6.21,26.68,3.11,28.59-3.11,23.94-11.36L165,196.76l12.4-28.28,1.9-28.41Z"/><polygon class="cls-2" points="72.51 102.66 63.89 105.1 60.08 113.21 58.23 117.56 65.67 118.81 72.51 114.46 75.59 107.64 72.51 102.66"/><path class="cls-4" d="M168.77,123.15C181,216,68.38,236.8,34,210.09l56.5,24.23h24.23L139,226.25l16.14-14.91,17.39-18L175,172.21l4.36-22.35-6.84-21.12Z"/><path class="cls-5" d="M34,210.09l-24.85-31L2.94,154.2l3.16-23,12.42-12.41L44,100.19C13.16,137.07,5.4,177.4,34,210.09Z"/><path class="cls-5" d="M125.28,99.55a3.1,3.1,0,0,1-.17-6.19l23-1.41a3.12,3.12,0,0,1,.38,6.22l-23.05,1.38Z"/><path class="cls-6" d="M137.66,62.92h-16.3c-10.31-5.8-16.48-16.23-18.4-31.2a3.79,3.79,0,0,1,7.21-2.33,3.62,3.62,0,0,1,.18,1.38c2.16,17.05,9.91,26.22,24.36,29.12A3.77,3.77,0,0,1,137.66,62.92Z"/><path class="cls-7" d="M155.73,25.66C144,35.34,136.05,47,134.29,62.61l10.27-4,8.69-6.82,3.11-10.57Z"/><path class="cls-7" d="M129.63,37.46c-10.7-7.9-10.47-19.57-9.94-31.69L129.63,12,134,20.68,137.08,30Z"/><path class="cls-5" d="M111,131.24a3.11,3.11,0,0,1-.81-6.1l1.63-.44c13.26-3.65,25.76-7.08,40.21-3.94a3.11,3.11,0,0,1-.92,6.15l-.39-.08c-13-2.83-24.77.43-37.25,3.78l-1.63.46A3.39,3.39,0,0,1,111,131.24Z"/><path class="cls-5" d="M64.38,159.46a17,17,0,0,1-13.77-6.31c-3.79-4.83-4.2-11.21-1-15.15A3.1,3.1,0,0,1,55,141.11a3.14,3.14,0,0,1-.52.68c-1.16,1.44-1.08,4.72,1.06,7.46,3.6,4.62,10.62,5.15,18.82,1.42a3.12,3.12,0,1,1,2.56,5.68A30.31,30.31,0,0,1,64.38,159.46Z"/><path class="cls-1" d="M101.39,237.61c-18.81,0-38.85-6-57-17A106.93,106.93,0,0,1,12,191,63.19,63.19,0,0,1,0,155.77c0-14.57,5.8-35.69,34.42-53.64C56.69,88.15,76.09,80,93.49,77.18c22-3.54,41.45,1.59,57.72,15.15a83.52,83.52,0,0,1,10.36,117.44h0a76,76,0,0,1-55.27,27.5A26.79,26.79,0,0,1,101.39,237.61Zm5.48-155.32c-19.63,0-42.38,8.38-69.16,25.18C17,120.48,6.1,137.19,6.21,155.81c.14,21.55,15.63,43.81,41.45,59.53C81,235.7,127.74,240.72,156.81,206h0a77.32,77.32,0,0,0-9.58-108.8,60.88,60.88,0,0,0-40.36-15Z"/><path class="cls-1" d="M129.8,66.16a29.92,29.92,0,0,1-4.43-.33H125l-.76-.11a30.86,30.86,0,0,1-25.21-30.3,32.13,32.13,0,0,1,.7-6.56l6.06,1.33a26.24,26.24,0,0,0-.55,5.23,24.63,24.63,0,0,0,20.06,24.13l.74.11h.15a24.62,24.62,0,0,0,26.52-33.09,2.84,2.84,0,0,1-.23-1.12h3.13l2.88-1.12a30.76,30.76,0,0,1-28.68,41.83Z"/><path class="cls-1" d="M118.29,63.92A30.61,30.61,0,0,1,99.06,35.51a32,32,0,0,1,.7-6.55,3.14,3.14,0,0,1,3.13-2.45,23.67,23.67,0,0,1,7.88,1.61l-2.28,5.69a18.41,18.41,0,0,0-3.08-.9,23.46,23.46,0,0,0-.14,2.51,24.42,24.42,0,0,0,15.35,22.72Z"/><path class="cls-1" d="M115.77,14.75l-5.68-2.41a44.73,44.73,0,0,1,6.8-11.23A3.1,3.1,0,0,1,121,.53,40.82,40.82,0,0,1,127.57,6l-4.45,4.34A34.21,34.21,0,0,0,119.9,7.4,38.47,38.47,0,0,0,115.77,14.75Z"/><path class="cls-1" d="M129.8,66.16a30.78,30.78,0,0,1-4.5-.34l.92-6.14a24.62,24.62,0,0,0,26.52-33.09,2.88,2.88,0,0,1-.23-1.12h3.13l2.88-1.12a30.76,30.76,0,0,1-28.68,41.83Z"/><path class="cls-1" d="M115.84,50.62a3,3,0,0,1-2.57-1.36c-8-11.82-9-22.84-3.24-36.9a45.21,45.21,0,0,1,6.82-11.25A3.1,3.1,0,0,1,121,.53a40.2,40.2,0,0,1,17,24.69,30.54,30.54,0,0,1,13.6-3.16,32.17,32.17,0,0,1,4.49.32,3.11,3.11,0,0,1-.76,6.17L155,28.5a26.65,26.65,0,0,0-3.45-.23,24.38,24.38,0,0,0-13.81,4.25h-.11l-.29.17a3.12,3.12,0,0,1-4.28-1,3,3,0,0,1-.43-1.22,35.72,35.72,0,0,0-9.48-20.23,37,37,0,0,0-3.23-2.91,38.8,38.8,0,0,0-4.1,7.34c-4.9,12-4.14,21,2.64,31a3.1,3.1,0,0,1-.83,4.31h0A3,3,0,0,1,115.84,50.62Z"/><path class="cls-1" d="M124.22,65.65a29.9,29.9,0,0,1-6-1.75A30.58,30.58,0,0,1,99.06,35.49a32,32,0,0,1,.7-6.55l6.06,1.32a26.24,26.24,0,0,0-.55,5.23,24.63,24.63,0,0,0,20.06,24.13Z"/><path class="cls-1" d="M130.13,41.31a3,3,0,0,1-1-.17,3.09,3.09,0,0,1-1.89-3.94h0a19,19,0,0,1,6.67-9.47,3.13,3.13,0,1,1,3.78,5h0a12.82,12.82,0,0,0-4.5,6.59A3.13,3.13,0,0,1,130.13,41.31Z"/><path class="cls-1" d="M110.28,131.24a3.06,3.06,0,0,1-3-2.24c-.49-1.66-.76-2.78-1-3.69a28.18,28.18,0,0,0-1.43-4.66,3.11,3.11,0,0,1,5.69-2.5c0,.09.08.19.11.28a36.16,36.16,0,0,1,1.69,5.48h0c10.94-4,25.85-7.58,40-5a3.11,3.11,0,0,1-1.1,6.12c-14.24-2.6-29.57,1.89-39.93,6A3.71,3.71,0,0,1,110.28,131.24Z"/><path class="cls-1" d="M47.11,85.78h-.29A3.08,3.08,0,0,1,44,82.45v0c.63-6.84,5.3-13.11,12.54-16.76a26.72,26.72,0,0,1,25.74.47,3.11,3.11,0,1,1-3,5.47l-.27-.17a20.55,20.55,0,0,0-19.72-.24c-5.3,2.69-8.73,7.1-9.15,11.8A3.12,3.12,0,0,1,47.11,85.78Z"/><path class="cls-1" d="M67.81,157.91a22.66,22.66,0,0,1-10.32-2.39,15.59,15.59,0,0,1-8.7-16.46,3.11,3.11,0,0,1,6.16.74A9.47,9.47,0,0,0,60.33,150a17.15,17.15,0,0,0,18.37-2.14,3.11,3.11,0,0,1,4.19,4.6A22.54,22.54,0,0,1,67.81,157.91Z"/><path class="cls-1" d="M123.53,99.89a3.1,3.1,0,0,1-1.15-6c6.51-2.64,15.45-6.39,23.35-9.7,6.46-2.71,12.05-5.06,15.16-6.25a3.1,3.1,0,1,1,2.29,5.77c-3,1.18-8.51,3.51-15,6.2-7.91,3.33-16.89,7.1-23.45,9.73A3.12,3.12,0,0,1,123.53,99.89Z"/><path class="cls-1" d="M60.25,123.47a6,6,0,0,1-4.37-1.72c-3.79-3.79-.61-11.25,4.66-16.5S73.15,96.71,77,100.59s.61,11.25-4.64,16.52h0C68.74,120.76,64.06,123.47,60.25,123.47ZM72.54,105.1c-1.13,0-4.2,1.12-7.57,4.55s-4.55,6.47-4.55,7.57c1.12,0,4.21-1.13,7.58-4.54s4.53-6.46,4.54-7.58Z"/><path class="cls-8" d="M74.65,245.06l-6.52-2.77L54.64,252.5q-9.47,7.23-17,4.07A11.15,11.15,0,0,1,31.21,250a12.57,12.57,0,0,1,.35-9.47,15,15,0,0,1,5.68-6.69,21.27,21.27,0,0,1,9.2-3.37,24.56,24.56,0,0,1,8,.42,61.23,61.23,0,0,1,10.45,3.54l1.72.74L70,232.5A21.87,21.87,0,0,1,83.44,227a26.69,26.69,0,0,1,10,2.44,4.08,4.08,0,0,1,2.05,1.63,2.44,2.44,0,0,1,0,2.2,3.9,3.9,0,0,1-.82,1.15l-.45.46L86,243.29l1.8.76.61.27c1.76.74,2.31,1.89,1.67,3.39a3.25,3.25,0,0,1-2.09,1.89,4,4,0,0,1-3-.13l-.64-.27-3-1.25L76,253.28l3.79,1.63.61.24c1.76.74,2.33,1.9,1.68,3.37a3.3,3.3,0,0,1-2.08,1.9,4.17,4.17,0,0,1-3-.14l-.63-.26-5-2.12a5.5,5.5,0,0,1-2.88-2.45,3.62,3.62,0,0,1-.14-3.25,11.45,11.45,0,0,1,2.52-3.26ZM61,239.37l-1.89-.85a21.64,21.64,0,0,0-11.75-2,14,14,0,0,0-5.68,2.31,10,10,0,0,0-3.54,4.23,6,6,0,0,0-.17,4.43,4.9,4.9,0,0,0,2.82,3.05c2.37,1,5.11.3,8.26-2.06Zm18.34,1.1,6.89-6.93a7.73,7.73,0,0,0-4.87-.17,22,22,0,0,0-6.06,3.52l-1.65,1.2Z"/><path class="cls-8" d="M78.72,264.39a8.18,8.18,0,0,1-3.2-.66l-5.68-2.38a9.34,9.34,0,0,1-4.76-4.17,7.43,7.43,0,0,1-.28-6.52,10.62,10.62,0,0,1,1.13-1.89l-9,6.82c-7.48,5.68-14.51,7.21-20.84,4.54a14.83,14.83,0,0,1-8.46-8.79A16.29,16.29,0,0,1,28,239a19.11,19.11,0,0,1,7.05-8.38,25.1,25.1,0,0,1,10.83-4,28.21,28.21,0,0,1,9.3.47A61.19,61.19,0,0,1,66,230.72l1.53-1.23a25.71,25.71,0,0,1,15.84-6.35h0a30.13,30.13,0,0,1,11.5,2.75,7.69,7.69,0,0,1,3.78,3.27,6.25,6.25,0,0,1,.27,5.54A7.84,7.84,0,0,1,97.32,237l-.46.45-4.75,4.83a5.91,5.91,0,0,1,1.29,6.84,7.06,7.06,0,0,1-4.34,4,7.7,7.7,0,0,1-4.7.15,6.35,6.35,0,0,1,1.08,1.5,5.89,5.89,0,0,1,0,5.15A7,7,0,0,1,81.11,264,8.11,8.11,0,0,1,78.72,264.39ZM49.66,240.06a9.06,9.06,0,0,0-1.72.13,9.82,9.82,0,0,0-4.13,1.66,6.18,6.18,0,0,0-2.23,2.6,2.16,2.16,0,0,0,0,1.69,1.09,1.09,0,0,0,.7.81c1.27.53,3.14-.57,4.49-1.59l6.45-4.87A15.21,15.21,0,0,0,49.66,240.06Z"/><path class="cls-8" d="M100,259.07l-6.4,16.5c-.87,2.27-2.2,3.43-4,3.45a2.48,2.48,0,0,1-1.76-.65,2.17,2.17,0,0,1-.76-1.61,7.64,7.64,0,0,1,.61-2.4l11.83-30.54a3.31,3.31,0,0,1,3.22-2.34,2.87,2.87,0,0,1,2.58,1.49,5.69,5.69,0,0,1,4.34-1.89A5.22,5.22,0,0,1,114,243a8.21,8.21,0,0,1,1.75,5.32A14.08,14.08,0,0,1,112,258.6a7.06,7.06,0,0,1-2.6,1.89,11.28,11.28,0,0,1-3.78.55,11.46,11.46,0,0,1-3.6-.3A5,5,0,0,1,100,259.07Zm2-5.24a4.06,4.06,0,0,0,1.23,1.44,3.81,3.81,0,0,0,1.89.3,3.36,3.36,0,0,0,2.8-1.4,9.37,9.37,0,0,0,1.9-5.69c0-1.65-.8-2.46-2.39-2.44a3.78,3.78,0,0,0-3.65,3.05c0,.23-.16.4-.21.57Z"/><path class="cls-8" d="M89.57,282.77a6.22,6.22,0,0,1-4.24-1.63,5.93,5.93,0,0,1-2-4.38,10.25,10.25,0,0,1,.85-3.78L96,242.42a7.09,7.09,0,0,1,6.71-4.77,6.52,6.52,0,0,1,2.72.51,9.83,9.83,0,0,1,4.19-1,9,9,0,0,1,7.33,3.31,11.85,11.85,0,0,1,2.61,7.71,17.56,17.56,0,0,1-4.79,13,10.78,10.78,0,0,1-4,2.75,15.19,15.19,0,0,1-5,.8,20.87,20.87,0,0,1-3.79-.23L97.13,276.9c-1.89,5.05-5.51,5.85-7.46,5.89Z"/><path class="cls-8" d="M127.85,252.05l2.81-.69c2.08-.51,3.29,0,3.65,1.44a2.92,2.92,0,0,1-.51,2.64,5.19,5.19,0,0,1-2.9,1.59L127,258a5.84,5.84,0,0,1-3.65,0,2.89,2.89,0,0,1-1.9-2.12,6.25,6.25,0,0,1,0-2.2L123,242.59l.12-.75a4,4,0,0,1,3-3.79,2.64,2.64,0,0,1,1.89.26,2.28,2.28,0,0,1,1.18,1.48,8.1,8.1,0,0,1,0,2.6ZM126,229.77a3.52,3.52,0,0,1,4.28,2.54l0,.06a3.56,3.56,0,0,1-2.62,4.3,3.49,3.49,0,0,1-2.69-.42,3.58,3.58,0,0,1-1.19-4.87,3.47,3.47,0,0,1,2.1-1.65Z"/><path class="cls-8" d="M125.05,262.05a8.7,8.7,0,0,1-3.15-.57,6.75,6.75,0,0,1-4.12-4.76,9.44,9.44,0,0,1,0-3.67l1.72-11.78a9.31,9.31,0,0,1,1.33-3.7,7.22,7.22,0,0,1-1.2-2.61,7.35,7.35,0,0,1,5.38-8.88h0a7.35,7.35,0,0,1,8,10.95c-.13.22-.28.43-.43.64a6.71,6.71,0,0,1,.45,1.23,10.72,10.72,0,0,1,0,4.07l-.64,4.4a6.64,6.64,0,0,1,2.16.43,5.69,5.69,0,0,1,3.48,4.09,6.69,6.69,0,0,1-1.25,5.93,8.83,8.83,0,0,1-4.94,2.9l-3.94,1A11.81,11.81,0,0,1,125.05,262.05ZM126.66,233h0a.14.14,0,0,0-.13.13.6.6,0,0,0,0,.19l.13.14h.17l.15-.14a.31.31,0,0,0,0-.19.45.45,0,0,0-.11-.13Z"/><path class="cls-8" d="M166.83,231.29l2.24-1.71c1.72-1.29,3-1.32,3.94-.13a2.93,2.93,0,0,1,.55,2.63,5.18,5.18,0,0,1-2,2.62l-2.6,1.89a3,3,0,0,1-3.42.43,5.65,5.65,0,0,1-1.9,3.6l-2.33,1.75a5.68,5.68,0,0,1-4.83,1.13,7.77,7.77,0,0,1-4.52-3.14,13,13,0,0,1-2.6-9,10.1,10.1,0,0,1,3.79-7.71,5.35,5.35,0,0,1,5.19-1.06,3.79,3.79,0,0,1,1.51-3.54,2.67,2.67,0,0,1,1.9-.57,2.41,2.41,0,0,1,1.66,1,4.75,4.75,0,0,1,.71,1.61l.19.72ZM159.52,237l.51-.38a2.72,2.72,0,0,0,1.18-3.05l-1.23-4.6a4.17,4.17,0,0,0-.59-1.39,1.54,1.54,0,0,0-1.27-.55,2.62,2.62,0,0,0-1.59.57,4.78,4.78,0,0,0-1.59,3.92,7,7,0,0,0,1.31,4.66C157.29,237.56,158.39,237.82,159.52,237Z"/><path class="cls-8" d="M157.72,247.52a9.56,9.56,0,0,1-2.06-.23,11.37,11.37,0,0,1-6.76-4.56,16.76,16.76,0,0,1-3.36-11.61,13.63,13.63,0,0,1,5.29-10.46,10.06,10.06,0,0,1,4.49-2,7.51,7.51,0,0,1,2.19-2.59,6.38,6.38,0,0,1,4.65-1.31,6.18,6.18,0,0,1,4.28,2.44,8.44,8.44,0,0,1,1.34,2.94l1.36,5.09a5.7,5.7,0,0,1,6.9,1.9,6.68,6.68,0,0,1,1.17,5.93,8.65,8.65,0,0,1-3.37,4.64l-2.59,1.89A7.55,7.55,0,0,1,168.1,241a8.2,8.2,0,0,1-2.19,2.6l-2.33,1.74A9.52,9.52,0,0,1,157.72,247.52Z"/><path class="cls-8" d="M181.55,220.45l9.34,15a4.44,4.44,0,0,1,.36,5.25,2.54,2.54,0,0,1-1.57,1,2.14,2.14,0,0,1-1.75-.36,8.63,8.63,0,0,1-1.57-1.89l-17.25-27.83a3.29,3.29,0,0,1,0-4,2.89,2.89,0,0,1,2.74-1.16,5.91,5.91,0,0,1,1-4.64,5.39,5.39,0,0,1,4.21-2.31,8.31,8.31,0,0,1,5.28,1.89,13.9,13.9,0,0,1,6,9.19,7,7,0,0,1,0,3.16,11.54,11.54,0,0,1-1.89,3.35,12.13,12.13,0,0,1-2.41,2.69A5.18,5.18,0,0,1,181.55,220.45Zm-3-4.77a4,4,0,0,0,1.89-.12,3.85,3.85,0,0,0,1.35-1.28,3.31,3.31,0,0,0,.56-3.09,9.1,9.1,0,0,0-3.31-5,2.14,2.14,0,0,0-3,0,2,2,0,0,0-.34.43,3.89,3.89,0,0,0,.25,4.76,2.58,2.58,0,0,0,.32.49Z"/><path class="cls-8" d="M189.2,245.61a6,6,0,0,1-3.5-1.14,10.34,10.34,0,0,1-2.54-3l-17.29-27.85a7.14,7.14,0,0,1,.22-8.24,7,7,0,0,1,2.07-1.89,10,10,0,0,1,1.72-3.94,9.1,9.1,0,0,1,7.07-3.79,12,12,0,0,1,7.73,2.54A17.7,17.7,0,0,1,192.25,210a10.56,10.56,0,0,1-.21,4.87,14.79,14.79,0,0,1-2.4,4.5,20.24,20.24,0,0,1-2.43,2.88l7,11.37c2.86,4.6,1.37,7.91.21,9.47a6.22,6.22,0,0,1-3.92,2.5A7,7,0,0,1,189.2,245.61Z"/><path class="cls-8" d="M195.78,196.13l12.89,12.1a4.45,4.45,0,0,1,1.73,5,2.53,2.53,0,0,1-1.25,1.4,2.21,2.21,0,0,1-1.78,0,7.45,7.45,0,0,1-2-1.46l-23.9-22.39a3.33,3.33,0,0,1-1-3.79,2.89,2.89,0,0,1,2.35-1.89,5.81,5.81,0,0,1-.19-4.76A5.34,5.34,0,0,1,186.1,177a8.24,8.24,0,0,1,5.68.38,14,14,0,0,1,8.14,7.33,6.91,6.91,0,0,1,.72,3.09,11.47,11.47,0,0,1-.89,3.78,12.05,12.05,0,0,1-1.63,3.22A4.88,4.88,0,0,1,195.78,196.13Zm-4.11-3.79a2.74,2.74,0,0,0,2.76-2.19,3.4,3.4,0,0,0-.25-3.13,9.29,9.29,0,0,0-4.5-4,2.16,2.16,0,0,0-3,.79,2,2,0,0,0-.22.52A3.93,3.93,0,0,0,188,188.9l.46.39Z"/><path class="cls-8" d="M208.13,218.65a5.75,5.75,0,0,1-2.13-.4,10.45,10.45,0,0,1-3.22-2.21l-23.92-22.3a7.13,7.13,0,0,1-1.89-8,6.83,6.83,0,0,1,1.49-2.33,10.06,10.06,0,0,1,.65-4.24,9.12,9.12,0,0,1,5.83-5.57,12,12,0,0,1,8.13.46,17.7,17.7,0,0,1,10.24,9.3,10.7,10.7,0,0,1,1.06,4.75,15.25,15.25,0,0,1-1.15,5,19.32,19.32,0,0,1-1.61,3.41l9.7,9.09c3.94,3.79,3.35,7.3,2.65,9.11a6.25,6.25,0,0,1-5.82,4.08Z"/><path class="cls-8" d="M199.85,168.57l.45-2.65c.38-2.12,1.33-3,2.81-2.78a2.84,2.84,0,0,1,2.19,1.53,5.27,5.27,0,0,1,.31,3.3l-.82,4.52a4.54,4.54,0,0,1-1.4,2.79,2.86,2.86,0,0,1-2.54.64,7.74,7.74,0,0,1-2.46-1.17l-23.2-14.61-.63-.38a4,4,0,0,1-2.16-4.2,2.58,2.58,0,0,1,1-1.67,2.22,2.22,0,0,1,1.89-.45,5.28,5.28,0,0,1,1.65.68l.62.4Z"/><path class="cls-8" d="M201.46,179.78a6.74,6.74,0,0,1-1.27-.11,11.47,11.47,0,0,1-3.79-1.7l-23.83-15a7.74,7.74,0,0,1-3.79-8.06,6.48,6.48,0,0,1,2.52-4.08,6.08,6.08,0,0,1,4.74-1.11,8.66,8.66,0,0,1,3,1.17l18.56,11.69a5.69,5.69,0,0,1,6.33-3.19,6.71,6.71,0,0,1,4.91,3.55,8.76,8.76,0,0,1,.66,5.68l-.8,4.53a8.29,8.29,0,0,1-2.65,5A6.66,6.66,0,0,1,201.46,179.78Z"/><path class="cls-8" d="M199.3,152.6c1.27,0,1.89-.94,1.89-2.87v-7.58c0-2.14.78-3.22,2.29-3.2a2.84,2.84,0,0,1,2.41,1.15,5,5,0,0,1,.85,3.19v7.21a8.62,8.62,0,0,1-2,6.14,7.56,7.56,0,0,1-5.84,2.06,12,12,0,0,1-8.48-3.39,10.5,10.5,0,0,1-3.53-7.95,8,8,0,0,1,1.9-5.36,5.7,5.7,0,0,1,4.62-1.9,5.46,5.46,0,0,1,5.08,2.84,9.3,9.3,0,0,1,.92,4.64Zm-4.64-1.25v-2.82c0-1.89-.38-2.71-1.2-2.65s-1.34.62-1.36,1.74a4.15,4.15,0,0,0,2.6,3.73Z"/><path class="cls-8" d="M199.05,162.51h-.11a15.76,15.76,0,0,1-11.06-4.43,14.12,14.12,0,0,1-4.72-10.74,11.66,11.66,0,0,1,2.71-7.84,9.59,9.59,0,0,1,7.58-3.3,9.93,9.93,0,0,1,5.3,1.5l.11-.17a5.7,5.7,0,0,1,4.78-2.39h0a6.72,6.72,0,0,1,5.43,2.67,8.92,8.92,0,0,1,1.61,5.49v7.24a12.27,12.27,0,0,1-3.09,8.73A11.34,11.34,0,0,1,199.05,162.51Z"/><path class="cls-1" d="M74.65,245.06l-6.52-2.77L54.64,252.5q-9.47,7.23-17,4.07A11.15,11.15,0,0,1,31.21,250a12.57,12.57,0,0,1,.35-9.47,15,15,0,0,1,5.68-6.69,21.27,21.27,0,0,1,9.2-3.37,24.56,24.56,0,0,1,8,.42,61.23,61.23,0,0,1,10.45,3.54l1.72.74L70,232.5A21.87,21.87,0,0,1,83.44,227a26.69,26.69,0,0,1,10,2.44,4.08,4.08,0,0,1,2.05,1.63,2.44,2.44,0,0,1,0,2.2,3.9,3.9,0,0,1-.82,1.15l-.45.46L86,243.29l1.8.76.61.27c1.76.74,2.31,1.89,1.67,3.39a3.25,3.25,0,0,1-2.09,1.89,4,4,0,0,1-3-.13l-.64-.27-3-1.25L76,253.28l3.79,1.63.61.24c1.76.74,2.33,1.9,1.68,3.37a3.3,3.3,0,0,1-2.08,1.9,4.17,4.17,0,0,1-3-.14l-.63-.26-5-2.12a5.5,5.5,0,0,1-2.88-2.45,3.62,3.62,0,0,1-.14-3.25,11.45,11.45,0,0,1,2.52-3.26ZM61,239.37l-1.89-.85a21.64,21.64,0,0,0-11.75-2,14,14,0,0,0-5.68,2.31,10,10,0,0,0-3.54,4.23,6,6,0,0,0-.17,4.43,4.9,4.9,0,0,0,2.82,3.05c2.37,1,5.11.3,8.26-2.06Zm18.34,1.1,6.89-6.93a7.73,7.73,0,0,0-4.87-.17,22,22,0,0,0-6.06,3.52l-1.65,1.2Z"/><path class="cls-1" d="M100,259.07l-6.4,16.5c-.87,2.27-2.2,3.43-4,3.45a2.48,2.48,0,0,1-1.76-.65,2.17,2.17,0,0,1-.76-1.61,7.64,7.64,0,0,1,.61-2.4l11.83-30.54a3.31,3.31,0,0,1,3.22-2.34,2.87,2.87,0,0,1,2.58,1.49,5.69,5.69,0,0,1,4.34-1.89A5.22,5.22,0,0,1,114,243a8.21,8.21,0,0,1,1.75,5.32A14.08,14.08,0,0,1,112,258.6a7.06,7.06,0,0,1-2.6,1.89,11.28,11.28,0,0,1-3.78.55,11.46,11.46,0,0,1-3.6-.3A5,5,0,0,1,100,259.07Zm2-5.24a4.06,4.06,0,0,0,1.23,1.44,3.81,3.81,0,0,0,1.89.3,3.36,3.36,0,0,0,2.8-1.4,9.37,9.37,0,0,0,1.9-5.69c0-1.65-.8-2.46-2.39-2.44a3.78,3.78,0,0,0-3.65,3.05c0,.23-.16.4-.21.57Z"/><path class="cls-1" d="M127.85,252.05l2.81-.69c2.08-.51,3.29,0,3.65,1.44a2.92,2.92,0,0,1-.51,2.64,5.19,5.19,0,0,1-2.9,1.59L127,258a5.84,5.84,0,0,1-3.65,0,2.89,2.89,0,0,1-1.9-2.12,6.25,6.25,0,0,1,0-2.2L123,242.59l.12-.75a4,4,0,0,1,3-3.79,2.64,2.64,0,0,1,1.89.26,2.28,2.28,0,0,1,1.18,1.48,8.1,8.1,0,0,1,0,2.6ZM126,229.77a3.52,3.52,0,0,1,4.28,2.54l0,.06a3.56,3.56,0,0,1-2.62,4.3,3.49,3.49,0,0,1-2.69-.42,3.58,3.58,0,0,1-1.19-4.87,3.47,3.47,0,0,1,2.1-1.65Z"/><path class="cls-1" d="M166.83,231.29l2.24-1.71c1.72-1.29,3-1.32,3.94-.13a2.93,2.93,0,0,1,.55,2.63,5.18,5.18,0,0,1-2,2.62l-2.6,1.89a3,3,0,0,1-3.42.43,5.65,5.65,0,0,1-1.9,3.6l-2.33,1.75a5.68,5.68,0,0,1-4.83,1.13,7.77,7.77,0,0,1-4.52-3.14,13,13,0,0,1-2.6-9,10.1,10.1,0,0,1,3.79-7.71,5.35,5.35,0,0,1,5.19-1.06,3.79,3.79,0,0,1,1.51-3.54,2.67,2.67,0,0,1,1.9-.57,2.41,2.41,0,0,1,1.66,1,4.75,4.75,0,0,1,.71,1.61l.19.72ZM159.52,237l.51-.38a2.72,2.72,0,0,0,1.18-3.05l-1.23-4.6a4.17,4.17,0,0,0-.59-1.39,1.54,1.54,0,0,0-1.27-.55,2.62,2.62,0,0,0-1.59.57,4.78,4.78,0,0,0-1.59,3.92,7,7,0,0,0,1.31,4.66C157.29,237.56,158.39,237.82,159.52,237Z"/><path class="cls-1" d="M181.55,220.45l9.34,15a4.44,4.44,0,0,1,.36,5.25,2.54,2.54,0,0,1-1.57,1,2.14,2.14,0,0,1-1.75-.36,8.63,8.63,0,0,1-1.57-1.89l-17.25-27.83a3.29,3.29,0,0,1,0-4,2.89,2.89,0,0,1,2.74-1.16,5.91,5.91,0,0,1,1-4.64,5.39,5.39,0,0,1,4.21-2.31,8.31,8.31,0,0,1,5.28,1.89,13.9,13.9,0,0,1,6,9.19,7,7,0,0,1,0,3.16,11.54,11.54,0,0,1-1.89,3.35,12.13,12.13,0,0,1-2.41,2.69A5.18,5.18,0,0,1,181.55,220.45Zm-3-4.77a4,4,0,0,0,1.89-.12,3.85,3.85,0,0,0,1.35-1.28,3.31,3.31,0,0,0,.56-3.09,9.1,9.1,0,0,0-3.31-5,2.14,2.14,0,0,0-3,0,2,2,0,0,0-.34.43,3.89,3.89,0,0,0,.25,4.76,2.58,2.58,0,0,0,.32.49Z"/><path class="cls-1" d="M195.78,196.13l12.89,12.1a4.45,4.45,0,0,1,1.73,5,2.53,2.53,0,0,1-1.25,1.4,2.21,2.21,0,0,1-1.78,0,7.45,7.45,0,0,1-2-1.46l-23.9-22.39a3.33,3.33,0,0,1-1-3.79,2.89,2.89,0,0,1,2.35-1.89,5.81,5.81,0,0,1-.19-4.76A5.34,5.34,0,0,1,186.1,177a8.24,8.24,0,0,1,5.68.38,14,14,0,0,1,8.14,7.33,6.91,6.91,0,0,1,.72,3.09,11.47,11.47,0,0,1-.89,3.78,12.05,12.05,0,0,1-1.63,3.22A4.88,4.88,0,0,1,195.78,196.13Zm-4.11-3.79a2.74,2.74,0,0,0,2.76-2.19,3.4,3.4,0,0,0-.25-3.13,9.29,9.29,0,0,0-4.5-4,2.16,2.16,0,0,0-3,.79,2,2,0,0,0-.22.52A3.93,3.93,0,0,0,188,188.9l.46.39Z"/><path class="cls-1" d="M199.85,168.57l.45-2.65c.38-2.12,1.33-3,2.81-2.78a2.84,2.84,0,0,1,2.19,1.53,5.27,5.27,0,0,1,.31,3.3l-.82,4.52a4.54,4.54,0,0,1-1.4,2.79,2.86,2.86,0,0,1-2.54.64,7.74,7.74,0,0,1-2.46-1.17l-23.2-14.61-.63-.38a4,4,0,0,1-2.16-4.2,2.58,2.58,0,0,1,1-1.67,2.22,2.22,0,0,1,1.89-.45,5.28,5.28,0,0,1,1.65.68l.62.4Z"/><path class="cls-1" d="M199.3,152.6c1.27,0,1.89-.94,1.89-2.87v-7.58c0-2.14.78-3.22,2.29-3.2a2.84,2.84,0,0,1,2.41,1.15,5,5,0,0,1,.85,3.19v7.21a8.62,8.62,0,0,1-2,6.14,7.56,7.56,0,0,1-5.84,2.06,12,12,0,0,1-8.48-3.39,10.5,10.5,0,0,1-3.53-7.95,8,8,0,0,1,1.9-5.36,5.7,5.7,0,0,1,4.62-1.9,5.46,5.46,0,0,1,5.08,2.84,9.3,9.3,0,0,1,.92,4.64Zm-4.64-1.25v-2.82c0-1.89-.38-2.71-1.2-2.65s-1.34.62-1.36,1.74a4.15,4.15,0,0,0,2.6,3.73Z"/><path class="cls-8" d="M74.65,245.06l-6.52-2.77L54.64,252.5q-9.47,7.23-17,4.07A11.15,11.15,0,0,1,31.21,250a12.57,12.57,0,0,1,.35-9.47,15,15,0,0,1,5.68-6.69,21.27,21.27,0,0,1,9.2-3.37,24.56,24.56,0,0,1,8,.42,61.23,61.23,0,0,1,10.45,3.54l1.72.74L70,232.5A21.87,21.87,0,0,1,83.44,227a26.69,26.69,0,0,1,10,2.44,4.08,4.08,0,0,1,2.05,1.63,2.44,2.44,0,0,1,0,2.2,3.9,3.9,0,0,1-.82,1.15l-.45.46L86,243.29l1.8.76.61.27c1.76.74,2.31,1.89,1.67,3.39a3.25,3.25,0,0,1-2.09,1.89,4,4,0,0,1-3-.13l-.64-.27-3-1.25L76,253.28l3.79,1.63.61.24c1.76.74,2.33,1.9,1.68,3.37a3.3,3.3,0,0,1-2.08,1.9,4.17,4.17,0,0,1-3-.14l-.63-.26-5-2.12a5.5,5.5,0,0,1-2.88-2.45,3.62,3.62,0,0,1-.14-3.25,11.45,11.45,0,0,1,2.52-3.26ZM61,239.37l-1.89-.85a21.64,21.64,0,0,0-11.75-2,14,14,0,0,0-5.68,2.31,10,10,0,0,0-3.54,4.23,6,6,0,0,0-.17,4.43,4.9,4.9,0,0,0,2.82,3.05c2.37,1,5.11.3,8.26-2.06Zm18.34,1.1,6.89-6.93a7.73,7.73,0,0,0-4.87-.17,22,22,0,0,0-6.06,3.52l-1.65,1.2Z"/><path class="cls-8" d="M78.72,264.39a8.18,8.18,0,0,1-3.2-.66l-5.68-2.38a9.34,9.34,0,0,1-4.76-4.17,7.43,7.43,0,0,1-.28-6.52,10.62,10.62,0,0,1,1.13-1.89l-9,6.82c-7.48,5.68-14.51,7.21-20.84,4.54a14.83,14.83,0,0,1-8.46-8.79A16.29,16.29,0,0,1,28,239a19.11,19.11,0,0,1,7.05-8.38,25.1,25.1,0,0,1,10.83-4,28.21,28.21,0,0,1,9.3.47A61.19,61.19,0,0,1,66,230.72l1.53-1.23a25.71,25.71,0,0,1,15.84-6.35h0a30.13,30.13,0,0,1,11.5,2.75,7.69,7.69,0,0,1,3.78,3.27,6.25,6.25,0,0,1,.27,5.54A7.84,7.84,0,0,1,97.32,237l-.46.45-4.75,4.83a5.91,5.91,0,0,1,1.29,6.84,7.06,7.06,0,0,1-4.34,4,7.7,7.7,0,0,1-4.7.15,6.35,6.35,0,0,1,1.08,1.5,5.89,5.89,0,0,1,0,5.15A7,7,0,0,1,81.11,264,8.11,8.11,0,0,1,78.72,264.39ZM49.66,240.06a9.06,9.06,0,0,0-1.72.13,9.82,9.82,0,0,0-4.13,1.66,6.18,6.18,0,0,0-2.23,2.6,2.16,2.16,0,0,0,0,1.69,1.09,1.09,0,0,0,.7.81c1.27.53,3.14-.57,4.49-1.59l6.45-4.87A15.21,15.21,0,0,0,49.66,240.06Z"/><path class="cls-8" d="M100,259.07l-6.4,16.5c-.87,2.27-2.2,3.43-4,3.45a2.48,2.48,0,0,1-1.76-.65,2.17,2.17,0,0,1-.76-1.61,7.64,7.64,0,0,1,.61-2.4l11.83-30.54a3.31,3.31,0,0,1,3.22-2.34,2.87,2.87,0,0,1,2.58,1.49,5.69,5.69,0,0,1,4.34-1.89A5.22,5.22,0,0,1,114,243a8.21,8.21,0,0,1,1.75,5.32A14.08,14.08,0,0,1,112,258.6a7.06,7.06,0,0,1-2.6,1.89,11.28,11.28,0,0,1-3.78.55,11.46,11.46,0,0,1-3.6-.3A5,5,0,0,1,100,259.07Zm2-5.24a4.06,4.06,0,0,0,1.23,1.44,3.81,3.81,0,0,0,1.89.3,3.36,3.36,0,0,0,2.8-1.4,9.37,9.37,0,0,0,1.9-5.69c0-1.65-.8-2.46-2.39-2.44a3.78,3.78,0,0,0-3.65,3.05c0,.23-.16.4-.21.57Z"/><path class="cls-8" d="M89.57,282.77a6.22,6.22,0,0,1-4.24-1.63,5.93,5.93,0,0,1-2-4.38,10.25,10.25,0,0,1,.85-3.78L96,242.42a7.09,7.09,0,0,1,6.71-4.77,6.52,6.52,0,0,1,2.72.51,9.83,9.83,0,0,1,4.19-1,9,9,0,0,1,7.33,3.31,11.85,11.85,0,0,1,2.61,7.71,17.56,17.56,0,0,1-4.79,13,10.78,10.78,0,0,1-4,2.75,15.19,15.19,0,0,1-5,.8,20.87,20.87,0,0,1-3.79-.23L97.13,276.9c-1.89,5.05-5.51,5.85-7.46,5.89Z"/><path class="cls-8" d="M127.85,252.05l2.81-.69c2.08-.51,3.29,0,3.65,1.44a2.92,2.92,0,0,1-.51,2.64,5.19,5.19,0,0,1-2.9,1.59L127,258a5.84,5.84,0,0,1-3.65,0,2.89,2.89,0,0,1-1.9-2.12,6.25,6.25,0,0,1,0-2.2L123,242.59l.12-.75a4,4,0,0,1,3-3.79,2.64,2.64,0,0,1,1.89.26,2.28,2.28,0,0,1,1.18,1.48,8.1,8.1,0,0,1,0,2.6ZM126,229.77a3.52,3.52,0,0,1,4.28,2.54l0,.06a3.56,3.56,0,0,1-2.62,4.3,3.49,3.49,0,0,1-2.69-.42,3.58,3.58,0,0,1-1.19-4.87,3.47,3.47,0,0,1,2.1-1.65Z"/><path class="cls-8" d="M125.05,262.05a8.7,8.7,0,0,1-3.15-.57,6.75,6.75,0,0,1-4.12-4.76,9.44,9.44,0,0,1,0-3.67l1.72-11.78a9.31,9.31,0,0,1,1.33-3.7,7.22,7.22,0,0,1-1.2-2.61,7.35,7.35,0,0,1,5.38-8.88h0a7.35,7.35,0,0,1,8,10.95c-.13.22-.28.43-.43.64a6.71,6.71,0,0,1,.45,1.23,10.72,10.72,0,0,1,0,4.07l-.64,4.4a6.64,6.64,0,0,1,2.16.43,5.69,5.69,0,0,1,3.48,4.09,6.69,6.69,0,0,1-1.25,5.93,8.83,8.83,0,0,1-4.94,2.9l-3.94,1A11.81,11.81,0,0,1,125.05,262.05ZM126.66,233h0a.14.14,0,0,0-.13.13.6.6,0,0,0,0,.19l.13.14h.17l.15-.14a.31.31,0,0,0,0-.19.45.45,0,0,0-.11-.13Z"/><path class="cls-8" d="M166.83,231.29l2.24-1.71c1.72-1.29,3-1.32,3.94-.13a2.93,2.93,0,0,1,.55,2.63,5.18,5.18,0,0,1-2,2.62l-2.6,1.89a3,3,0,0,1-3.42.43,5.65,5.65,0,0,1-1.9,3.6l-2.33,1.75a5.68,5.68,0,0,1-4.83,1.13,7.77,7.77,0,0,1-4.52-3.14,13,13,0,0,1-2.6-9,10.1,10.1,0,0,1,3.79-7.71,5.35,5.35,0,0,1,5.19-1.06,3.79,3.79,0,0,1,1.51-3.54,2.67,2.67,0,0,1,1.9-.57,2.41,2.41,0,0,1,1.66,1,4.75,4.75,0,0,1,.71,1.61l.19.72ZM159.52,237l.51-.38a2.72,2.72,0,0,0,1.18-3.05l-1.23-4.6a4.17,4.17,0,0,0-.59-1.39,1.54,1.54,0,0,0-1.27-.55,2.62,2.62,0,0,0-1.59.57,4.78,4.78,0,0,0-1.59,3.92,7,7,0,0,0,1.31,4.66C157.29,237.56,158.39,237.82,159.52,237Z"/><path class="cls-8" d="M157.72,247.52a9.56,9.56,0,0,1-2.06-.23,11.37,11.37,0,0,1-6.76-4.56,16.76,16.76,0,0,1-3.36-11.61,13.63,13.63,0,0,1,5.29-10.46,10.06,10.06,0,0,1,4.49-2,7.51,7.51,0,0,1,2.19-2.59,6.38,6.38,0,0,1,4.65-1.31,6.18,6.18,0,0,1,4.28,2.44,8.44,8.44,0,0,1,1.34,2.94l1.36,5.09a5.7,5.7,0,0,1,6.9,1.9,6.68,6.68,0,0,1,1.17,5.93,8.65,8.65,0,0,1-3.37,4.64l-2.59,1.89A7.55,7.55,0,0,1,168.1,241a8.2,8.2,0,0,1-2.19,2.6l-2.33,1.74A9.52,9.52,0,0,1,157.72,247.52Z"/><path class="cls-8" d="M181.55,220.45l9.34,15a4.44,4.44,0,0,1,.36,5.25,2.54,2.54,0,0,1-1.57,1,2.14,2.14,0,0,1-1.75-.36,8.63,8.63,0,0,1-1.57-1.89l-17.25-27.83a3.29,3.29,0,0,1,0-4,2.89,2.89,0,0,1,2.74-1.16,5.91,5.91,0,0,1,1-4.64,5.39,5.39,0,0,1,4.21-2.31,8.31,8.31,0,0,1,5.28,1.89,13.9,13.9,0,0,1,6,9.19,7,7,0,0,1,0,3.16,11.54,11.54,0,0,1-1.89,3.35,12.13,12.13,0,0,1-2.41,2.69A5.18,5.18,0,0,1,181.55,220.45Zm-3-4.77a4,4,0,0,0,1.89-.12,3.85,3.85,0,0,0,1.35-1.28,3.31,3.31,0,0,0,.56-3.09,9.1,9.1,0,0,0-3.31-5,2.14,2.14,0,0,0-3,0,2,2,0,0,0-.34.43,3.89,3.89,0,0,0,.25,4.76,2.58,2.58,0,0,0,.32.49Z"/><path class="cls-8" d="M189.2,245.61a6,6,0,0,1-3.5-1.14,10.34,10.34,0,0,1-2.54-3l-17.29-27.85a7.14,7.14,0,0,1,.22-8.24,7,7,0,0,1,2.07-1.89,10,10,0,0,1,1.72-3.94,9.1,9.1,0,0,1,7.07-3.79,12,12,0,0,1,7.73,2.54A17.7,17.7,0,0,1,192.25,210a10.56,10.56,0,0,1-.21,4.87,14.79,14.79,0,0,1-2.4,4.5,20.24,20.24,0,0,1-2.43,2.88l7,11.37c2.86,4.6,1.37,7.91.21,9.47a6.22,6.22,0,0,1-3.92,2.5A7,7,0,0,1,189.2,245.61Z"/><path class="cls-8" d="M195.78,196.13l12.89,12.1a4.45,4.45,0,0,1,1.73,5,2.53,2.53,0,0,1-1.25,1.4,2.21,2.21,0,0,1-1.78,0,7.45,7.45,0,0,1-2-1.46l-23.9-22.39a3.33,3.33,0,0,1-1-3.79,2.89,2.89,0,0,1,2.35-1.89,5.81,5.81,0,0,1-.19-4.76A5.34,5.34,0,0,1,186.1,177a8.24,8.24,0,0,1,5.68.38,14,14,0,0,1,8.14,7.33,6.91,6.91,0,0,1,.72,3.09,11.47,11.47,0,0,1-.89,3.78,12.05,12.05,0,0,1-1.63,3.22A4.88,4.88,0,0,1,195.78,196.13Zm-4.11-3.79a2.74,2.74,0,0,0,2.76-2.19,3.4,3.4,0,0,0-.25-3.13,9.29,9.29,0,0,0-4.5-4,2.16,2.16,0,0,0-3,.79,2,2,0,0,0-.22.52A3.93,3.93,0,0,0,188,188.9l.46.39Z"/><path class="cls-8" d="M208.13,218.65a5.75,5.75,0,0,1-2.13-.4,10.45,10.45,0,0,1-3.22-2.21l-23.92-22.3a7.13,7.13,0,0,1-1.89-8,6.83,6.83,0,0,1,1.49-2.33,10.06,10.06,0,0,1,.65-4.24,9.12,9.12,0,0,1,5.83-5.57,12,12,0,0,1,8.13.46,17.7,17.7,0,0,1,10.24,9.3,10.7,10.7,0,0,1,1.06,4.75,15.25,15.25,0,0,1-1.15,5,19.32,19.32,0,0,1-1.61,3.41l9.7,9.09c3.94,3.79,3.35,7.3,2.65,9.11a6.25,6.25,0,0,1-5.82,4.08Z"/><path class="cls-8" d="M199.85,168.57l.45-2.65c.38-2.12,1.33-3,2.81-2.78a2.84,2.84,0,0,1,2.19,1.53,5.27,5.27,0,0,1,.31,3.3l-.82,4.52a4.54,4.54,0,0,1-1.4,2.79,2.86,2.86,0,0,1-2.54.64,7.74,7.74,0,0,1-2.46-1.17l-23.2-14.61-.63-.38a4,4,0,0,1-2.16-4.2,2.58,2.58,0,0,1,1-1.67,2.22,2.22,0,0,1,1.89-.45,5.28,5.28,0,0,1,1.65.68l.62.4Z"/><path class="cls-8" d="M201.46,179.78a6.74,6.74,0,0,1-1.27-.11,11.47,11.47,0,0,1-3.79-1.7l-23.83-15a7.74,7.74,0,0,1-3.79-8.06,6.48,6.48,0,0,1,2.52-4.08,6.08,6.08,0,0,1,4.74-1.11,8.66,8.66,0,0,1,3,1.17l18.56,11.69a5.69,5.69,0,0,1,6.33-3.19,6.71,6.71,0,0,1,4.91,3.55,8.76,8.76,0,0,1,.66,5.68l-.8,4.53a8.29,8.29,0,0,1-2.65,5A6.66,6.66,0,0,1,201.46,179.78Z"/><path class="cls-8" d="M199.3,152.6c1.27,0,1.89-.94,1.89-2.87v-7.58c0-2.14.78-3.22,2.29-3.2a2.84,2.84,0,0,1,2.41,1.15,5,5,0,0,1,.85,3.19v7.21a8.62,8.62,0,0,1-2,6.14,7.56,7.56,0,0,1-5.84,2.06,12,12,0,0,1-8.48-3.39,10.5,10.5,0,0,1-3.53-7.95,8,8,0,0,1,1.9-5.36,5.7,5.7,0,0,1,4.62-1.9,5.46,5.46,0,0,1,5.08,2.84,9.3,9.3,0,0,1,.92,4.64Zm-4.64-1.25v-2.82c0-1.89-.38-2.71-1.2-2.65s-1.34.62-1.36,1.74a4.15,4.15,0,0,0,2.6,3.73Z"/><path class="cls-8" d="M199.05,162.51h-.11a15.76,15.76,0,0,1-11.06-4.43,14.12,14.12,0,0,1-4.72-10.74,11.66,11.66,0,0,1,2.71-7.84,9.59,9.59,0,0,1,7.58-3.3,9.93,9.93,0,0,1,5.3,1.5l.11-.17a5.7,5.7,0,0,1,4.78-2.39h0a6.72,6.72,0,0,1,5.43,2.67,8.92,8.92,0,0,1,1.61,5.49v7.24a12.27,12.27,0,0,1-3.09,8.73A11.34,11.34,0,0,1,199.05,162.51Z"/><path class="cls-1" d="M74.65,245.06l-6.52-2.77L54.64,252.5q-9.47,7.23-17,4.07A11.15,11.15,0,0,1,31.21,250a12.57,12.57,0,0,1,.35-9.47,15,15,0,0,1,5.68-6.69,21.27,21.27,0,0,1,9.2-3.37,24.56,24.56,0,0,1,8,.42,61.23,61.23,0,0,1,10.45,3.54l1.72.74L70,232.5A21.87,21.87,0,0,1,83.44,227a26.69,26.69,0,0,1,10,2.44,4.08,4.08,0,0,1,2.05,1.63,2.44,2.44,0,0,1,0,2.2,3.9,3.9,0,0,1-.82,1.15l-.45.46L86,243.29l1.8.76.61.27c1.76.74,2.31,1.89,1.67,3.39a3.25,3.25,0,0,1-2.09,1.89,4,4,0,0,1-3-.13l-.64-.27-3-1.25L76,253.28l3.79,1.63.61.24c1.76.74,2.33,1.9,1.68,3.37a3.3,3.3,0,0,1-2.08,1.9,4.17,4.17,0,0,1-3-.14l-.63-.26-5-2.12a5.5,5.5,0,0,1-2.88-2.45,3.62,3.62,0,0,1-.14-3.25,11.45,11.45,0,0,1,2.52-3.26ZM61,239.37l-1.89-.85a21.64,21.64,0,0,0-11.75-2,14,14,0,0,0-5.68,2.31,10,10,0,0,0-3.54,4.23,6,6,0,0,0-.17,4.43,4.9,4.9,0,0,0,2.82,3.05c2.37,1,5.11.3,8.26-2.06Zm18.34,1.1,6.89-6.93a7.73,7.73,0,0,0-4.87-.17,22,22,0,0,0-6.06,3.52l-1.65,1.2Z"/><path class="cls-1" d="M100,259.07l-6.4,16.5c-.87,2.27-2.2,3.43-4,3.45a2.48,2.48,0,0,1-1.76-.65,2.17,2.17,0,0,1-.76-1.61,7.64,7.64,0,0,1,.61-2.4l11.83-30.54a3.31,3.31,0,0,1,3.22-2.34,2.87,2.87,0,0,1,2.58,1.49,5.69,5.69,0,0,1,4.34-1.89A5.22,5.22,0,0,1,114,243a8.21,8.21,0,0,1,1.75,5.32A14.08,14.08,0,0,1,112,258.6a7.06,7.06,0,0,1-2.6,1.89,11.28,11.28,0,0,1-3.78.55,11.46,11.46,0,0,1-3.6-.3A5,5,0,0,1,100,259.07Zm2-5.24a4.06,4.06,0,0,0,1.23,1.44,3.81,3.81,0,0,0,1.89.3,3.36,3.36,0,0,0,2.8-1.4,9.37,9.37,0,0,0,1.9-5.69c0-1.65-.8-2.46-2.39-2.44a3.78,3.78,0,0,0-3.65,3.05c0,.23-.16.4-.21.57Z"/><path class="cls-1" d="M127.85,252.05l2.81-.69c2.08-.51,3.29,0,3.65,1.44a2.92,2.92,0,0,1-.51,2.64,5.19,5.19,0,0,1-2.9,1.59L127,258a5.84,5.84,0,0,1-3.65,0,2.89,2.89,0,0,1-1.9-2.12,6.25,6.25,0,0,1,0-2.2L123,242.59l.12-.75a4,4,0,0,1,3-3.79,2.64,2.64,0,0,1,1.89.26,2.28,2.28,0,0,1,1.18,1.48,8.1,8.1,0,0,1,0,2.6ZM126,229.77a3.52,3.52,0,0,1,4.28,2.54l0,.06a3.56,3.56,0,0,1-2.62,4.3,3.49,3.49,0,0,1-2.69-.42,3.58,3.58,0,0,1-1.19-4.87,3.47,3.47,0,0,1,2.1-1.65Z"/><path class="cls-1" d="M166.83,231.29l2.24-1.71c1.72-1.29,3-1.32,3.94-.13a2.93,2.93,0,0,1,.55,2.63,5.18,5.18,0,0,1-2,2.62l-2.6,1.89a3,3,0,0,1-3.42.43,5.65,5.65,0,0,1-1.9,3.6l-2.33,1.75a5.68,5.68,0,0,1-4.83,1.13,7.77,7.77,0,0,1-4.52-3.14,13,13,0,0,1-2.6-9,10.1,10.1,0,0,1,3.79-7.71,5.35,5.35,0,0,1,5.19-1.06,3.79,3.79,0,0,1,1.51-3.54,2.67,2.67,0,0,1,1.9-.57,2.41,2.41,0,0,1,1.66,1,4.75,4.75,0,0,1,.71,1.61l.19.72ZM159.52,237l.51-.38a2.72,2.72,0,0,0,1.18-3.05l-1.23-4.6a4.17,4.17,0,0,0-.59-1.39,1.54,1.54,0,0,0-1.27-.55,2.62,2.62,0,0,0-1.59.57,4.78,4.78,0,0,0-1.59,3.92,7,7,0,0,0,1.31,4.66C157.29,237.56,158.39,237.82,159.52,237Z"/><path class="cls-1" d="M181.55,220.45l9.34,15a4.44,4.44,0,0,1,.36,5.25,2.54,2.54,0,0,1-1.57,1,2.14,2.14,0,0,1-1.75-.36,8.63,8.63,0,0,1-1.57-1.89l-17.25-27.83a3.29,3.29,0,0,1,0-4,2.89,2.89,0,0,1,2.74-1.16,5.91,5.91,0,0,1,1-4.64,5.39,5.39,0,0,1,4.21-2.31,8.31,8.31,0,0,1,5.28,1.89,13.9,13.9,0,0,1,6,9.19,7,7,0,0,1,0,3.16,11.54,11.54,0,0,1-1.89,3.35,12.13,12.13,0,0,1-2.41,2.69A5.18,5.18,0,0,1,181.55,220.45Zm-3-4.77a4,4,0,0,0,1.89-.12,3.85,3.85,0,0,0,1.35-1.28,3.31,3.31,0,0,0,.56-3.09,9.1,9.1,0,0,0-3.31-5,2.14,2.14,0,0,0-3,0,2,2,0,0,0-.34.43,3.89,3.89,0,0,0,.25,4.76,2.58,2.58,0,0,0,.32.49Z"/><path class="cls-1" d="M195.78,196.13l12.89,12.1a4.45,4.45,0,0,1,1.73,5,2.53,2.53,0,0,1-1.25,1.4,2.21,2.21,0,0,1-1.78,0,7.45,7.45,0,0,1-2-1.46l-23.9-22.39a3.33,3.33,0,0,1-1-3.79,2.89,2.89,0,0,1,2.35-1.89,5.81,5.81,0,0,1-.19-4.76A5.34,5.34,0,0,1,186.1,177a8.24,8.24,0,0,1,5.68.38,14,14,0,0,1,8.14,7.33,6.91,6.91,0,0,1,.72,3.09,11.47,11.47,0,0,1-.89,3.78,12.05,12.05,0,0,1-1.63,3.22A4.88,4.88,0,0,1,195.78,196.13Zm-4.11-3.79a2.74,2.74,0,0,0,2.76-2.19,3.4,3.4,0,0,0-.25-3.13,9.29,9.29,0,0,0-4.5-4,2.16,2.16,0,0,0-3,.79,2,2,0,0,0-.22.52A3.93,3.93,0,0,0,188,188.9l.46.39Z"/><path class="cls-1" d="M199.85,168.57l.45-2.65c.38-2.12,1.33-3,2.81-2.78a2.84,2.84,0,0,1,2.19,1.53,5.27,5.27,0,0,1,.31,3.3l-.82,4.52a4.54,4.54,0,0,1-1.4,2.79,2.86,2.86,0,0,1-2.54.64,7.74,7.74,0,0,1-2.46-1.17l-23.2-14.61-.63-.38a4,4,0,0,1-2.16-4.2,2.58,2.58,0,0,1,1-1.67,2.22,2.22,0,0,1,1.89-.45,5.28,5.28,0,0,1,1.65.68l.62.4Z"/><path class="cls-1" d="M199.3,152.6c1.27,0,1.89-.94,1.89-2.87v-7.58c0-2.14.78-3.22,2.29-3.2a2.84,2.84,0,0,1,2.41,1.15,5,5,0,0,1,.85,3.19v7.21a8.62,8.62,0,0,1-2,6.14,7.56,7.56,0,0,1-5.84,2.06,12,12,0,0,1-8.48-3.39,10.5,10.5,0,0,1-3.53-7.95,8,8,0,0,1,1.9-5.36,5.7,5.7,0,0,1,4.62-1.9,5.46,5.46,0,0,1,5.08,2.84,9.3,9.3,0,0,1,.92,4.64Zm-4.64-1.25v-2.82c0-1.89-.38-2.71-1.2-2.65s-1.34.62-1.36,1.74a4.15,4.15,0,0,0,2.6,3.73Z"/></g></svg>