<svg xmlns="http://www.w3.org/2000/svg" viewBox="0 0 496.34 186.96"><defs><style>.cls-1{fill:#29293d;}.cls-2{fill:#29ffa3;}.cls-3{fill:#ffef27;}</style></defs><g id="Calque_1" data-name="Calque 1"><path class="cls-1" d="M185,53.88h4.18V86.17H185Z"/><path class="cls-1" d="M200.16,54.47a2.93,2.93,0,0,1,.81,2.11,6.86,6.86,0,0,1-.13,1.28,14.17,14.17,0,0,1-.57,1.81l-2.09,6.09h-2.74l1.61-6.48a2.8,2.8,0,0,1-1.83-2.7,2.89,2.89,0,0,1,.83-2.13,2.84,2.84,0,0,1,2.09-.83A2.64,2.64,0,0,1,200.16,54.47Z"/><path class="cls-1" d="M222.27,65.24c1.7,1.57,2.55,3.9,2.55,7V84.41a1.76,1.76,0,0,1-1.77,1.76h-.43a1.76,1.76,0,0,1-1.76-1.76V83.13a6.68,6.68,0,0,1-3,2.46,11.52,11.52,0,0,1-4.6.84,9.61,9.61,0,0,1-6.2-1.87,6.43,6.43,0,0,1-.11-9.81q2.22-1.84,7.05-1.85h6.62v-.83a5.3,5.3,0,0,0-1.57-4.13,6.58,6.58,0,0,0-4.61-1.44,12.18,12.18,0,0,0-4,.68,10.3,10.3,0,0,0-1.81.79,1.79,1.79,0,0,1-2.44-.67l0,0a1.76,1.76,0,0,1,.64-2.38,14,14,0,0,1,2.84-1.22,17.81,17.81,0,0,1,5.27-.76Q219.73,62.89,222.27,65.24Zm-4.15,16.91a6.08,6.08,0,0,0,2.52-3V75.9H214.2q-5.31,0-5.31,3.57a3.22,3.22,0,0,0,1.35,2.74,6.15,6.15,0,0,0,3.74,1A7.8,7.8,0,0,0,218.12,82.15Z"/><path class="cls-1" d="M245.53,84.82a6,6,0,0,1-2.26,1.2,9.31,9.31,0,0,1-2.78.41,7.39,7.39,0,0,1-5.4-1.87,7.12,7.12,0,0,1-1.92-5.35V66.55h-3.91V63.11h3.91v-5h4.18v5H244v3.44h-6.62V79a4,4,0,0,0,.94,2.87,3.46,3.46,0,0,0,2.67,1,5,5,0,0,0,3.27-1.09Z"/><path class="cls-1" d="M270.56,76H251.84a7.3,7.3,0,0,0,2.68,4.9,8.75,8.75,0,0,0,5.68,1.85A8.54,8.54,0,0,0,266.86,80l2.31,2.7a10.19,10.19,0,0,1-3.9,2.79,14.73,14.73,0,0,1-11.68-.55,10.69,10.69,0,0,1-4.38-4.2,12,12,0,0,1-1.54-6.09,12.25,12.25,0,0,1,1.5-6,10.76,10.76,0,0,1,4.13-4.2,11.81,11.81,0,0,1,5.94-1.5,11.56,11.56,0,0,1,5.9,1.5,10.57,10.57,0,0,1,4.05,4.2,12.82,12.82,0,0,1,1.46,6.18A11.5,11.5,0,0,1,270.56,76Zm-16.34-7.79A7.43,7.43,0,0,0,251.84,73h14.8a7.44,7.44,0,0,0-2.37-4.77,7.81,7.81,0,0,0-10,0Z"/><path class="cls-1" d="M276.43,53.88h4.18V86.17h-4.18Z"/><path class="cls-1" d="M288.64,57.88a2.55,2.55,0,0,1-.8-1.91,2.64,2.64,0,0,1,.8-1.94,2.77,2.77,0,0,1,2-.8,2.83,2.83,0,0,1,2,.76,2.52,2.52,0,0,1,.8,1.89,2.69,2.69,0,0,1-.8,2,3,3,0,0,1-4.05,0Zm-.06,5.23h4.17V86.17h-4.17Z"/><path class="cls-1" d="M321.48,76H302.76a7.26,7.26,0,0,0,2.68,4.9,8.75,8.75,0,0,0,5.68,1.85A8.56,8.56,0,0,0,317.78,80l2.3,2.7a10.08,10.08,0,0,1-3.89,2.79,14.75,14.75,0,0,1-11.69-.55,10.72,10.72,0,0,1-4.37-4.2,12,12,0,0,1-1.55-6.09,12.26,12.26,0,0,1,1.51-6,10.69,10.69,0,0,1,4.13-4.2,11.81,11.81,0,0,1,5.94-1.5,11.56,11.56,0,0,1,5.9,1.5,10.63,10.63,0,0,1,4.05,4.2,12.82,12.82,0,0,1,1.45,6.18A11.1,11.1,0,0,1,321.48,76Zm-16.35-7.79A7.42,7.42,0,0,0,302.76,73h14.8a7.44,7.44,0,0,0-2.37-4.77,7.83,7.83,0,0,0-10.06,0Z"/><path class="cls-1" d="M334.58,63.93a11.78,11.78,0,0,1,5.18-1v4a7.93,7.93,0,0,0-1,0,7,7,0,0,0-5.33,2,8,8,0,0,0-1.94,5.76V86.17h-4.18V63.11h4V67A7.16,7.16,0,0,1,334.58,63.93Z"/><path class="cls-1" d="M168.41,101V113.2H186v4.31H168.41v14.18h-5V96.61h24.76V101Z"/><path class="cls-1" d="M195.23,96.61h5v30.72h19v4.36h-24Z"/><path class="cls-1" d="M230.61,129.76a17.19,17.19,0,0,1-6.69-6.44,18.52,18.52,0,0,1,0-18.34,17.29,17.29,0,0,1,6.69-6.45,20.74,20.74,0,0,1,19.1,0,17.23,17.23,0,0,1,6.67,6.42,18.83,18.83,0,0,1,0,18.4,17.14,17.14,0,0,1-6.67,6.41,20.74,20.74,0,0,1-19.1,0Zm16.52-3.88A12.9,12.9,0,0,0,252,121a14.22,14.22,0,0,0,0-13.78,12.9,12.9,0,0,0-4.86-4.84,13.8,13.8,0,0,0-6.94-1.76,14.08,14.08,0,0,0-7,1.76,12.82,12.82,0,0,0-4.91,4.84,14.22,14.22,0,0,0,0,13.78,12.82,12.82,0,0,0,4.91,4.84,14.07,14.07,0,0,0,7,1.75A13.79,13.79,0,0,0,247.13,125.88Z"/><path class="cls-1" d="M289.91,131.69l-7.57-10.78c-.94.07-1.67.11-2.21.11h-8.67v10.67h-5V96.61h13.68q6.83,0,10.73,3.25a11.07,11.07,0,0,1,3.91,9,11.76,11.76,0,0,1-2,6.91,11.35,11.35,0,0,1-5.72,4.16l8.32,11.78Zm-2.66-17a8.07,8.07,0,0,0,0-11.7c-1.67-1.36-4.09-2-7.27-2h-8.52v15.78H280Q284.75,116.75,287.25,114.7Z"/><path class="cls-1" d="M325.24,122.92H306.6l-3.86,8.77h-5.16l15.89-35.08h5l15.94,35.08H329.1Zm-1.75-4-7.57-17.19-7.57,17.19Z"/><path class="cls-1" d="M339.58,96.61h5v30.72h19v4.36h-24Z"/><path class="cls-2" d="M458,161.07c-14.28-45.92-45.58-16.89,0,0"/><path class="cls-2" d="M354.14,163.61c11.81-46.61,44.62-19.3,0,0"/><path class="cls-2" d="M463.87,168.54c26.89,39.87,48.51,3.05,0,0"/><circle class="cls-3" cx="430.55" cy="76.17" r="11.85"/><path class="cls-1" d="M326.1,142.86a2.25,2.25,0,0,1,2.76,0c42.22,32.44,95.15,38,128.58,25.83,17.13-6.26,27.37-16.6,28.83-29.11,1-8.33-1.93-17.37-8.65-26.85-7.57-10.71-19.8-21.67-36.34-32.58a2.3,2.3,0,0,1-.91-2.75,2.26,2.26,0,0,1,3.34-1.06c17,11.24,29.69,22.6,37.6,33.78,7.37,10.42,10.55,20.51,9.44,30-.85,7.3-4.21,13.92-10,19.69-5.43,5.42-12.76,9.85-21.78,13.14-19.27,7-44.51,8.06-69.24,2.8q-6.15-1.31-12.15-3.09a158.56,158.56,0,0,1-51.49-26.2,2.27,2.27,0,0,1,0-3.59Z"/><path class="cls-1" d="M431.54,84.35A10.84,10.84,0,1,1,445,77,10.85,10.85,0,0,1,431.54,84.35Zm4.87-16.45a6.32,6.32,0,1,0,4.27,7.85A6.32,6.32,0,0,0,436.41,67.9Z"/><path class="cls-1" d="M458,165l-3-2.64c-14.44-12.85-16.25-22.89-13.12-28a7.16,7.16,0,0,1,9-2.85c5.82,2.25,11.38,11.36,7.86,29.6ZM449,135.56a2.6,2.6,0,0,0-3.17,1.1c-1.43,2.34-1.07,9.2,9.21,19.42.67-5.48.4-10.24-.78-13.94-1.07-3.31-2.86-5.67-4.93-6.47A2.13,2.13,0,0,0,449,135.56Z"/><path class="cls-1" d="M352.06,162.18l-.06,0h0a2.38,2.38,0,0,1-.67-.35,2.19,2.19,0,0,1-.67-.82,2.45,2.45,0,0,1-.2-.65,2.26,2.26,0,0,1,.41-1.65c5.4-7.44,11.15-13,16.64-16,4.84-2.64,9.34-3.3,12.68-1.86a6.48,6.48,0,0,1,3.93,7.38c-1.17,6.08-10.08,13.4-31.34,14A2.19,2.19,0,0,1,352.06,162.18Zm25.88-17.33c-3.58-1.06-11.33,1.58-20.43,12.63,15-1.35,21.5-6.57,22.17-10.08A2,2,0,0,0,378.4,145,3.12,3.12,0,0,0,377.94,144.85Z"/><path class="cls-1" d="M480.22,182.89c-5.88-1.75-12.53-5.7-19.27-11.49l-.23-.22a2.26,2.26,0,0,1-.55-1.29,2.14,2.14,0,0,1,0-.62,2.36,2.36,0,0,1,.5-1.06,2.24,2.24,0,0,1,1.29-.74c20.82-4.32,31.17.73,33.72,6.37a6.47,6.47,0,0,1-2.11,8.08c-2.91,2.18-7.45,2.59-12.76,1.14ZM467.69,171c11.93,9,20.29,9.45,23.21,7.27a2,2,0,0,0,.69-2.62C490.12,172.44,482.59,168.86,467.69,171Z"/><path class="cls-1" d="M186.79,44a2.26,2.26,0,0,1-2.89.29C143.07,16.62,94.29,12.32,62.81,23.82,45.68,30.08,35.44,40.42,34,52.93c-1,8.34,1.93,17.37,8.64,26.86,7.58,10.7,19.8,21.66,36.34,32.57a2.32,2.32,0,0,1,.92,2.75,2.26,2.26,0,0,1-3.35,1.06c-17-11.23-29.68-22.6-37.59-33.78-7.38-10.42-10.55-20.51-9.45-30,.86-7.3,4.21-13.92,10-19.68,5.43-5.43,12.76-9.85,21.78-13.15,19.27-7,44.5-8.06,69.24-2.8q6.15,1.32,12.14,3.09a158.61,158.61,0,0,1,43.78,20.65,2.26,2.26,0,0,1,.37,3.45Z"/><path class="cls-2" d="M168,25.47c44.54-18.14,13-46.86,0,0"/><path class="cls-2" d="M161,31.93c-37.43,30.19,1.09,48.61,0,0"/><path class="cls-1" d="M164.07,25.8l2.38-3.18C178,7.14,187.88,4.48,193.25,7.16a7.16,7.16,0,0,1,3.6,8.71c-1.75,6-10.35,12.3-28.83,10.35ZM192.6,14.27a2.62,2.62,0,0,0-1.37-3.07C188.78,10,182,10.92,172.67,22c5.51.2,10.24-.47,13.82-2,3.21-1.34,5.41-3.33,6-5.45C192.55,14.49,192.58,14.38,192.6,14.27Z"/><path class="cls-1" d="M148.1,49.45c1.24-6,4.62-13,9.8-20.17l.21-.25a2.3,2.3,0,0,1,1.24-.67,2.56,2.56,0,0,1,.62,0,2.17,2.17,0,0,1,1.09.42,2.19,2.19,0,0,1,.85,1.21c6.08,20.38,1.93,31.13-3.48,34.14a6.47,6.47,0,0,1-8.23-1.41C147.78,60,147,55.5,148,50.08ZM158.84,36c-8,12.66-7.69,21-5.27,23.75a2,2,0,0,0,2.66.47C159.36,58.43,162.27,50.62,158.84,36Z"/><path class="cls-2" d="M34.3,57.47c44.91,17.2,41.48-25.36,0,0"/><path class="cls-1" d="M55.93,59.82c-5.82,2-13.54,2.53-22.37,1.66l-.32,0a2.25,2.25,0,0,1-1.19-.74,2.45,2.45,0,0,1-.34-.52A2.26,2.26,0,0,1,31.52,59a2.23,2.23,0,0,1,.62-1.34c14.57-15.49,26-17.31,31.27-14.15a6.48,6.48,0,0,1,2.92,7.83c-1.13,3.46-4.61,6.4-9.8,8.26Zm-17.07-2.5c15,.54,22-3.91,23.18-7.37a2,2,0,0,0-.93-2.54C58,45.58,49.82,47,38.86,57.32Z"/><path class="cls-2" d="M29.41,56.57c-48.09-.55-29.22-38.85,0,0"/><path class="cls-1" d="M8.44,50.8c4.69,4,11.65,7.33,20.18,9.78l.32.07a2.27,2.27,0,0,0,1.38-.25,2.54,2.54,0,0,0,.5-.36,2.22,2.22,0,0,0,.6-1,2.2,2.2,0,0,0-.08-1.48C23.51,37.79,13.59,31.91,7.48,32.89a6.46,6.46,0,0,0-5.59,6.2C1.67,42.72,3.82,46.73,8,50.38Zm16.78,4c-14.09-5-19-11.76-18.83-15.4a2,2,0,0,1,1.8-2C11.72,36.78,18.85,41.11,25.22,54.76Z"/><path class="cls-2" d="M81.59,124c10.27,47,44,20.76,0,0"/><path class="cls-1" d="M81.92,120.07,84.65,123c13.28,14,14.21,24.21,10.66,29a7.17,7.17,0,0,1-9.2,2.06c-5.61-2.75-10.35-12.3-5.27-30.17Zm6.5,30.08a2.6,2.6,0,0,0,3.25-.83c1.63-2.2,1.87-9.07-7.5-20.14-1.13,5.4-1.28,10.17-.42,14,.78,3.39,2.36,5.9,4.35,6.87Z"/></g></svg>