<svg xmlns="http://www.w3.org/2000/svg" viewBox="0 0 369.83 169.15"><defs><style>.cls-1{fill:#f33;}.cls-2{fill:#fff;}.cls-3{fill:#2b001e;}</style></defs><g id="Calque_1" data-name="Calque 1"><path class="cls-1" d="M80.09,0h-.28C37.57-.12-4.49,44,.39,131A19.86,19.86,0,0,0,9,146.26c23.2,15.83,46.84,23.29,70.91,22.87,24.07.42,47.72-7,70.91-22.87a19.9,19.9,0,0,0,8.66-15.3C164.39,44,122.33-.12,80.09,0Z"/><path class="cls-2" d="M152.61,144.41a13.88,13.88,0,0,0,5.58-11.54c-3.08-132-92.76-130.37-92.76,7v14.74a14,14,0,0,0,14,14A126.76,126.76,0,0,0,152.61,144.41Z"/><path class="cls-3" d="M154.25,140.08h-.1a4.07,4.07,0,0,1-4-4.16c1.34-55.6-14.72-85-30.2-93.92-7.9-4.56-16.17-4.48-23.92.24-14.32,8.71-28.81,35.61-26.51,85v.19c0,2.28,3.06,4.45,6.3,4.45a7.05,7.05,0,0,0,5.58-2.72c2.08-2.54,3.18-6.71,3.18-12.07a4.07,4.07,0,0,1,8.14,0c0,7.37-1.69,13.16-5,17.23A15.16,15.16,0,0,1,75.85,140c-7.79,0-14.38-5.71-14.44-12.49C59.34,82.6,70.7,48.12,91.82,35.27c10.31-6.27,21.76-6.38,32.24-.33,22.66,13.11,35.47,50.92,34.26,101.16A4.07,4.07,0,0,1,154.25,140.08Z"/><path class="cls-3" d="M88,0h0M80.17,8.14h0m-.22,0h.32c15.56,0,30.76,7,42.81,19.78,20.77,22,30.82,58.51,28.29,102.83a11.19,11.19,0,0,1-4.9,8.64C125.53,153.73,103.79,161,81.85,161h-3.8c-21.94,0-43.68-7.27-64.62-21.6a11.21,11.21,0,0,1-4.9-8.64C6,86.43,16.05,49.91,36.82,27.92c12-12.75,27.25-19.77,42.81-19.77H80M80.08,0h-.45C37.41,0-4.57,44.16.4,131.22a19.41,19.41,0,0,0,8.43,14.9c22.65,15.51,45.73,23,69.22,23l1.9,0,1.9,0c23.49,0,46.57-7.52,69.22-23a19.38,19.38,0,0,0,8.43-14.9c5-87-37-131.22-79.23-131.22h-.19Z"/><path class="cls-3" d="M99.51,89.19l22.41-10a3.22,3.22,0,0,1,3.2,5.56L105.19,99.08a5.73,5.73,0,1,1-6.69-9.31A6.76,6.76,0,0,1,99.51,89.19Z"/><path class="cls-3" d="M54.72,99.08,34.78,84.76A3.22,3.22,0,0,1,38,79.2l22.41,10a5.73,5.73,0,0,1-4.66,10.47A5.53,5.53,0,0,1,54.72,99.08Z"/><ellipse class="cls-1" cx="123.93" cy="120.53" rx="11.81" ry="8.96"/><ellipse class="cls-2" cx="35.97" cy="120.53" rx="11.81" ry="8.96"/><path class="cls-1" d="M290,0h-.28c-42.23-.12-84.3,44-79.42,131a19.86,19.86,0,0,0,8.65,15.3c23.2,15.83,46.84,23.29,70.91,22.87,24.07.42,47.72-7,70.91-22.87a19.9,19.9,0,0,0,8.66-15.3C374.32,44,332.26-.12,290,0Z"/><path class="cls-2" d="M362.54,144.41a13.88,13.88,0,0,0,5.58-11.54c-3.08-132-92.76-130.37-92.76,7v14.74a14,14,0,0,0,14,14A126.76,126.76,0,0,0,362.54,144.41Z"/><path class="cls-3" d="M364.18,140.08h-.09a4.07,4.07,0,0,1-4-4.16c1.34-55.6-14.72-85-30.2-93.92-7.9-4.56-16.17-4.48-23.92.24-14.32,8.71-28.81,35.61-26.51,85v.19c0,2.28,3.06,4.45,6.3,4.45a7.05,7.05,0,0,0,5.58-2.72c2.08-2.54,3.18-6.71,3.18-12.07a4.07,4.07,0,1,1,8.14,0c0,7.37-1.69,13.16-5,17.23a15.16,15.16,0,0,1-11.88,5.7c-7.79,0-14.37-5.71-14.44-12.49-2.07-44.92,9.3-79.4,30.41-92.25,10.31-6.27,21.76-6.38,32.24-.33,22.66,13.11,35.47,50.92,34.26,101.16A4.07,4.07,0,0,1,364.18,140.08Z"/><path class="cls-3" d="M297.89,0h0M290.1,8.14h0m-.22,0h.32c15.56,0,30.76,7,42.81,19.78,20.77,22,30.82,58.51,28.29,102.83a11.19,11.19,0,0,1-4.9,8.64c-20.94,14.33-42.68,21.6-64.62,21.6H288c-21.94,0-43.68-7.27-64.62-21.6a11.21,11.21,0,0,1-4.9-8.64c-2.53-44.33,7.52-80.85,28.3-102.84,12-12.75,27.24-19.77,42.8-19.77h.32M290,0h-.45c-42.22,0-84.2,44.16-79.23,131.22a19.43,19.43,0,0,0,8.43,14.9c22.65,15.51,45.73,23,69.22,23l1.9,0,1.9,0c23.49,0,46.57-7.52,69.22-23a19.38,19.38,0,0,0,8.43-14.9c5-87-37-131.22-79.23-131.22H290Z"/><path class="cls-3" d="M314.53,79.58l21.05,12.63A3.23,3.23,0,0,1,332.86,98l-23.17-8.11a5.73,5.73,0,0,1,3.79-10.82A6.29,6.29,0,0,1,314.53,79.58Z"/><path class="cls-3" d="M270.07,89.91,246.91,98a3.23,3.23,0,0,1-2.73-5.81l21.05-12.62a5.73,5.73,0,1,1,5.9,9.82A6.39,6.39,0,0,1,270.07,89.91Z"/><ellipse class="cls-1" cx="333.86" cy="120.53" rx="11.81" ry="8.96"/><ellipse class="cls-2" cx="245.9" cy="120.53" rx="11.81" ry="8.96"/></g></svg>