<svg xmlns="http://www.w3.org/2000/svg" viewBox="0 0 177.98 239.66"><defs><style>.cls-1{fill:#29293d;}</style></defs><g id="Calque_1" data-name="Calque 1"><path class="cls-1" d="M129.71,92.08a14.78,14.78,0,0,1,2.74.16c.84.12,1.65.28,2.41.46,1.52.34,2.89.73,4.14,1s2.41.61,3.74.91c.34.06.68.16,1,.24l.56.12a5.27,5.27,0,0,0,.57.14c.4.08.81.2,1.24.31a11.25,11.25,0,0,1,1.37.4h0a.28.28,0,0,1,.17.37h0a.09.09,0,0,1,0,.06,6.88,6.88,0,0,1-.91,1.18,8.85,8.85,0,0,1-1.08,1,12.93,12.93,0,0,1-1.23.74,14.33,14.33,0,0,1-1.37.53,9.93,9.93,0,0,1-5.79-.13,12.56,12.56,0,0,1-4.71-2.74,13.69,13.69,0,0,1-1.75-2,10.64,10.64,0,0,1-1.37-2.41.28.28,0,0,1,.15-.36h.11Z"/><path class="cls-1" d="M89,177.39A88.84,88.84,0,0,1,0,90.58V88.69C0,39.79,39.9,0,89,0s89,39.79,89,88.69S138.05,177.39,89,177.39ZM89,9.12C44.93,9.12,9.1,44.82,9.1,88.69v1.68c.91,43,36.74,77.9,79.88,77.9,44,0,79.88-35.7,79.88-79.58S133,9.12,89,9.12Z"/><path class="cls-1" d="M18,109.27l-9-1.28C11.73,88.18,20.16,70.7,33.27,57.46a91.36,91.36,0,0,1,45-24.5,100.25,100.25,0,0,1,53.86,2.74c18.17,6.22,33.11,17.55,43.21,32.76l-7.61,5C150,46.76,114.83,34.05,80.27,41.87,46.15,49.56,22.85,74.79,18,109.27Z"/><polygon class="cls-1" points="131.76 68.19 101.91 34.47 132.69 14.45 137.66 22.09 115.75 36.34 138.59 62.14 131.76 68.19"/><polygon class="cls-1" points="93.72 86.17 60.16 42.45 75.32 3.43 83.82 6.74 70.52 40.97 100.95 80.61 93.72 86.17"/><polygon class="cls-1" points="56.94 107.62 22.65 73.64 24.82 28.88 33.93 29.32 31.95 70.03 63.36 101.14 56.94 107.62"/><path class="cls-1" d="M89,177.39A88.84,88.84,0,0,1,0,90.58l9.1-.29c.32,7.68,3,12.66,8,15.23,6.51,3.28,17.43,2.76,30.73-1.45,12.22-3.89,26.26-10.86,38.53-19.16C112.34,67.39,146.81,54.12,165.34,64,171.1,67,178,73.8,178,88.69,178,137.6,138.05,177.39,89,177.39ZM13.2,113.73A80.39,80.39,0,0,0,89,168.27c44,0,79.88-35.7,79.88-79.58,0-8.43-2.55-13.88-7.8-16.67-6.44-3.42-17.35-3-30.72,1.21C118,77.1,103.89,84.11,91.52,92.47,66,109.75,31.87,123,13.2,113.73Z"/><path class="cls-1" d="M139.71,99.87a44,44,0,0,1-3.16,13.35,49,49,0,0,1-7.14,12,50.49,50.49,0,0,1-10.32,9.64,51.61,51.61,0,0,1-6.08,3.7c-1.06.53-2.13,1.06-3.23,1.51-.55.23-1.09.48-1.65.69l-1.67.63c-.55.22-1.12.38-1.69.56s-1.14.35-1.71.51c-1.16.29-2.28.62-3.47.83l-1.75.34-1.77.25-.89.13-.89.08-1.77.15a51.28,51.28,0,0,1-7.12-.08c-1.18-.08-2.36-.25-3.53-.41-.58-.07-1.16-.2-1.74-.31s-1.16-.22-1.74-.35A46,46,0,0,1,54.6,129.54a2,2,0,0,1,2.46-3.11h0a66.92,66.92,0,0,0,11.24,5A55.84,55.84,0,0,0,80,134a54.2,54.2,0,0,0,11.67,0,49.9,49.9,0,0,0,5.72-1c1-.18,1.88-.46,2.82-.71.45-.13.91-.29,1.36-.46s.92-.29,1.37-.45a52.38,52.38,0,0,0,10.49-5,54.24,54.24,0,0,0,4.79-3.36c.76-.62,1.52-1.22,2.25-1.88.36-.33.74-.64,1.1-1l1.06-1c.36-.33.7-.69,1-1s.69-.7,1-1.07l1-1.12c.34-.36.65-.75,1-1.13l.94-1.17.89-1.2.46-.6.42-.62.84-1.25A67.21,67.21,0,0,0,135.82,99v0a2,2,0,0,1,3.86.92Z"/><path class="cls-1" d="M28.68,210.37q-1.59,3.19-2.86,5.92c-1.1,2.33-2,4.4-2.76,6.2a1.62,1.62,0,0,1-.7.76,1,1,0,0,1-.89,0,1,1,0,0,1-.52-.7,1.52,1.52,0,0,1,.13-1c.74-1.79,1.65-3.85,2.75-6.19q1.28-2.72,2.87-5.93,4.95-9.91,6-12.23a1.58,1.58,0,0,1,.69-.75,1,1,0,0,1,.9,0,.94.94,0,0,1,.52.71,1.57,1.57,0,0,1-.13,1Q33.63,200.5,28.68,210.37Z"/><path class="cls-1" d="M21.86,224.87a2.32,2.32,0,0,1-1-.24A2.45,2.45,0,0,1,19.49,223a3.19,3.19,0,0,1,.23-2c.71-1.71,1.64-3.82,2.75-6.18.84-1.79,1.81-3.8,2.89-6,3.26-6.53,5.29-10.64,6-12.2a3,3,0,0,1,1.37-1.44,2.43,2.43,0,0,1,3.56,1.66,3,3,0,0,1-.23,2c-.74,1.59-2.72,5.6-6,12.27-1.05,2.11-2,4.09-2.85,5.88-1.09,2.32-2,4.39-2.73,6.14a3.15,3.15,0,0,1-1.38,1.51A2.77,2.77,0,0,1,21.86,224.87Zm.51-2.71-1.42.42,1.45-.36A.11.11,0,0,0,22.37,222.16Z"/><path class="cls-1" d="M42.2,208.34c-.63,1.79-1.33,3.74-2.08,5.85q-2.65,7.41-4,11.45l-.25.77a1.57,1.57,0,0,1-.61.86,1,1,0,0,1-.87.12,1,1,0,0,1-.61-.6,1.58,1.58,0,0,1,0-1l.25-.77q1.31-4,4-11.42,2.34-6.48,3.78-11,.3-.9.54-1.71a1.51,1.51,0,0,1,.62-.83.89.89,0,0,1,.84-.17.82.82,0,0,1,.54.5,1.18,1.18,0,0,1,.21.18,1.35,1.35,0,0,1,.29.93q-1.62,23.77.53,26,1.36-1.05,2.58-4.82a57.52,57.52,0,0,0,1.53-6.11q.48-2.38,1.21-6.76c.41-2.39.68-3.86.81-4.39a1.56,1.56,0,0,1,.67-.79,1,1,0,0,1,.76-.08l.11,0a1,1,0,0,1,.54.68,18.28,18.28,0,0,1-.31,3.84,91.12,91.12,0,0,1-2,9.59c-.38,1.53-.77,2.91-1.16,4.13q-1.66,5.16-3.57,6.81a2.2,2.2,0,0,1-2,.72q-2.49-.81-2.65-12Q41.86,214.62,42.2,208.34Z"/><path class="cls-1" d="M45,231.9a2.54,2.54,0,0,1-.86-.14c-2.46-.79-3.56-4.8-3.69-13.4,0-.16,0-.33,0-.51-1.21,3.42-2.15,6.18-2.82,8.25l-.25.77a3.09,3.09,0,0,1-1.19,1.64,2.56,2.56,0,0,1-2.18.31,2.52,2.52,0,0,1-1.54-1.46,3.1,3.1,0,0,1,0-2.08l.25-.78c.87-2.68,2.2-6.54,4-11.45,1.56-4.32,2.83-8,3.78-10.91.19-.59.36-1.15.53-1.69a3,3,0,0,1,1.23-1.65,2.36,2.36,0,0,1,2-.38l.06,0h.07a2.34,2.34,0,0,1,1.26,1l.14.15a2.86,2.86,0,0,1,.68,2c-.9,13.25-.78,19.5-.46,22.43.2-.48.42-1.06.64-1.75a57.59,57.59,0,0,0,1.49-6c.31-1.55.72-3.81,1.2-6.71.42-2.45.69-3.92.84-4.51l.07-.23a3,3,0,0,1,1.35-1.51,2.39,2.39,0,0,1,1.92-.19l.23.08a2.45,2.45,0,0,1,1.4,1.63c.13.43.18,1-.26,4.46a93.14,93.14,0,0,1-2,9.76c-.39,1.56-.79,3-1.2,4.23-1.2,3.74-2.51,6.18-4,7.48A4,4,0,0,1,45,231.9Z"/><path class="cls-1" d="M65.93,210.61a2.83,2.83,0,0,0-2.41,1.45,2.91,2.91,0,0,0-.31.93,4.08,4.08,0,0,0,.3,2.11,9.24,9.24,0,0,0,3,3.7A11.45,11.45,0,0,1,71,226.13a8.84,8.84,0,0,1,0,2.47,8,8,0,0,1-1.71,3.78A6.24,6.24,0,0,1,64.07,235a6.11,6.11,0,0,1-.86-.06,7.57,7.57,0,0,1-4.94-3.59,1.75,1.75,0,0,1-.13-1,1.69,1.69,0,0,1,.49-.91.85.85,0,0,1,.78-.27h.07a.91.91,0,0,1,.67.55,5.18,5.18,0,0,0,3.47,2.44,3.86,3.86,0,0,0,.49.06,4.29,4.29,0,0,0,3.59-1.54,4.6,4.6,0,0,0,1.1-2.31,5.53,5.53,0,0,0,0-1.81,8.85,8.85,0,0,0-3.53-5.24,11.23,11.23,0,0,1-3.88-5.43,7,7,0,0,1-.28-3.2,5.85,5.85,0,0,1,.57-1.76A5.17,5.17,0,0,1,65.24,208,7.07,7.07,0,0,1,68,208a11.36,11.36,0,0,1,3.33,1.14,1.08,1.08,0,0,1,.52.76,1.64,1.64,0,0,1,0,.7,1.82,1.82,0,0,1-.11.38,1.36,1.36,0,0,1-.64.73.9.9,0,0,1-.84,0,9.47,9.47,0,0,0-2.84-1A5.78,5.78,0,0,0,65.93,210.61Z"/><path class="cls-1" d="M64.25,236.45a1.62,1.62,0,0,1-.22,0,7.65,7.65,0,0,1-1.05-.08A9,9,0,0,1,57,232.14l-.13-.23a3.17,3.17,0,0,1-.24-1.88,3.24,3.24,0,0,1,1-1.78,2.43,2.43,0,0,1,3.83.62,3.66,3.66,0,0,0,2.41,1.73l.38.05a2.8,2.8,0,0,0,2.35-1.05,3,3,0,0,0,.74-1.55,3.64,3.64,0,0,0,0-1.31,7.54,7.54,0,0,0-3-4.34,12.66,12.66,0,0,1-4.38-6.16,8.52,8.52,0,0,1-.32-3.87,7.55,7.55,0,0,1,.71-2.2,6.62,6.62,0,0,1,4.57-3.6,8.8,8.8,0,0,1,3.32-.09A13.15,13.15,0,0,1,72,207.76a2.6,2.6,0,0,1,1.29,1.74,3,3,0,0,1,.07,1.3,3.46,3.46,0,0,1-.19.68A3,3,0,0,1,71.8,213a2.43,2.43,0,0,1-2.22,0,8.19,8.19,0,0,0-2.4-.87,4,4,0,0,0-1.08,0h0c-.82.08-1.08.38-1.23.66a1.46,1.46,0,0,0-.16.47,2.62,2.62,0,0,0,.21,1.33,7.94,7.94,0,0,0,2.53,3.07c3,2.43,4.66,5.22,5.06,8.3a10.37,10.37,0,0,1,0,2.9,9.44,9.44,0,0,1-2,4.49A7.74,7.74,0,0,1,64.25,236.45Zm-4.57-6Z"/><path class="cls-1" d="M82.6,223.47c-.16,2.38-.3,4.57-.39,6.57-.12,2.57-.19,4.83-.19,6.78a1.62,1.62,0,0,1-.36,1,1,1,0,0,1-1.56-.07,1.66,1.66,0,0,1-.27-1c0-1.94.07-4.19.19-6.77.09-2,.23-4.19.39-6.58q.81-11.06.93-13.61a1.54,1.54,0,0,1,.36-.95.93.93,0,0,1,1.56.07,1.56,1.56,0,0,1,.27,1Q83.41,212.47,82.6,223.47Z"/><path class="cls-1" d="M80.9,239.66h-.12a2.44,2.44,0,0,1-1.89-1,3.19,3.19,0,0,1-.56-2c0-1.88.07-4.18.19-6.77.09-2,.22-4.15.4-6.62.54-7.45.84-11.89.92-13.57a3,3,0,0,1,.72-1.86,2.53,2.53,0,0,1,2-.9A2.43,2.43,0,0,1,84.49,208a3.1,3.1,0,0,1,.54,1.91c-.09,1.74-.39,6.2-.93,13.65-.17,2.35-.3,4.55-.39,6.53-.12,2.55-.19,4.81-.19,6.71a3.18,3.18,0,0,1-.7,1.92A2.54,2.54,0,0,1,80.9,239.66Zm.36-2.88-1.16.94,1.21-.89Z"/><path class="cls-1" d="M92.58,211.14a1.3,1.3,0,0,1-.43-.44A1.88,1.88,0,0,1,92,210c0-.12,0-.24,0-.35a1.26,1.26,0,0,1,.43-.88,1,1,0,0,1,.56-.27,1,1,0,0,1,.24,0c.8,0,2.55,0,5.23-.07q3.21-.06,5.19,0a1,1,0,0,1,.8.42,1.59,1.59,0,0,1,.32.88v.1a1.42,1.42,0,0,1-.31,1,1,1,0,0,1-.69.4h-.06c-1.31,0-3.1,0-5.4,0l-3.55,0c0,.7-.07,1.67-.09,2.92-.09,2.54-.15,4.82-.16,6.82l.26,0,7.8-.19a1,1,0,0,1,.82.36,1.6,1.6,0,0,1,.38,1,1.46,1.46,0,0,1-.25,1,1,1,0,0,1-.76.48l-7.8.14a.81.81,0,0,1-.44-.09c0,2.14.07,4,.17,5.45.19,2.71.51,4.3,1,4.77a2.82,2.82,0,0,0,2.28.63,11.14,11.14,0,0,0,2.67-.59,23.53,23.53,0,0,0,2.7-1l1.73-.75h0a1,1,0,0,1,.33-.09,1,1,0,0,1,.51.12,1.39,1.39,0,0,1,.57.79,1.56,1.56,0,0,1,.08.42,1.51,1.51,0,0,1-.09.66,1.17,1.17,0,0,1-.59.74q-5.55,2.16-6,2.24a9,9,0,0,1-1.68.27,4.51,4.51,0,0,1-4.33-1.85q-1-1.45-1.34-6.45c-.12-1.67-.17-3.65-.17-5.92q0-3.1.15-7.68C92.51,213.45,92.56,212,92.58,211.14Z"/><path class="cls-1" d="M107.85,232.54a3.1,3.1,0,0,1,0,2,2.65,2.65,0,0,1-1.33,1.59l-.14.06a63,63,0,0,1-6.27,2.32,11.49,11.49,0,0,1-1.85.29l-.59,0a5.84,5.84,0,0,1-5.07-2.52c-.85-1.22-1.36-3.5-1.61-7.2-.11-1.69-.17-3.72-.17-6,0-2.07,0-4.67.15-7.72q.09-2.27.12-3.57a2.23,2.23,0,0,1-.2-.3,3.31,3.31,0,0,1-.4-1.37,3.74,3.74,0,0,1,0-.58,2.7,2.7,0,0,1,1-1.91,2.29,2.29,0,0,1,1.39-.6,2.53,2.53,0,0,1,.48,0c.87,0,2.55,0,5.07-.07,2.14,0,3.91,0,5.26,0a2.55,2.55,0,0,1,1.9.94,3,3,0,0,1,.67,1.75v.12a2.86,2.86,0,0,1-.65,2,2.42,2.42,0,0,1-1.73.93h-.2c-1.26,0-3.06,0-5.35,0l-2.13,0c0,.44,0,.92,0,1.46-.07,1.89-.12,3.64-.14,5.23l6.5-.16a2.46,2.46,0,0,1,2,.86,3.22,3.22,0,0,1,.26,3.82,2.51,2.51,0,0,1-1.91,1.14l-6.82.12c0,1.43.08,2.7.15,3.78a12.7,12.7,0,0,0,.59,3.85,1.77,1.77,0,0,0,1.07.15,9.61,9.61,0,0,0,2.3-.51,25.91,25.91,0,0,0,2.57-1l1.66-.73a2.36,2.36,0,0,1,.88-.24,2.54,2.54,0,0,1,.55,0A2.74,2.74,0,0,1,107.85,232.54Zm-2.53,1h.07l.2,0,0,0,0-.06-.32,0Zm.51-.11-.19.08.85-.13Zm-.71.06h0v0h0Zm-8.35-.58Zm5.83-10.63h0Zm1-12.33h0Z"/><path class="cls-1" d="M114.38,212.59q3.48,15.18,4.62,22a1.06,1.06,0,0,1-.43.85.81.81,0,0,1-.36.2.82.82,0,0,1-.44,0,1.74,1.74,0,0,1-.94-1.11,1.9,1.9,0,0,1,0-.59q-1.93-9.79-5.62-25.56a1.51,1.51,0,0,1,.06-1,1,1,0,0,1,.65-.58l.19,0,.14-.17a.9.9,0,0,1,.39-.24.86.86,0,0,1,.39,0,1.2,1.2,0,0,1,.77.57q6.89,11.52,11.28,19.61-2.13-21.84.79-22.57c.7-.18,1.65.6,2.82,2.34q2,2.93,7.84,23.84a1.68,1.68,0,0,1-.06,1.05,1,1,0,0,1-.64.61,1,1,0,0,1-.84-.17,1.75,1.75,0,0,1-.57-.87q-6.09-21.87-7.91-23.55-.75,1.71.59,14.2.62,5.61.66,8c0,2.3-.2,3.52-.76,3.66h-.06q-1,.15-7.19-10.85c-1.13-2-2.67-4.75-4.63-8.34C114.84,213.46,114.6,213,114.38,212.59Z"/><path class="cls-1" d="M118,237.2a2.37,2.37,0,0,1-.69-.11,3.09,3.09,0,0,1-2-2.17,3.11,3.11,0,0,1-.09-.86c-1.28-6.46-3.16-15-5.58-25.31a3.15,3.15,0,0,1,.16-2,2.53,2.53,0,0,1,1.33-1.31l.41-.2.52-.31.12,0a2.28,2.28,0,0,1,1.13,0,2.69,2.69,0,0,1,1.67,1.23c3,5,5.63,9.54,7.92,13.57-1-14.9.65-16.73,2.5-17.19s3.34,1.33,4.43,2.95c.92,1.33,2.75,5.31,8,24.28a3.09,3.09,0,0,1-.13,2.05,2.42,2.42,0,0,1-1.6,1.45,2.53,2.53,0,0,1-2.09-.37l-.1-.08a3.15,3.15,0,0,1-1.06-1.6c-2.28-8.17-3.9-13.44-5-16.85.13,1.79.34,4,.65,6.91.41,3.81.63,6.48.66,8.13.05,2.41-.14,4.7-1.9,5.14l-.18,0c-1.22.2-2,.32-8.74-11.59l-.28-.49c1.09,5,1.87,9,2.35,11.88l0,.17v.18a2.55,2.55,0,0,1-1,1.91,2.32,2.32,0,0,1-.93.49A2.59,2.59,0,0,1,118,237.2Z"/><path class="cls-1" d="M137.77,201.82a1.27,1.27,0,0,1-.56-.27,1.7,1.7,0,0,1-.43-.59,2.19,2.19,0,0,1-.12-.33,1.23,1.23,0,0,1,.1-1,.94.94,0,0,1,.43-.45,1,1,0,0,1,.23-.06q1.13-.42,4.88-1.9,3-1.17,4.87-1.8a1,1,0,0,1,.89.12,1.54,1.54,0,0,1,.61.71l0,.09a1.35,1.35,0,0,1,0,1,.9.9,0,0,1-.5.61l-.07,0q-1.83.66-5.05,1.89l-3.32,1.27q.31,1,.93,2.76c.8,2.42,1.54,4.57,2.24,6.45l.22-.12,7.25-2.89a1,1,0,0,1,.89.05,1.61,1.61,0,0,1,.7.79,1.53,1.53,0,0,1,.12,1,1,1,0,0,1-.55.72l-7.26,2.84a.81.81,0,0,1-.46.07q1.15,3,2.07,5.05,1.68,3.72,2.58,4.14a2.86,2.86,0,0,0,2.36-.22,11.18,11.18,0,0,0,2.29-1.47,23.75,23.75,0,0,0,2.17-1.91l1.37-1.31,0,0A.93.93,0,0,1,157,217a.86.86,0,0,1,.51-.06,1.28,1.28,0,0,1,.81.54,1.81,1.81,0,0,1,.23.36,1.62,1.62,0,0,1,.14.65,1.19,1.19,0,0,1-.3.91q-4.45,3.94-4.84,4.19a10.78,10.78,0,0,1-1.48.84,4.52,4.52,0,0,1-4.7-.24c-1-.67-2.13-2.53-3.51-5.57q-1-2.29-2.22-5.5c-.72-1.94-1.56-4.35-2.53-7.25C138.51,204,138.06,202.67,137.77,201.82Z"/><path class="cls-1" d="M159.53,216.56a3.3,3.3,0,0,1,.39.64,3.21,3.21,0,0,1,.27,1.24,2.58,2.58,0,0,1-.69,1.94l-.11.11c-4.56,4-4.87,4.23-5.07,4.35a10.13,10.13,0,0,1-1.64.92,6.93,6.93,0,0,1-2.9.68,5.63,5.63,0,0,1-3.27-1.05c-1.22-.85-2.49-2.81-4-6.19-.7-1.55-1.46-3.43-2.26-5.59-.73-1.94-1.59-4.39-2.55-7.29-.47-1.43-.85-2.56-1.13-3.39l-.3-.21a3.34,3.34,0,0,1-.85-1.15,3.27,3.27,0,0,1-.2-.55,2.71,2.71,0,0,1,.26-2.12,2.33,2.33,0,0,1,1.1-1.06,4,4,0,0,1,.45-.15c.8-.29,2.37-.9,4.73-1.83,2-.78,3.65-1.4,4.94-1.83a2.49,2.49,0,0,1,2.1.23,3,3,0,0,1,1.24,1.4l.05.1a2.85,2.85,0,0,1,.09,2.14,2.34,2.34,0,0,1-1.3,1.47l-.17.08q-1.83.65-5,1.87l-2,.76c.13.41.29.87.47,1.38.59,1.8,1.16,3.45,1.69,4.95l6-2.42a2.47,2.47,0,0,1,2.16.13,3.22,3.22,0,0,1,1.57,3.49,2.48,2.48,0,0,1-1.4,1.72l-6.35,2.5c.52,1.33,1,2.5,1.46,3.48a12.7,12.7,0,0,0,1.89,3.41,1.77,1.77,0,0,0,1.06-.23,10.22,10.22,0,0,0,2-1.28,23.41,23.41,0,0,0,2.07-1.81l1.31-1.27a2.28,2.28,0,0,1,.75-.53,3,3,0,0,1,.45-.15A3,3,0,0,1,159.53,216.56Zm-10.26,4.2Zm1.8-12,0,0Zm-3.41-11.89h0Z"/></g></svg>