<svg xmlns="http://www.w3.org/2000/svg" viewBox="0 0 394.79 139.11"><defs><style>.cls-1{fill:#29293d;}</style></defs><g id="Calque_1" data-name="Calque 1"><path class="cls-1" d="M334.66,25.39a49.21,49.21,0,0,0-10.31-7.6,43.66,43.66,0,0,0-24.67-6,29.56,29.56,0,0,0-9.38,2,14.87,14.87,0,0,0-8.44,8.5,21.63,21.63,0,0,0-1.25,6.41c-.25,2.94-.41,5.87-.59,8.81-.42,7.45-.85,14.89-1.23,22.34-.37,7.8-.73,15.59-1,23.41Q277.3,96,277,108.7c-.18,7-.29,13.9-.43,20.83a9.3,9.3,0,0,0,6.73,9.15l1.24.43h2.05c.45-.13.9-.29,1.37-.4a8.47,8.47,0,0,0,5.17-3.43,9.86,9.86,0,0,0,1.8-5.77c0-3.49.11-7,.18-10.48l.7-26.55a6.88,6.88,0,0,1,.11-.81,10.08,10.08,0,0,0,1.8-.2c1.69-.22,3.42-.36,5.08-.74a45.21,45.21,0,0,0,15.9-6.93A67.13,67.13,0,0,0,338.77,62a34.68,34.68,0,0,0,4.9-13.18,23.89,23.89,0,0,0-1.24-11.7A31.81,31.81,0,0,0,334.66,25.39Zm-9.12,21.3a20.2,20.2,0,0,1-1.37,3.94A48.22,48.22,0,0,1,310.81,67a28.61,28.61,0,0,1-13,6.08c-.36,0-.73.11-1.26.16.56-14.4,1.44-28.57,2.22-42.87.66-.11,1.2-.21,1.8-.27A23.19,23.19,0,0,1,312,32.11a31.83,31.83,0,0,1,10.8,7.2,11.27,11.27,0,0,1,2.79,4.48A5.2,5.2,0,0,1,325.54,46.69Z"/><path class="cls-1" d="M66.69,70.87c-2-.13-4-.49-6-.67a69.07,69.07,0,0,0-10.57,0A135.76,135.76,0,0,0,36.05,72l-3.17.47,1.2-1.28L68,36.55a10.09,10.09,0,0,0,.72-.74,9.19,9.19,0,1,0-13.38-12.6C50.65,28,45.88,32.7,41.14,37.47Q22.83,56,5,74.94L2.56,77.59a7.92,7.92,0,0,0-2.2,4.64,4,4,0,0,1-.36.94v2a7.43,7.43,0,0,1,.43.9,9.61,9.61,0,0,0,3.46,4.95A10.61,10.61,0,0,0,10.05,93,88.87,88.87,0,0,0,24,92.12c5.87-.81,11.71-1.8,17.56-2.67a87.93,87.93,0,0,1,17-1.11,47.71,47.71,0,0,1,4.87.54,9.48,9.48,0,0,0,6.34-1.14,9.14,9.14,0,0,0-3.06-16.92Z"/><path class="cls-1" d="M256.65,0a9.6,9.6,0,0,0-6.57,2.94L217.67,36.82c-.53.54-1.08,1-1.68,1.64-1.17-1.06-2.38-2.12-3.6-3.22L178.27,3.6A13.61,13.61,0,0,0,176,1.8a9.16,9.16,0,0,0-10.8,14.64l4.45,4.12,33,30.77c.16.15.31.31.45.47-.3.35-.57.65-.86.94L177,79.14c-.61.63-1.26,1.26-1.8,1.94A9.18,9.18,0,1,0,188.8,93.43L216.73,64.3c.23-.25.49-.47.76-.74l1,.79a240.64,240.64,0,0,0,20.24,13.88,9.6,9.6,0,0,0,5.76,1.5,9.18,9.18,0,0,0,3.78-17.21q-8.82-5.4-17.14-11.53l-.93-.72c.27-.29.48-.56.72-.79q11.73-12.28,23.53-24.54c3-3.1,5.94-6.16,8.88-9.27a9.15,9.15,0,0,0,2.3-9.2A9.25,9.25,0,0,0,256.65,0Z"/><path class="cls-1" d="M161.85,25.93a9,9,0,0,0-8.73-2.88,9.23,9.23,0,0,0-7.35,9.22c.16,2.7.27,5.4.22,8.1a71.08,71.08,0,0,1-4.16,23.41,38.82,38.82,0,0,1-4.5,9.74A15.36,15.36,0,0,1,135.17,76a3.43,3.43,0,0,1-3.61.83,10.08,10.08,0,0,1-1.22-.54,15.85,15.85,0,0,1-5.4-4.93,40.14,40.14,0,0,1-5-9.29,82.48,82.48,0,0,1-4.12-15.43c-1.21-6.68-1.7-13.43-2.24-20.19a8.53,8.53,0,0,0-2.3-5.4,9.2,9.2,0,0,0-16,6.57c0,.54.11,1.08.16,1.62.49,6.32,1.1,12.61,2.06,18.87a93.81,93.81,0,0,0,6.19,22.49,54.67,54.67,0,0,0,8.48,14.1,31.38,31.38,0,0,0,13.45,9.45,20.64,20.64,0,0,0,7.67,1.19,22.46,22.46,0,0,0,16.21-7.65,35.66,35.66,0,0,0,6-8.82,96.11,96.11,0,0,0,9-41.09c0-1.93-.13-4.23-.31-6.5A8.58,8.58,0,0,0,161.85,25.93Z"/><path class="cls-1" d="M394.57,55.1a17.67,17.67,0,0,0-3.35-7.51,22.64,22.64,0,0,0-12.78-8.23,9.38,9.38,0,0,0-10.57,5.15,4.35,4.35,0,0,1-.8,1.06A14.4,14.4,0,0,0,362.81,60a19.34,19.34,0,0,0,4,7.9,18.23,18.23,0,0,0,7.76,5.69,12,12,0,0,0,4.3.88,15.07,15.07,0,0,0,11.88-5.51,15.56,15.56,0,0,0,4.07-11A22.47,22.47,0,0,0,394.57,55.1Z"/></g></svg>