<svg xmlns="http://www.w3.org/2000/svg" viewBox="0 0 223.65 223.65"><defs><style>.cls-1{fill:#ec66ff;}.cls-2{fill:#fff;}</style></defs><g id="Calque_1" data-name="Calque 1"><rect class="cls-1" width="223.65" height="223.65" rx="54.88"/><path class="cls-2" d="M120.48,60.89a22.53,22.53,0,1,0-42.71,10,31.79,31.79,0,0,0-5,6.64c-4.57,8.28-15.22,29.54-15.43,47.94a11,11,0,0,0,11,11.15h33.46l.13-6.44H68.41a4.58,4.58,0,0,1-4.59-4.64c.19-16.93,10.29-37,14.63-44.9a17,17,0,0,1,3-4.08h0l.09-.08.09-.08h0c2.77-2.37,4.26-3.49,2.59-7.13A16.09,16.09,0,1,1,98,77l-3.1,6.21a22.49,22.49,0,0,0,25.63-22.3Z"/><path class="cls-2" d="M149.75,76.89a24.65,24.65,0,0,0-2.92-4.34,22.53,22.53,0,1,0-38.11.69L97,74.33a8.6,8.6,0,0,0-8.23,8.58v2.22a8.58,8.58,0,0,0,8.58,8.58h21.45a8.58,8.58,0,0,1,8.58,8.58h0a8.58,8.58,0,0,1-8.58,8.58H97.31a8.58,8.58,0,0,0-8.58,8.58V128a8.58,8.58,0,0,0,8.58,8.58h60.38a8.59,8.59,0,0,0,8.58-8.68C166.05,108.68,155,86.36,149.75,76.89Z"/><path class="cls-2" d="M65.83,151.1a14.24,14.24,0,0,1,14.23,14.23v14.89a5,5,0,0,1-9.94,0V165.33a4.36,4.36,0,1,0-8.72,0v14.89a5,5,0,1,1-9.93,0V165.33a4.36,4.36,0,1,0-8.72,0v14.89a5,5,0,1,1-9.93,0V165.33A14.23,14.23,0,0,1,47,151.1a14.08,14.08,0,0,1,9.26,3.42,14.1,14.1,0,0,1,9.26-3.42Z"/><path class="cls-2" d="M185.87,175.26a5,5,0,1,1,0,9.93,17.07,17.07,0,0,1-17-17.05v-7h-5a5,5,0,0,1,0-9.93h5v-9.6a5,5,0,0,1,9.93,0v9.6h5.63a5,5,0,1,1,0,9.93h-5.63v7a7,7,0,0,0,7,7.05Z"/><path class="cls-2" d="M117.59,167.56h0a17.08,17.08,0,0,0-1.76-7h0a17.57,17.57,0,0,0-1.55-2.54,1,1,0,0,1-.08-.11l-.29-.37a3.76,3.76,0,0,0-.25-.31l-.11-.13a17,17,0,0,0-10.14-5.84h0l-.36-.07-.24,0-.15,0-.54-.06-.2,0-.51,0c-.23,0-.46,0-.69,0h-.93l-.6,0H99l-.64.06-.08,0-.37,0-.31.06h-.07a17,17,0,0,0-9.71,5.32l-.09.09-.31.36c-.09.11-.19.22-.27.33l-.1.12a16.69,16.69,0,0,0-3,5.82c-.05.16-.09.32-.13.48a1.21,1.21,0,0,1,0,.18l-.12.52c0,.11,0,.22-.07.34s-.06.29-.08.44,0,.29-.07.43,0,.26,0,.38-.06.51-.08.77,0,.28,0,.42,0,.2,0,.31h0a17.12,17.12,0,0,0,27.82,14,4.08,4.08,0,0,0-1.7-7.16,4.57,4.57,0,0,0-3.69.77,8.75,8.75,0,0,1-13.05-2.86h20.71a4.18,4.18,0,0,0,4.18-4.18A4.55,4.55,0,0,0,117.59,167.56ZM94,162.28l.16-.18.21-.2.24-.24.14-.12c.11-.1.22-.2.34-.29l.07-.05.42-.31h0a9.48,9.48,0,0,1,1.5-.82l0,0,.48-.18.12,0,.42-.13.24-.06.32-.08.31-.05.28-.05.33,0,.26,0,.32,0h.58l.29,0,.3,0,.29,0,.32.06.25,0,.38.09.17,0,.47.14.05,0a8.82,8.82,0,0,1,3.35,2.07h0l.36.38a9.1,9.1,0,0,1,1.14,1.62H92.8A8.6,8.6,0,0,1,94,162.28Z"/><path class="cls-2" d="M155.07,167.56h0a17.25,17.25,0,0,0-1.77-7h0a16,16,0,0,0-1.55-2.54l-.08-.11-.28-.37-.25-.31-.11-.13a17,17,0,0,0-10.15-5.84h0l-.36-.07-.23,0-.16,0-.54-.06-.2,0-.5,0c-.23,0-.47,0-.7,0h-.93l-.6,0h-.13l-.64.06-.09,0-.37,0-.3.06H135a17,17,0,0,0-9.71,5.32l-.08.09-.32.36-.27.33-.1.12a17,17,0,0,0-3,5.82l-.12.48a1.21,1.21,0,0,0,0,.18l-.12.52a3.4,3.4,0,0,0-.07.34l-.09.44-.06.43-.06.38c0,.26,0,.51-.07.77l0,.42c0,.1,0,.2,0,.31h0a17.13,17.13,0,0,0,27.83,14,4.08,4.08,0,0,0-1.7-7.16,4.55,4.55,0,0,0-3.69.77,8.76,8.76,0,0,1-13.06-2.86h20.71a4.18,4.18,0,0,0,4.18-4.18A4.58,4.58,0,0,0,155.07,167.56Zm-23.63-5.28.16-.18a1.89,1.89,0,0,1,.2-.2l.25-.24.14-.12.33-.29.08-.05a4.56,4.56,0,0,1,.42-.31h0a9.06,9.06,0,0,1,1.5-.82l0,0,.48-.18.13,0,.41-.13.24-.06.33-.08.31-.05.27-.05.33,0,.26,0,.33,0h.57l.29,0,.3,0,.29,0,.32.06.26,0,.38.09.17,0,.46.14.06,0a8.9,8.9,0,0,1,3.35,2.07h0l.36.38a9.15,9.15,0,0,1,1.15,1.62H130.28A8.17,8.17,0,0,1,131.44,162.28Z"/></g></svg>