<svg xmlns="http://www.w3.org/2000/svg" viewBox="0 0 206.36 189.79"><defs><style>.cls-1{fill:#29293d;}</style></defs><g id="Calque_1" data-name="Calque 1"><circle class="cls-1" cx="54.6" cy="33.51" r="21.46"/><path class="cls-1" d="M103.18,119.37a6.38,6.38,0,0,0,6.4,6.4h89.08a103.21,103.21,0,0,1-14,24.1H109.58a6.41,6.41,0,0,0,0,12.81h63.3A103.17,103.17,0,0,1,0,86.61H206.36A103.18,103.18,0,0,1,203,113H109.58A6.41,6.41,0,0,0,103.18,119.37Z"/><path class="cls-1" d="M173.22,70h-70V0A70,70,0,0,1,173.22,70Z"/></g></svg>