<svg xmlns="http://www.w3.org/2000/svg" xmlns:xlink="http://www.w3.org/1999/xlink" viewBox="0 0 364.26 461.46"><defs><style>.cls-1{fill:#fff;}.cls-2{fill:url(#Dégradé_sans_nom_24);}.cls-3{fill:url(#Dégradé_sans_nom_25);}.cls-4{fill:url(#Dégradé_sans_nom_24-2);}.cls-5{fill:url(#Dégradé_sans_nom_22);}.cls-6{fill:#1e1e1e;}.cls-7{fill:url(#Dégradé_sans_nom_97);}.cls-8{fill:url(#Dégradé_sans_nom_36);}.cls-9{fill:url(#Dégradé_sans_nom_35);}.cls-10{fill:url(#Dégradé_sans_nom_33);}.cls-11{fill:#ce3a3a;}.cls-12{fill:url(#Dégradé_sans_nom_17);}.cls-13{fill:url(#Dégradé_sans_nom_20);}.cls-14{fill:url(#Dégradé_sans_nom_31);}.cls-15{fill:url(#Dégradé_sans_nom_32);}.cls-16{fill:url(#Dégradé_sans_nom_19);}.cls-17{fill:url(#Dégradé_sans_nom_24-3);}.cls-18{fill:url(#Dégradé_sans_nom_24-4);}.cls-19{fill:url(#Dégradé_sans_nom_75);}.cls-20{fill:url(#Dégradé_sans_nom_39);}.cls-21{fill:url(#Dégradé_sans_nom_23);}.cls-22{opacity:0.2;fill:url(#Dégradé_sans_nom_47);}.cls-23{fill:url(#Dégradé_sans_nom_38);}.cls-24{fill:url(#Dégradé_sans_nom_24-5);}.cls-25{fill:url(#Dégradé_sans_nom_97-2);}.cls-26{fill:url(#Dégradé_sans_nom_29);}.cls-27{fill:url(#Dégradé_sans_nom_30);}.cls-28{fill:#68567c;}.cls-29{fill:#b1a3c1;}.cls-30{fill:url(#Dégradé_sans_nom_45);}.cls-31{fill:#352d8e;}.cls-32{fill:#fcf;opacity:0.57;}.cls-33{fill:#afafe2;}.cls-34{fill:#8b7d9e;}.cls-35{fill:url(#Dégradé_sans_nom_60);}.cls-36{fill:url(#Dégradé_sans_nom_65);}.cls-37{fill:url(#Dégradé_sans_nom_94);}.cls-38{fill:#f2e9ff;}.cls-39{fill:url(#Dégradé_sans_nom_79);}.cls-40{fill:url(#Dégradé_sans_nom_95);}</style><linearGradient id="Dégradé_sans_nom_24" x1="215.18" y1="87.32" x2="242.46" y2="126.77" gradientTransform="translate(83.11 -102.64) rotate(32.49)" gradientUnits="userSpaceOnUse"><stop offset="0" stop-color="#fff" stop-opacity="0"/><stop offset="0.17" stop-color="#ccc7d4" stop-opacity="0.24"/><stop offset="0.51" stop-color="#726589" stop-opacity="0.65"/><stop offset="0.8" stop-color="#3c295b" stop-opacity="0.91"/><stop offset="1" stop-color="#28144a"/></linearGradient><linearGradient id="Dégradé_sans_nom_25" x1="258.81" y1="37.09" x2="164.21" y2="90.51" gradientTransform="translate(181 285.26) rotate(-93.05)" gradientUnits="userSpaceOnUse"><stop offset="0" stop-color="#fff" stop-opacity="0"/><stop offset="0.75" stop-color="#28144a"/></linearGradient><linearGradient id="Dégradé_sans_nom_24-2" x1="108.17" y1="144.9" x2="-23.85" y2="210.5" gradientTransform="translate(58.76 -15.79) rotate(19.7)" xlink:href="#Dégradé_sans_nom_24"/><linearGradient id="Dégradé_sans_nom_22" x1="188.82" y1="185.8" x2="121.33" y2="308.35" gradientUnits="userSpaceOnUse"><stop offset="0.16" stop-color="#fff" stop-opacity="0"/><stop offset="1" stop-color="#28144a"/></linearGradient><linearGradient id="Dégradé_sans_nom_97" x1="232.77" y1="3.31" x2="224.98" y2="37.67" gradientTransform="translate(17.93 105.73) rotate(-26.9)" gradientUnits="userSpaceOnUse"><stop offset="0" stop-color="#1e1e1e"/><stop offset="0.28" stop-color="#1f1d24"/><stop offset="0.67" stop-color="#231935"/><stop offset="1" stop-color="#28144a"/></linearGradient><linearGradient id="Dégradé_sans_nom_36" x1="356.64" y1="362.38" x2="294.38" y2="413.9" gradientUnits="userSpaceOnUse"><stop offset="0.29" stop-color="#fff" stop-opacity="0"/><stop offset="0.37" stop-color="#dcd8e1" stop-opacity="0.16"/><stop offset="0.64" stop-color="#7a6d8f" stop-opacity="0.62"/><stop offset="0.85" stop-color="#3e2c5c" stop-opacity="0.9"/><stop offset="1" stop-color="#28144a"/></linearGradient><linearGradient id="Dégradé_sans_nom_35" x1="213.24" y1="253.51" x2="147.38" y2="324.26" gradientUnits="userSpaceOnUse"><stop offset="0" stop-color="#fff" stop-opacity="0"/><stop offset="0.13" stop-color="#c0baca" stop-opacity="0.3"/><stop offset="0.31" stop-color="#7d7191" stop-opacity="0.61"/><stop offset="0.5" stop-color="#4d3d69" stop-opacity="0.83"/><stop offset="0.72" stop-color="#311e52" stop-opacity="0.96"/><stop offset="1" stop-color="#28144a"/></linearGradient><linearGradient id="Dégradé_sans_nom_33" x1="313.21" y1="275.18" x2="223.99" y2="350.21" gradientUnits="userSpaceOnUse"><stop offset="0.29" stop-color="#fff" stop-opacity="0"/><stop offset="0.34" stop-color="#ebeaef" stop-opacity="0.09"/><stop offset="0.62" stop-color="#817695" stop-opacity="0.58"/><stop offset="0.85" stop-color="#402e5e" stop-opacity="0.89"/><stop offset="1" stop-color="#28144a"/></linearGradient><linearGradient id="Dégradé_sans_nom_17" x1="234.31" y1="252.08" x2="215.31" y2="300.81" gradientUnits="userSpaceOnUse"><stop offset="0.09" stop-color="#ce3a3a" stop-opacity="0"/><stop offset="1" stop-color="#28144a"/></linearGradient><linearGradient id="Dégradé_sans_nom_20" x1="262.82" y1="412.53" x2="212.56" y2="459.27" gradientUnits="userSpaceOnUse"><stop offset="0" stop-color="#fff" stop-opacity="0"/><stop offset="0.39" stop-color="#9a91aa" stop-opacity="0.47"/><stop offset="0.78" stop-color="#473664" stop-opacity="0.85"/><stop offset="1" stop-color="#28144a"/></linearGradient><linearGradient id="Dégradé_sans_nom_31" x1="172.11" y1="258.49" x2="97.56" y2="313.3" gradientUnits="userSpaceOnUse"><stop offset="0.29" stop-color="#fff" stop-opacity="0"/><stop offset="0.41" stop-color="#cac5d3" stop-opacity="0.24"/><stop offset="0.65" stop-color="#726588" stop-opacity="0.66"/><stop offset="0.86" stop-color="#3b295a" stop-opacity="0.91"/><stop offset="1" stop-color="#28144a"/></linearGradient><linearGradient id="Dégradé_sans_nom_32" x1="242.37" y1="321.42" x2="153.09" y2="374.59" gradientTransform="translate(-206.94 342.68) rotate(-60)" gradientUnits="userSpaceOnUse"><stop offset="0.29" stop-color="#fff" stop-opacity="0"/><stop offset="0.55" stop-color="#a199b0" stop-opacity="0.44"/><stop offset="0.84" stop-color="#493866" stop-opacity="0.85"/><stop offset="1" stop-color="#28144a"/></linearGradient><linearGradient id="Dégradé_sans_nom_19" x1="177.92" y1="280.61" x2="137.12" y2="326.32" gradientUnits="userSpaceOnUse"><stop offset="0" stop-color="#ce3a3a" stop-opacity="0"/><stop offset="0.18" stop-color="#a4303e" stop-opacity="0.26"/><stop offset="0.51" stop-color="#602145" stop-opacity="0.66"/><stop offset="0.8" stop-color="#371749" stop-opacity="0.91"/><stop offset="1" stop-color="#28144a"/></linearGradient><linearGradient id="Dégradé_sans_nom_24-3" x1="179.37" y1="82.64" x2="163.78" y2="158.49" gradientTransform="translate(6.65 -11.4) rotate(3.75)" xlink:href="#Dégradé_sans_nom_24"/><linearGradient id="Dégradé_sans_nom_24-4" x1="209.52" y1="83.62" x2="198.02" y2="139.57" gradientTransform="matrix(1, 0, 0, 1, 0, 0)" xlink:href="#Dégradé_sans_nom_24"/><linearGradient id="Dégradé_sans_nom_75" x1="108.79" y1="34.79" x2="-23.86" y2="138.49" gradientTransform="translate(22.97 -20.92) rotate(19.7)" gradientUnits="userSpaceOnUse"><stop offset="0" stop-color="#fff" stop-opacity="0"/><stop offset="0.38" stop-color="#9e95ad" stop-opacity="0.45"/><stop offset="0.77" stop-color="#483765" stop-opacity="0.85"/><stop offset="1" stop-color="#28144a"/></linearGradient><linearGradient id="Dégradé_sans_nom_39" x1="123.15" y1="157.37" x2="-23.55" y2="198.05" gradientUnits="userSpaceOnUse"><stop offset="0" stop-color="#fff" stop-opacity="0"/><stop offset="0.53" stop-color="#867b9a" stop-opacity="0.56"/><stop offset="1" stop-color="#28144a"/></linearGradient><linearGradient id="Dégradé_sans_nom_23" x1="111.28" y1="129.06" x2="129.79" y2="280.17" gradientUnits="userSpaceOnUse"><stop offset="0" stop-color="#fff" stop-opacity="0"/><stop offset="0.23" stop-color="#dedbe3" stop-opacity="0.15"/><stop offset="0.63" stop-color="#887c9a" stop-opacity="0.56"/><stop offset="1" stop-color="#28144a"/></linearGradient><linearGradient id="Dégradé_sans_nom_47" x1="81.89" y1="276.08" x2="148.06" y2="192.79" gradientTransform="matrix(1.11, -0.01, -0.01, 1.07, -19.12, -63.37)" gradientUnits="userSpaceOnUse"><stop offset="0" stop-color="#b1a3c1" stop-opacity="0"/><stop offset="0.11" stop-color="#a293b3" stop-opacity="0.2"/><stop offset="0.28" stop-color="#8d7d9f" stop-opacity="0.49"/><stop offset="0.46" stop-color="#7d6c90" stop-opacity="0.71"/><stop offset="0.64" stop-color="#716085" stop-opacity="0.87"/><stop offset="0.82" stop-color="#6a587e" stop-opacity="0.97"/><stop offset="1" stop-color="#68567c"/></linearGradient><linearGradient id="Dégradé_sans_nom_38" x1="92.46" y1="128.2" x2="24.21" y2="162.49" gradientUnits="userSpaceOnUse"><stop offset="0" stop-color="#fff" stop-opacity="0"/><stop offset="0.2" stop-color="#edebf0" stop-opacity="0.08"/><stop offset="0.48" stop-color="#bbb4c6" stop-opacity="0.32"/><stop offset="0.8" stop-color="#685a80" stop-opacity="0.7"/><stop offset="1" stop-color="#28144a"/></linearGradient><linearGradient id="Dégradé_sans_nom_24-5" x1="48.17" y1="134.72" x2="-23.1" y2="167.46" gradientTransform="matrix(1, 0, 0, 1, 0, 0)" xlink:href="#Dégradé_sans_nom_24"/><linearGradient id="Dégradé_sans_nom_97-2" x1="21.59" y1="86.91" x2="20.55" y2="122.13" gradientTransform="translate(-7.98 209.31) rotate(-153.1)" xlink:href="#Dégradé_sans_nom_97"/><linearGradient id="Dégradé_sans_nom_29" x1="208.56" y1="66.31" x2="209.4" y2="118.61" gradientUnits="userSpaceOnUse"><stop offset="0" stop-color="#ce3a3a" stop-opacity="0"/><stop offset="1" stop-color="#28144a"/></linearGradient><linearGradient id="Dégradé_sans_nom_30" x1="40.55" y1="155.84" x2="11.94" y2="196.77" gradientUnits="userSpaceOnUse"><stop offset="0" stop-color="#ce3a3a" stop-opacity="0"/><stop offset="0.81" stop-color="#28144a"/></linearGradient><linearGradient id="Dégradé_sans_nom_45" x1="196.72" y1="123.72" x2="146.67" y2="183.48" gradientTransform="translate(20.41 -42.55) rotate(19.7)" gradientUnits="userSpaceOnUse"><stop offset="0" stop-color="#b1a3c1" stop-opacity="0"/><stop offset="0.36" stop-color="#9484a5" stop-opacity="0.4"/><stop offset="0.79" stop-color="#746388" stop-opacity="0.83"/><stop offset="1" stop-color="#68567c"/></linearGradient><radialGradient id="Dégradé_sans_nom_60" cx="34.99" cy="230.01" fx="23.35415646065008" fy="237.44702809114034" r="24.07" gradientUnits="userSpaceOnUse"><stop offset="0" stop-color="#68527c"/><stop offset="0.27" stop-color="#69537d" stop-opacity="0.98"/><stop offset="0.44" stop-color="#6b567f" stop-opacity="0.91"/><stop offset="0.59" stop-color="#6f5b83" stop-opacity="0.79"/><stop offset="0.72" stop-color="#756289" stop-opacity="0.62"/><stop offset="0.84" stop-color="#7d6c90" stop-opacity="0.4"/><stop offset="0.95" stop-color="#867799" stop-opacity="0.14"/><stop offset="1" stop-color="#8b7d9e" stop-opacity="0"/></radialGradient><linearGradient id="Dégradé_sans_nom_65" x1="66.02" y1="207.05" x2="43.74" y2="306.2" gradientUnits="userSpaceOnUse"><stop offset="0" stop-color="#b1a3c1" stop-opacity="0"/><stop offset="0.07" stop-color="#a091b2" stop-opacity="0.13"/><stop offset="0.3" stop-color="#6b5a85" stop-opacity="0.51"/><stop offset="0.54" stop-color="#463364" stop-opacity="0.78"/><stop offset="0.77" stop-color="#2f1c51" stop-opacity="0.95"/><stop offset="1" stop-color="#28144a"/></linearGradient><radialGradient id="Dégradé_sans_nom_94" cx="78.96" cy="54.46" r="44.14" gradientUnits="userSpaceOnUse"><stop offset="0" stop-color="#28144a"/><stop offset="0.48" stop-color="#2b184d" stop-opacity="0.97"/><stop offset="0.65" stop-color="#382558" stop-opacity="0.88"/><stop offset="0.77" stop-color="#4e3c6b" stop-opacity="0.72"/><stop offset="0.87" stop-color="#6d5c86" stop-opacity="0.5"/><stop offset="0.96" stop-color="#9586a9" stop-opacity="0.2"/><stop offset="1" stop-color="#b1a3c1" stop-opacity="0"/></radialGradient><linearGradient id="Dégradé_sans_nom_79" x1="94.62" y1="42.39" x2="43.53" y2="81.95" gradientUnits="userSpaceOnUse"><stop offset="0" stop-color="#1e1e1e" stop-opacity="0"/><stop offset="0.06" stop-color="#1f1d23" stop-opacity="0.12"/><stop offset="0.3" stop-color="#231934" stop-opacity="0.5"/><stop offset="0.54" stop-color="#261640" stop-opacity="0.78"/><stop offset="0.77" stop-color="#271548" stop-opacity="0.94"/><stop offset="1" stop-color="#28144a"/></linearGradient><linearGradient id="Dégradé_sans_nom_95" x1="34.55" y1="44.89" x2="15.96" y2="56.31" gradientTransform="translate(18.53 -5.57) rotate(19.7)" gradientUnits="userSpaceOnUse"><stop offset="0" stop-color="#b1a3c1" stop-opacity="0"/><stop offset="0.14" stop-color="#a293b3" stop-opacity="0.21"/><stop offset="0.41" stop-color="#89799b" stop-opacity="0.55"/><stop offset="0.65" stop-color="#77668a" stop-opacity="0.8"/><stop offset="0.86" stop-color="#6c5a80" stop-opacity="0.95"/><stop offset="1" stop-color="#68567c"/></linearGradient></defs><g id="Calque_2" data-name="Calque 2"><path class="cls-1" d="M33.79,92.32h99.46a0,0,0,0,1,0,0V215.14a15.18,15.18,0,0,1-15.18,15.18H33.79A17.32,17.32,0,0,1,16.47,213V109.64A17.32,17.32,0,0,1,33.79,92.32Z" transform="translate(-50 34.68) rotate(-19.7)"/><path class="cls-1" d="M199.15,35.6h48.35a26,26,0,0,1,26,26V78a0,0,0,0,1,0,0H199.15a21.22,21.22,0,0,1-21.22-21.22v0A21.22,21.22,0,0,1,199.15,35.6Z" transform="translate(294.48 -165.57) rotate(93.05)"/><path class="cls-1" d="M198,71.4h37a2.39,2.39,0,0,1,2.39,2.39V93.71a17.44,17.44,0,0,1-17.44,17.44h-8.73A13.25,13.25,0,0,1,198,97.9V71.4a0,0,0,0,1,0,0Z" transform="translate(-14.96 131.22) rotate(-32.49)"/><path class="cls-2" d="M198,71.4h37a2.39,2.39,0,0,1,2.39,2.39V93.71a17.44,17.44,0,0,1-17.44,17.44h-8.73A13.25,13.25,0,0,1,198,97.9V71.4a0,0,0,0,1,0,0Z" transform="translate(-14.96 131.22) rotate(-32.49)"/><path class="cls-3" d="M199.15,35.6h48.35a26,26,0,0,1,26,26V78a0,0,0,0,1,0,0H199.15a21.22,21.22,0,0,1-21.22-21.22v0A21.22,21.22,0,0,1,199.15,35.6Z" transform="translate(294.48 -165.57) rotate(93.05)"/><path class="cls-1" d="M152.12,68.61h47.71a15.32,15.32,0,0,1,15.32,15.32v21.79A17.11,17.11,0,0,1,198,122.83H139.19a0,0,0,0,1,0,0V81.54a12.93,12.93,0,0,1,12.93-12.93Z" transform="translate(-5.89 11.81) rotate(-3.75)"/><path class="cls-1" d="M290.79,359.28H319.7a11.9,11.9,0,0,1,11.9,11.9v17.14a11.9,11.9,0,0,1-11.9,11.9H290.79a0,0,0,0,1,0,0V359.28A0,0,0,0,1,290.79,359.28Z" transform="translate(394.02 -104.18) rotate(49.05)"/><path class="cls-1" d="M363.49,384.2a3.89,3.89,0,0,1-1.14,2.75l-33.6,33.6a4.58,4.58,0,0,1-6.48,0l-4.51-4.5L303.51,401.8a3.9,3.9,0,0,1,0-5.51l14.85-14.85a31.08,31.08,0,0,1,44,0A3.89,3.89,0,0,1,363.49,384.2Z"/><path class="cls-1" d="M224.83,253.73l-71,45.76a33.54,33.54,0,0,1-12.21,4.81c-14.88,2.68-29.63-5.48-36-19.17l-20.66-44,103-44.54Z"/><path class="cls-4" d="M33.79,92.32h99.46a0,0,0,0,1,0,0V215.14a15.18,15.18,0,0,1-15.18,15.18H33.79A17.32,17.32,0,0,1,16.47,213V109.64A17.32,17.32,0,0,1,33.79,92.32Z" transform="translate(-50 34.68) rotate(-19.7)"/><path class="cls-5" d="M224.83,253.73l-71,45.76a33.54,33.54,0,0,1-12.21,4.81c-14.88,2.68-29.63-5.48-36-19.17l-20.66-44,103-44.54Z"/><path class="cls-6" d="M224,2.62h12a11.85,11.85,0,0,1,11.85,11.85v0a13.65,13.65,0,0,1-13.65,13.65H224a11.85,11.85,0,0,1-11.85-11.85v-1.8A11.85,11.85,0,0,1,224,2.62Z" transform="translate(31.84 -102.41) rotate(26.9)"/><path class="cls-7" d="M224,2.62h12a11.85,11.85,0,0,1,11.85,11.85v0a13.65,13.65,0,0,1-13.65,13.65H224a11.85,11.85,0,0,1-11.85-11.85v-1.8A11.85,11.85,0,0,1,224,2.62Z" transform="translate(31.84 -102.41) rotate(26.9)"/><path class="cls-6" d="M215.46,18.42h6.65a5.16,5.16,0,0,1,5.16,5.16v0a7,7,0,0,1-7,7h-4.85a5.16,5.16,0,0,1-5.16-5.16v-1.8A5.16,5.16,0,0,1,215.46,18.42Z" transform="translate(34.74 -96.33) rotate(26.9)"/><path class="cls-1" d="M245.76,302.46h72.06a14.86,14.86,0,0,1,14.86,14.86v21.39a14.86,14.86,0,0,1-14.86,14.86H245.76A25.55,25.55,0,0,1,220.21,328v0a25.55,25.55,0,0,1,25.55-25.55Z" transform="translate(422.29 -75.4) rotate(60)"/><path class="cls-8" d="M362.35,381.44a31,31,0,0,0-29.69-8.13c-.14-.19-.28-.37-.43-.55l-11.3-12.64c0,2.52-1,5.19-3,8-4.38,3.92-13.71,9-23,14-1.33,1.08-3.76,1.71-7,2l13.38,15.47a11.34,11.34,0,0,0,1.75,1.65,3.45,3.45,0,0,0,.45.56l14.25,14.25,4.51,4.5a4.58,4.58,0,0,0,6.48,0l33.6-33.6a3.9,3.9,0,0,0,0-5.51Z"/><path class="cls-6" d="M364.26,385a3.89,3.89,0,0,1-1.14,2.75l-33.6,33.6a4.58,4.58,0,0,1-6.48,0l-5.28-5.26,39-39a41.1,41.1,0,0,1,6.33,5.18A3.89,3.89,0,0,1,364.26,385Z"/><path class="cls-1" d="M244.14,293.7a41,41,0,0,1-31.64,15l-1.29,0a40.61,40.61,0,0,1-24.62-9.25l-14.25-11.69a40.89,40.89,0,1,1,51.87-63.23l14.25,11.7a40.87,40.87,0,0,1,5.68,57.54Z"/><path class="cls-9" d="M244.14,293.7a41,41,0,0,1-31.64,15l-1.29,0a40.61,40.61,0,0,1-24.62-9.25l-14.25-11.69a40.89,40.89,0,1,1,51.87-63.23l14.25,11.7a40.87,40.87,0,0,1,5.68,57.54Z"/><path class="cls-1" d="M230.3,260.78h32.2a16,16,0,0,1,16,16v23.08a16,16,0,0,1-16,16H230.3a27.57,27.57,0,0,1-27.57-27.57v0a27.57,27.57,0,0,1,27.57-27.57Z" transform="translate(214.85 -86.33) rotate(35.91)"/><path class="cls-10" d="M319.26,351.07l-36-62.41a25.45,25.45,0,0,0-5.29-6.44,16.14,16.14,0,0,0-3.43-3.37L248.43,260a27.57,27.57,0,0,0-38.5,6.16h0a27.57,27.57,0,0,0,6.16,38.5l26.08,18.89a15.76,15.76,0,0,0,3.2,1.78L275,376.62a14.85,14.85,0,0,0,20.29,5.44l18.52-10.7A14.84,14.84,0,0,0,319.26,351.07Z"/><path class="cls-11" d="M237.22,258.41a27.34,27.34,0,0,1,16,5.13,40.73,40.73,0,0,0-2-9,33.93,33.93,0,0,0-40,54.07l1.29,0a40.64,40.64,0,0,0,7.94-.78,27.57,27.57,0,0,1,16.78-49.47Z"/><path class="cls-12" d="M237.22,258.41a27.34,27.34,0,0,1,16,5.13,40.73,40.73,0,0,0-2-9,33.93,33.93,0,0,0-40,54.07l1.29,0a40.64,40.64,0,0,0,7.94-.78,27.57,27.57,0,0,1,16.78-49.47Z"/><path class="cls-1" d="M251.82,434.14,237,442.71a11.89,11.89,0,0,1-16.26-4.36l-9.93-17.18a15.68,15.68,0,0,0,8.93-2.09l19.71-11.37A15.72,15.72,0,0,0,246,400.3l10.15,17.58A11.9,11.9,0,0,1,251.82,434.14Z"/><path class="cls-1" d="M279.42,435.13a3.89,3.89,0,0,1-1.95,3.38l-38.07,22a4.58,4.58,0,0,1-6.26-1.67l-13.26-23a3.88,3.88,0,0,1,1.43-5.32l15.1-8.72a31.08,31.08,0,0,1,42.48,11.38A3.87,3.87,0,0,1,279.42,435.13Z"/><path class="cls-13" d="M278.89,433.18a31,31,0,0,0-22.69-15.25l0-.05L246,400.3a15.72,15.72,0,0,1-6.59,7.41l-19.71,11.37a15.68,15.68,0,0,1-8.93,2.09l9.93,17.18a12,12,0,0,0,2.22,2.79l10.2,17.67a4.58,4.58,0,0,0,6.26,1.67l38.07-22a3.89,3.89,0,0,0,1.42-5.33Z"/><path class="cls-6" d="M280,435.74a3.89,3.89,0,0,1-2,3.38l-38.07,22c-1.3.76-3.44.19-4.73-.37a13.11,13.11,0,0,1,5.39-9.15l33.78-24.31a38.38,38.38,0,0,1,5.05,6.53A3.87,3.87,0,0,1,280,435.74Z"/><path class="cls-1" d="M192.91,295.27a40.87,40.87,0,0,1-39.09,29,41.34,41.34,0,0,1-7.29-.65,40.83,40.83,0,0,1-25.94-16.36l-10.76-15a40.89,40.89,0,0,1,66.39-47.75l10.76,15a40.9,40.9,0,0,1,5.93,35.74Z"/><path class="cls-14" d="M192.91,295.27a40.87,40.87,0,0,1-39.09,29,41.34,41.34,0,0,1-7.29-.65,40.83,40.83,0,0,1-25.94-16.36l-10.76-15a40.89,40.89,0,0,1,66.39-47.75l10.76,15a40.9,40.9,0,0,1,5.93,35.74Z"/><path class="cls-1" d="M147.93,323.37H250a15.81,15.81,0,0,1,15.81,15.81v22.76A15.81,15.81,0,0,1,250,377.74H147.93a27.19,27.19,0,0,1-27.19-27.19v0a27.19,27.19,0,0,1,27.19-27.19Z" transform="translate(400.24 7.88) rotate(60)"/><path class="cls-15" d="M147.93,323.37H250a15.81,15.81,0,0,1,15.81,15.81v22.76A15.81,15.81,0,0,1,250,377.74H147.93a27.19,27.19,0,0,1-27.19-27.19v0a27.19,27.19,0,0,1,27.19-27.19Z" transform="translate(400.24 7.88) rotate(60)"/><path class="cls-11" d="M192.91,295.27a27.58,27.58,0,0,0-46.38,28.37,40.58,40.58,0,0,1-12.33-4.34,33.91,33.91,0,0,1,16.15-36.69l6-3.47a33.93,33.93,0,0,1,38.3,3A40.75,40.75,0,0,1,192.91,295.27Z"/><path class="cls-16" d="M192.91,295.27a27.58,27.58,0,0,0-46.38,28.37,40.58,40.58,0,0,1-12.33-4.34,33.91,33.91,0,0,1,16.15-36.69l6-3.47a33.93,33.93,0,0,1,38.3,3A40.75,40.75,0,0,1,192.91,295.27Z"/><path class="cls-17" d="M152.12,68.61h47.71a15.32,15.32,0,0,1,15.32,15.32v21.79A17.11,17.11,0,0,1,198,122.83H139.19a0,0,0,0,1,0,0V81.54a12.93,12.93,0,0,1,12.93-12.93Z" transform="translate(-5.89 11.81) rotate(-3.75)"/><path class="cls-18" d="M205.44,120,202,67.43a15.32,15.32,0,0,1,12.3,14l1.43,21.74A17.11,17.11,0,0,1,205.44,120Z"/><path class="cls-11" d="M205.44,120,202,67.43a15.32,15.32,0,0,1,12.3,14l1.43,21.74A17.11,17.11,0,0,1,205.44,120Z"/><path class="cls-1" d="M66.29,9.6H78a47.5,47.5,0,0,1,47.5,47.5v44.68a0,0,0,0,1,0,0H17.94a0,0,0,0,1,0,0V57.94A48.35,48.35,0,0,1,66.29,9.6Z" transform="translate(-14.57 27.44) rotate(-19.7)"/><path class="cls-19" d="M66.29,9.6H78a47.5,47.5,0,0,1,47.5,47.5v44.68a0,0,0,0,1,0,0H17.94a0,0,0,0,1,0,0V57.94A48.35,48.35,0,0,1,66.29,9.6Z" transform="translate(-14.57 27.44) rotate(-19.7)"/><path class="cls-1" d="M145.57,75.68,35.63,115,78.7,235.32a10.24,10.24,0,0,0,13.1,6.19l91-34.79A15.19,15.19,0,0,0,192,187.31Z"/><path class="cls-20" d="M145.57,75.68,35.63,115,78.7,235.32a10.24,10.24,0,0,0,13.1,6.19l91-34.79A15.19,15.19,0,0,0,192,187.31Z"/><path class="cls-21" d="M145.57,75.68,35.63,115,78.7,235.32a10.24,10.24,0,0,0,13.1,6.19l91-34.79A15.19,15.19,0,0,0,192,187.31Z"/><path class="cls-22" d="M167.29,179.14l-52.75,53.68c-33,15.7-33.68,8.54-37.64-2.51L58.47,178.83c-2.76-7.72,20.8-23,26.29-28.76,2.37-2.46,10.46-12.93,13.93-14.17l26.22-2.73c11.52-4.13,24.07,1.47,28,12.52l17.9,18.84C163.85,171,163.43,169.37,167.29,179.14Z"/><path class="cls-1" d="M81.39,156.84,52.63,184.43a8.76,8.76,0,0,1-12.32-.19L9.15,152.41h0l35.17-35.18a26.21,26.21,0,0,1,37.07,0h0A28,28,0,0,1,81.39,156.84Z"/><path class="cls-23" d="M81.39,156.84,52.63,184.43a8.76,8.76,0,0,1-12.32-.19L9.15,152.41h0l35.17-35.18a26.21,26.21,0,0,1,37.07,0h0A28,28,0,0,1,81.39,156.84Z"/><path class="cls-1" d="M52.42,184.62l-10-68.47A21.23,21.23,0,0,0,20.09,96.08h0A21.23,21.23,0,0,0,0,118.4L2.6,166.69A26,26,0,0,0,30,191.3C40.9,191.34,47,189.71,52.42,184.62Z"/><path class="cls-24" d="M52.42,184.62l-10-68.47A21.23,21.23,0,0,0,20.09,96.08h0A21.23,21.23,0,0,0,0,118.4L2.6,166.69A26,26,0,0,0,30,191.3C40.9,191.34,47,189.71,52.42,184.62Z"/><path class="cls-11" d="M52.42,184.63C47,189.71,40.9,191.34,30,191.3A26,26,0,0,1,2.6,166.69l-.12-2.16A26.7,26.7,0,0,0,29.3,182.15c10.45,0,16.59-1.4,21.93-5.69Z"/><path class="cls-6" d="M15,92.86H25.25A13.65,13.65,0,0,1,38.9,106.51v0A11.85,11.85,0,0,1,27,118.36H15A11.85,11.85,0,0,1,3.18,106.51v-1.8A11.85,11.85,0,0,1,15,92.86Z" transform="translate(87.58 190.27) rotate(153.1)"/><path class="cls-25" d="M15,92.86H25.25A13.65,13.65,0,0,1,38.9,106.51v0A11.85,11.85,0,0,1,27,118.36H15A11.85,11.85,0,0,1,3.18,106.51v-1.8A11.85,11.85,0,0,1,15,92.86Z" transform="translate(87.58 190.27) rotate(153.1)"/><path class="cls-6" d="M29,108.66h4.85a7,7,0,0,1,7,7v0a5.16,5.16,0,0,1-5.16,5.16H29a5.16,5.16,0,0,1-5.16-5.16v-1.8A5.16,5.16,0,0,1,29,108.66Z" transform="translate(112.99 202.41) rotate(153.1)"/><path class="cls-26" d="M205.44,120,202,67.43a15.32,15.32,0,0,1,12.3,14l1.43,21.74A17.11,17.11,0,0,1,205.44,120Z"/><path class="cls-27" d="M52.42,184.63C47,189.71,40.9,191.34,30,191.3A26,26,0,0,1,2.6,166.69l-.12-2.16A26.7,26.7,0,0,0,29.3,182.15c10.45,0,16.59-1.4,21.93-5.69Z"/><path class="cls-28" d="M153.9,190.49l-27.63,11.34A19.9,19.9,0,0,1,100.32,191L89,163.34a19.87,19.87,0,0,1,10.85-26l27.64-11.34a19.89,19.89,0,0,1,26,10.86l11.33,27.63A19.89,19.89,0,0,1,153.9,190.49Z"/><polygon class="cls-28" points="98.34 136.64 93.53 141.51 92.42 147.13 101.1 145.05 98.34 136.64"/><polygon class="cls-28" points="160.77 185.76 165.34 181.32 168.63 173.38 159.98 175.56 160.77 185.76"/><rect class="cls-29" x="97.28" y="123.88" width="69.65" height="69.65" rx="19.89" transform="translate(-49.63 60.66) rotate(-21.88)"/><rect class="cls-30" x="97.18" y="124.1" width="69.65" height="69.65" rx="19.89" transform="translate(-50.94 62.94) rotate(-22.6)"/><rect class="cls-31" x="138.66" y="134.27" width="4.75" height="10.81" rx="2.37" transform="matrix(0.94, -0.34, 0.34, 0.94, -38.83, 55.72)"/><rect class="cls-11" x="131.3" y="136.91" width="4.75" height="10.81" rx="2.37" transform="matrix(0.94, -0.34, 0.34, 0.94, -40.15, 53.39)"/><path class="cls-32" d="M136.21,147.06a2.34,2.34,0,0,0,0-1.69l-2.5-7a2.43,2.43,0,0,0-1.1-1.29h0a2.37,2.37,0,0,1,2.23,1.57L137,144.4A2.38,2.38,0,0,1,136.21,147.06Z"/><circle class="cls-6" cx="36.39" cy="223.63" r="7.09"/><rect class="cls-11" x="146.03" y="131.63" width="4.75" height="10.81" rx="2.37" transform="translate(-37.51 58.05) rotate(-19.7)"/><path class="cls-32" d="M150.9,141.75a2.34,2.34,0,0,0,0-1.69l-2.5-7a2.43,2.43,0,0,0-1.1-1.29h0a2.37,2.37,0,0,1,2.23,1.57l2,5.71A2.38,2.38,0,0,1,150.9,141.75Z"/><path class="cls-33" d="M143.54,144.39a2.34,2.34,0,0,0,0-1.69l-2.5-7a2.43,2.43,0,0,0-1.1-1.29h0a2.37,2.37,0,0,1,2.23,1.57l2.05,5.71A2.38,2.38,0,0,1,143.54,144.39Z"/><path class="cls-34" d="M29.15,253a22.09,22.09,0,0,1-9-1.67c-5-2.21-7.9-6.56-7.78-11.64.18-8.15,8-16.22,20.42-21.06a6,6,0,0,1,4.36,11.18c-10.19,4-12.88,9-12.79,10.16a6,6,0,0,0,3.35,1c4.27.36,28-.19,76.56-46.37,2.4-2.28,5.28-1.14,7.56,1.27s3.11,5.15.71,7.43C73.84,240.09,45.62,253,29.15,253Z"/><path class="cls-6" d="M112.83,194.81c-2.37-2.49-5.35-3.68-7.84-1.31l-.95.89.23.2,0,0c2.4-2.28,5.28-1.13,7.56,1.27,2,2.08,2.87,4.43,1.49,6.51l.21.18C116.05,200.15,115.19,197.3,112.83,194.81Z"/><path class="cls-35" d="M29.15,253a22.09,22.09,0,0,1-9-1.67c-5-2.21-7.9-6.56-7.78-11.64.18-8.15,8-16.22,20.42-21.06a6,6,0,0,1,4.36,11.18c-10.19,4-12.88,9-12.79,10.16a6,6,0,0,0,3.35,1c4.27.36,28-.19,76.56-46.37,2.4-2.28,5.28-1.14,7.56,1.27s3.11,5.15.71,7.43C73.84,240.09,45.62,253,29.15,253Z"/><path class="cls-36" d="M29.15,253a22.09,22.09,0,0,1-9-1.67c-5-2.21-7.9-6.56-7.78-11.64.18-8.15,8-16.22,20.42-21.06a6,6,0,0,1,4.36,11.18c-10.19,4-12.88,9-12.79,10.16a6,6,0,0,0,3.35,1c4.27.36,28-.19,76.56-46.37,2.4-2.28,5.28-1.14,7.56,1.27s3.11,5.15.71,7.43C73.84,240.09,45.62,253,29.15,253Z"/><path class="cls-29" d="M116.68,42.82c8,22.33,1,44-21.12,51.56-22.73,7.79-46.91-3.63-54.91-26s2.89-49.38,26-54.9C91.28,7.61,108.69,20.49,116.68,42.82Z"/><path class="cls-37" d="M116.68,42.82c8,22.33,1,44-21.12,51.56-22.73,7.79-46.91-3.63-54.91-26s2.89-49.38,26-54.9C91.28,7.61,108.69,20.49,116.68,42.82Z"/><path class="cls-6" d="M114.54,42.36c7.23,20.2.92,39.77-19.11,46.64-20.57,7-42.45-3.28-49.68-23.48s2.61-44.68,23.48-49.68C91.55,10.5,107.3,22.15,114.54,42.36Z"/><path class="cls-38" d="M100,81.08a35.78,35.78,0,0,0,7.37-17.67c2-19.29-10.33-41.77-30.74-43.92a21.13,21.13,0,0,1,8.56-.73c17.19,2.58,28.34,22.18,27.25,39.15C111.79,68.3,108.14,74.93,100,81.08Z"/><rect class="cls-28" x="11.81" y="44.86" width="18.46" height="28.41" rx="9.23" transform="translate(-18.68 10.55) rotate(-19.7)"/><polygon class="cls-28" points="15.33 41.58 11.05 50.28 13.19 55.68 18.81 49.26 15.33 41.58"/><polygon class="cls-28" points="30.75 68.28 35.03 59.57 32.89 54.17 27.27 60.6 30.75 68.28"/><rect class="cls-29" x="16.09" y="36.16" width="18.46" height="28.41" rx="9.23" transform="translate(-15.5 11.48) rotate(-19.7)"/><path class="cls-39" d="M114.54,42.36c7.23,20.2.92,39.77-19.11,46.64-20.57,7-42.45-3.28-49.68-23.48s2.61-44.68,23.48-49.68C91.55,10.5,107.3,22.15,114.54,42.36Z"/><rect class="cls-40" x="16.09" y="36.36" width="18.46" height="28.41" rx="9.23" transform="translate(-15.56 11.49) rotate(-19.7)"/><rect class="cls-11" x="24.9" y="40.84" width="4.75" height="10.81" rx="2.37" transform="translate(-13.99 11.9) rotate(-19.7)"/><path class="cls-32" d="M29.76,50.94a2.34,2.34,0,0,0,0-1.69l-2.5-7A2.43,2.43,0,0,0,26.2,41h0a2.37,2.37,0,0,1,2.23,1.57l2.05,5.71A2.38,2.38,0,0,1,29.76,50.94Z"/></g></svg>