<svg xmlns="http://www.w3.org/2000/svg" viewBox="0 0 451 451"><defs><style>.cls-1{opacity:0.5;}.cls-2{fill:#777;}</style></defs><g id="Calque_2" data-name="Calque 2"><g class="cls-1"><path class="cls-2" d="M420.19,117c-.29,1.47-.41,1.56-1.9,1.53,1.46.29,1.56.41,1.53,1.9.28-1.47.4-1.56,1.9-1.53C420.25,118.64,420.16,118.52,420.19,117Z"/><path class="cls-2" d="M376.44,223.41c-.34-1.72-.26-1.87,1.37-2.5-1.71.34-1.86.25-2.49-1.38.33,1.72.25,1.87-1.38,2.5C375.66,221.69,375.81,221.77,376.44,223.41Z"/><path class="cls-2" d="M416.61,286.76c.84-2.16,1-2.27,3.31-1.82-2.16-.84-2.27-1-1.82-3.31-.84,2.16-1,2.27-3.31,1.82C417,284.29,417.06,284.49,416.61,286.76Z"/><circle class="cls-2" cx="333.81" cy="224.26" r="2.45" transform="translate(103.85 554.17) rotate(-89.02)"/><path class="cls-2" d="M443.63,336.6c-1.57.83-1.75.79-2.83-.61.83,1.57.79,1.74-.61,2.83,1.57-.83,1.74-.79,2.83.61C442.19,337.86,442.22,337.69,443.63,336.6Z"/><path class="cls-2" d="M349.62,260.11c.19-1.51.3-1.61,1.82-1.68-1.51-.19-1.61-.31-1.68-1.82-.19,1.5-.3,1.61-1.82,1.67C349.45,258.48,349.55,258.59,349.62,260.11Z"/><path class="cls-2" d="M419,361.4c-.77,1.71-.94,1.79-2.75,1.33,1.7.77,1.78.94,1.32,2.76.77-1.71.94-1.79,2.76-1.33C418.63,363.39,418.55,363.22,419,361.4Z"/><path class="cls-2" d="M395.21,365.43c-.15-2.14,0-2.31,2.05-2.83-2.14.15-2.31,0-2.83-2.05.16,2.14,0,2.31-2,2.83C394.52,363.23,394.69,363.35,395.21,365.43Z"/><path class="cls-2" d="M357.45,322.6c.15-2.44.32-2.61,2.74-2.89-2.43-.15-2.61-.32-2.88-2.74-.15,2.44-.32,2.61-2.75,2.89C357,320,357.17,320.17,357.45,322.6Z"/><path class="cls-2" d="M332.29,387.42c1.8,1.85,1.82,2.1.32,4.19,1.84-1.8,2.09-1.82,4.18-.31-1.79-1.84-1.81-2.1-.31-4.19C334.64,388.91,334.38,388.93,332.29,387.42Z"/><path class="cls-2" d="M286.22,431.3c-1.27-1.6-1.27-1.8.09-3.34-1.6,1.28-1.81,1.27-3.34-.09,1.28,1.61,1.27,1.81-.09,3.35C284.48,429.94,284.69,430,286.22,431.3Z"/><path class="cls-2" d="M327.8,216.83c.27-1.29.37-1.37,1.68-1.33-1.28-.27-1.36-.37-1.32-1.68-.27,1.28-.37,1.37-1.69,1.32C327.76,215.41,327.84,215.52,327.8,216.83Z"/><path class="cls-2" d="M230.74,425.66c-.91,1.55-1.08,1.61-2.76,1,1.55.92,1.61,1.09,1,2.77.91-1.55,1.08-1.61,2.76-1C230.17,427.51,230.11,427.34,230.74,425.66Z"/><path class="cls-2" d="M236.93,389.45c-.13,2.09-.27,2.24-2.36,2.47,2.1.14,2.25.28,2.48,2.37.13-2.1.28-2.25,2.36-2.48C237.32,391.68,237.17,391.53,236.93,389.45Z"/><path class="cls-2" d="M291.48,253.4c2.2-1.44,2.46-1.41,4.25.51-1.43-2.2-1.4-2.46.52-4.25-2.2,1.43-2.46,1.4-4.25-.51C293.43,251.34,293.4,251.6,291.48,253.4Z"/><path class="cls-2" d="M304.22,245c-.4-2.49-.28-2.7,2.1-3.53-2.48.4-2.7.27-3.52-2.11.4,2.49.27,2.71-2.11,3.53C303.18,242.45,303.39,242.58,304.22,245Z"/><path class="cls-2" d="M275.29,256.52c2.42-1.19,2.69-1.13,4.28,1.05-1.19-2.42-1.13-2.68,1.05-4.28-2.42,1.2-2.68,1.13-4.28-1C277.54,254.66,277.47,254.93,275.29,256.52Z"/><circle class="cls-2" cx="164.05" cy="349.43" r="2.97" transform="translate(-185.63 512.96) rotate(-89.91)"/><path class="cls-2" d="M216.06,277.28c.17-2,.31-2.15,2.31-2.33-2-.17-2.14-.31-2.32-2.32-.17,2-.32,2.15-2.32,2.33C215.74,275.13,215.88,275.27,216.06,277.28Z"/><path class="cls-2" d="M149.7,283.78c1.75-1.55,2-1.56,3.82-.1-1.55-1.76-1.56-2-.09-3.82-1.76,1.55-2,1.56-3.83.09C151.15,281.71,151.16,281.94,149.7,283.78Z"/><path class="cls-2" d="M122.19,280.63c1.14.95,1.17,1.09.44,2.39.94-1.15,1.09-1.18,2.38-.44-1.15-.95-1.17-1.1-.44-2.39C123.62,281.34,123.48,281.36,122.19,280.63Z"/><path class="cls-2" d="M146.8,242.19c0-1.23.11-1.32,1.33-1.5-1.23,0-1.32-.11-1.5-1.33,0,1.23-.12,1.32-1.33,1.5C146.53,240.89,146.62,241,146.8,242.19Z"/><path class="cls-2" d="M159.27,218.7c-.24-2.55-.1-2.76,2.37-3.44-2.55.25-2.76.1-3.43-2.36.24,2.54.09,2.75-2.37,3.43C158.38,216.09,158.59,216.23,159.27,218.7Z"/><path class="cls-2" d="M231.62,188.51c-.54-2.6-.41-2.84,2.06-3.82-2.61.54-2.84.41-3.82-2.06.54,2.61.41,2.84-2.06,3.82C230.41,185.91,230.64,186,231.62,188.51Z"/><path class="cls-2" d="M173.92,175.07c-1.46.65-1.61.61-2.51-.71.66,1.46.61,1.61-.71,2.51,1.46-.66,1.61-.61,2.51.71C172.56,176.12,172.6,176,173.92,175.07Z"/><path class="cls-2" d="M247.52,154.11c-.43-2.6-.3-2.82,2.19-3.7-2.6.43-2.83.3-3.7-2.19.43,2.6.3,2.83-2.18,3.7C246.42,151.49,246.65,151.63,247.52,154.11Z"/><path class="cls-2" d="M159.54,152.74c.35-2.44.54-2.6,3-2.68-2.44-.35-2.6-.54-2.67-3-.36,2.44-.54,2.6-3,2.68C159.3,150.09,159.47,150.28,159.54,152.74Z"/><path class="cls-2" d="M203.55,127c1.87-1.88,2.13-1.9,4.31-.39-1.88-1.87-1.91-2.13-.39-4.31-1.87,1.88-2.13,1.91-4.31.39C205,124.59,205.07,124.85,203.55,127Z"/><path class="cls-2" d="M170,105.88c1.06-1.84,1.26-1.91,3.25-1.18-1.83-1.07-1.9-1.26-1.17-3.26-1.07,1.84-1.26,1.91-3.26,1.18C170.62,103.68,170.69,103.88,170,105.88Z"/><path class="cls-2" d="M117.88,105.49c.65-1.59.8-1.67,2.49-1.31-1.6-.65-1.68-.8-1.31-2.49-.65,1.6-.81,1.68-2.49,1.32C118.17,103.66,118.25,103.81,117.88,105.49Z"/><path class="cls-2" d="M134.1,90.52c-1,1.21-1.21,1.24-2.59.41,1.21,1,1.24,1.21.41,2.59,1.06-1.21,1.21-1.24,2.59-.41C133.3,92.06,133.27,91.9,134.1,90.52Z"/><path class="cls-2" d="M121.44,72c1-.94,1.16-.95,2.27-.1-.94-1-.95-1.17-.1-2.28-1,1-1.17,1-2.27.11C122.28,70.71,122.29,70.85,121.44,72Z"/><path class="cls-2" d="M174.91,32.09c-1.51-2-1.5-2.2.16-4-1.95,1.52-2.2,1.51-4-.15,1.51,1.95,1.5,2.2-.16,4C172.84,30.42,173.09,30.43,174.91,32.09Z"/><circle class="cls-2" cx="132.58" cy="33.97" r="2.7" transform="translate(-0.47 1.88) rotate(-0.81)"/><path class="cls-2" d="M12.41,19c.28-1.81.42-1.92,2.24-1.95-1.8-.29-1.91-.43-1.94-2.25-.29,1.8-.43,1.92-2.25,1.95C12.26,17.07,12.38,17.21,12.41,19Z"/><path class="cls-2" d="M441.55,43.92c.15-2.43.32-2.61,2.74-2.88-2.44-.16-2.61-.32-2.89-2.75-.15,2.44-.31,2.61-2.74,2.89C441.1,41.33,441.27,41.5,441.55,43.92Z"/><path class="cls-2" d="M416.71,112.94c1.84-1.8,2.09-1.82,4.18-.32-1.8-1.84-1.81-2.1-.31-4.19-1.84,1.8-2.1,1.82-4.19.32C418.19,110.59,418.21,110.84,416.71,112.94Z"/><path class="cls-2" d="M370.32,152.63c-1.27-1.61-1.27-1.81.09-3.34-1.6,1.27-1.81,1.26-3.34-.09,1.27,1.6,1.27,1.8-.09,3.34C368.58,151.26,368.79,151.27,370.32,152.63Z"/><path class="cls-2" d="M313.05,150.72c.92-1.55,1.09-1.61,2.76-1-1.54-.92-1.6-1.09-1-2.77-.91,1.55-1.08,1.61-2.76,1C313.63,148.87,313.69,149,313.05,150.72Z"/><path class="cls-2" d="M321.15,115.61c.13-2.1.27-2.25,2.36-2.48-2.09-.13-2.25-.28-2.48-2.36-.13,2.09-.27,2.24-2.36,2.48C320.76,113.38,320.92,113.52,321.15,115.61Z"/><circle class="cls-2" cx="248.15" cy="70.75" r="2.96"/><path class="cls-2" d="M233.8,5.1c1.75-1.55,2-1.56,3.82-.09-1.55-1.76-1.56-2-.1-3.83-1.75,1.55-2,1.56-3.82.09C235.25,3,235.26,3.27,233.8,5.1Z"/><path class="cls-2" d="M206.72,4.34c.95-1.15,1.1-1.17,2.39-.44-1.15-.95-1.17-1.09-.44-2.39-.95,1.15-1.09,1.18-2.39.44C207.43,2.9,207.46,3.05,206.72,4.34Z"/><path class="cls-2" d="M343.85,373.59c1.49-1.8,1.72-1.84,3.76-.68-1.8-1.49-1.85-1.72-.68-3.76-1.5,1.8-1.73,1.85-3.76.68C345,371.33,345,371.56,343.85,373.59Z"/><path class="cls-2" d="M281.81,439.77c-1.88,1.15-2.09,1.12-3.55-.54,1.15,1.88,1.12,2.1-.53,3.56,1.87-1.15,2.09-1.12,3.54.53C280.13,441.44,280.16,441.23,281.81,439.77Z"/><path class="cls-2" d="M59,319.94c2.28-1.05,2.52-1,3.95,1.07-1-2.27-1-2.51,1.07-3.95-2.27,1.06-2.51,1-3.94-1.07C61.16,318.27,61.09,318.51,59,319.94Z"/><path class="cls-2" d="M18.86,234.68c-.21-1.42-.13-1.54,1.22-2-1.41.21-1.53.13-2-1.23.21,1.42.13,1.54-1.22,2C18.29,233.24,18.41,233.32,18.86,234.68Z"/></g></g></svg>