<svg xmlns="http://www.w3.org/2000/svg" xmlns:xlink="http://www.w3.org/1999/xlink" viewBox="0 0 252.34 341.5"><defs><style>.cls-1{fill:url(#Dégradé_sans_nom_210);}.cls-2{fill:url(#Dégradé_sans_nom_215);}.cls-3{fill:#fff;opacity:0.33;}.cls-4{fill:url(#Dégradé_sans_nom_210-2);}.cls-5{fill:url(#Dégradé_sans_nom_215-2);}</style><linearGradient id="Dégradé_sans_nom_210" x1="170.32" y1="-115.29" x2="-65.57" y2="234.32" gradientUnits="userSpaceOnUse"><stop offset="0" stop-color="#6b33f7"/><stop offset="0.09" stop-color="#6932f2" stop-opacity="0.97"/><stop offset="0.22" stop-color="#632ee5" stop-opacity="0.9"/><stop offset="0.37" stop-color="#5929ce" stop-opacity="0.78"/><stop offset="0.53" stop-color="#4b21af" stop-opacity="0.62"/><stop offset="0.71" stop-color="#391787" stop-opacity="0.41"/><stop offset="0.9" stop-color="#240a57" stop-opacity="0.16"/><stop offset="1" stop-color="#170339" stop-opacity="0"/></linearGradient><linearGradient id="Dégradé_sans_nom_215" x1="334.38" y1="-392.05" x2="246.02" y2="-261.1" gradientTransform="translate(48.32 695.34) rotate(-30)" gradientUnits="userSpaceOnUse"><stop offset="0" stop-color="#6b81f7"/><stop offset="0.09" stop-color="#697ef2" stop-opacity="0.97"/><stop offset="0.22" stop-color="#6375e5" stop-opacity="0.9"/><stop offset="0.37" stop-color="#5966ce" stop-opacity="0.78"/><stop offset="0.53" stop-color="#4b51af" stop-opacity="0.62"/><stop offset="0.71" stop-color="#393787" stop-opacity="0.41"/><stop offset="0.9" stop-color="#241757" stop-opacity="0.16"/><stop offset="1" stop-color="#170339" stop-opacity="0"/></linearGradient><linearGradient id="Dégradé_sans_nom_210-2" x1="171.13" y1="-115.29" x2="-64.76" y2="234.32" xlink:href="#Dégradé_sans_nom_210"/><linearGradient id="Dégradé_sans_nom_215-2" x1="335.08" y1="-391.64" x2="246.73" y2="-260.69" xlink:href="#Dégradé_sans_nom_215"/></defs><g id="Calque_5" data-name="Calque 5"><circle class="cls-1" cx="46.5" cy="68.23" r="143.23"/><circle class="cls-2" cx="136.08" cy="271.35" r="53.64"/><path class="cls-3" d="M233.64,127c.2-.57.41-1.13.61-1.7A319,319,0,0,0,251.14,5.79c-.08-1.72-.19-3.44-.3-5.16l-.09-1.56A318.65,318.65,0,0,0,225.5-105.82c-.21-.49-.41-1-.63-1.47q-1-2.31-2.06-4.61c-.46-1-.92-2-1.39-3s-.95-2-1.43-3q-1.1-2.3-2.23-4.57l-.71-1.39a318.67,318.67,0,0,0-64.71-86.91c-.48-.47-1-.92-1.46-1.38-1.23-1.15-2.45-2.3-3.69-3.43s-2.5-2.26-3.75-3.37l-1.51-1.33a318.81,318.81,0,0,0-92.38-56.63l-1.45-.58q-2.37-.93-4.76-1.81c-1-.39-2.06-.78-3.1-1.15s-2.09-.75-3.14-1.11c-1.59-.56-3.18-1.12-4.78-1.65l-1.52-.49A318.38,318.38,0,0,0-76.44-299.41c-.63,0-1.25,0-1.88.06-1.7.05-3.41.1-5.12.18s-3.41.18-5.12.28l-1.86.11a318.46,318.46,0,0,0-105.4,25.28l-1.47.63q-2.31,1-4.61,2.06c-1,.46-2,.92-3,1.39l-3,1.43q-2.29,1.1-4.57,2.23l-1.39.71a318.42,318.42,0,0,0-86.91,64.71c-.47.48-.92,1-1.39,1.47-1.15,1.22-2.29,2.44-3.42,3.68s-2.26,2.5-3.37,3.75c-.45.51-.89,1-1.33,1.51a318.43,318.43,0,0,0-56.63,92.39l-.58,1.44q-.93,2.37-1.81,4.76c-.39,1-.78,2.06-1.15,3.09s-.75,2.1-1.12,3.15c-.55,1.59-1.11,3.18-1.64,4.78-.17.5-.33,1-.49,1.52A318.35,318.35,0,0,0-389.41,28.44c0,.63,0,1.25.06,1.88.05,1.71.1,3.41.18,5.12s.18,3.41.28,5.12c0,.62.07,1.24.11,1.86a318.46,318.46,0,0,0,25.28,105.4c.21.49.41,1,.63,1.47q1,2.31,2.06,4.62c.46,1,.92,2,1.39,3s.95,2,1.43,3q1.1,2.29,2.23,4.57l.71,1.39a318.79,318.79,0,0,0,64.7,86.91l1.48,1.39c1.22,1.15,2.44,2.29,3.68,3.42s2.5,2.26,3.75,3.37l1.51,1.33a318.51,318.51,0,0,0,92.38,56.63l1.45.58q2.37.93,4.76,1.81c1,.39,2.06.78,3.09,1.15l3.15,1.12c1.59.55,3.18,1.11,4.78,1.64l1.52.49A318.53,318.53,0,0,0-60.48,341.38l3.36-.1,2.2-.09A318.92,318.92,0,0,0,60.15,314.5l1-.43c1.17-.52,2.33-1,3.48-1.57,1-.44,2-.9,2.92-1.35l1.5-.71A316.55,316.55,0,0,0,121.31,279c-.33-.24-.65-.5-1-.78q-11.55,8.53-23.89,16l0,0a317.92,317.92,0,0,1-67.69,31l-.4.13c-1.47.47-2.95.93-4.43,1.38l-1.66.5-3.23.95-3,.83-2,.54-4.28,1.12-.73.18a319.75,319.75,0,0,1-49.3,8.36c-2.65.24-5.29.44-7.92.62l-.82.05c-2.17.13-4.32.24-6.48.33l-1.75.08q-3.24.12-6.46.17l-3.76,0h-2.41c-2.27,0-4.53,0-6.79-.09l-1.09,0q-3.65-.11-7.28-.28l-.74,0c-2.47-.13-4.92-.28-7.37-.47l-.77,0q-3.57-.29-7.12-.64l-1.08-.11c-2.21-.22-4.41-.48-6.6-.75l-1.64-.21c-2-.25-3.92-.53-5.87-.82l-2.37-.36c-1.67-.26-3.32-.54-5-.83-1.09-.18-2.17-.37-3.25-.57-1.33-.24-2.64-.5-4-.76l-4.21-.85c-1-.2-1.91-.42-2.87-.63-1.75-.38-3.5-.78-5.23-1.19l-1.74-.43c-2.1-.51-4.2-1-6.28-1.6l-.6-.16a320.38,320.38,0,0,1-121.7-63.24l-.94-.8c-1.56-1.31-3.1-2.62-4.64-4-.71-.62-1.41-1.26-2.12-1.89-1.12-1-2.23-2-3.34-3s-2.19-2-3.27-3.05c-.7-.65-1.39-1.29-2.08-1.95-1.47-1.4-2.92-2.83-4.36-4.26-.29-.29-.59-.57-.88-.87a320.3,320.3,0,0,1-73.94-115.51c-.07-.19-.14-.39-.22-.58-.74-2-1.45-4.07-2.15-6.12-.2-.56-.39-1.12-.58-1.68q-.86-2.55-1.66-5.11c-.3-.93-.6-1.86-.88-2.8-.42-1.37-.83-2.74-1.23-4.12s-.75-2.57-1.11-3.87c-.3-1.06-.58-2.12-.87-3.18-.43-1.62-.86-3.25-1.27-4.88l-.57-2.33c-.46-1.92-.92-3.84-1.35-5.77-.12-.54-.23-1.08-.35-1.61q-.7-3.24-1.35-6.51c-.07-.36-.13-.71-.2-1.07-.45-2.33-.88-4.68-1.28-7l-.12-.76q-.6-3.63-1.13-7.29c0-.25-.07-.5-.1-.75-.34-2.4-.65-4.8-.94-7.22l-.12-1.08q-.39-3.37-.7-6.76c-.05-.62-.11-1.24-.16-1.86-.17-1.93-.32-3.87-.45-5.8-.07-1-.14-2-.2-3.07-.09-1.49-.16-3-.23-4.47s-.13-3-.17-4.48c0-1-.06-2-.08-3.06,0-1.94-.07-3.88-.08-5.82V20.16c0-2.27,0-4.53.09-6.79,0-.36,0-.73,0-1.09q.11-3.64.28-7.28c0-.25,0-.5,0-.74.13-2.47.28-4.92.47-7.37,0-.26,0-.51,0-.77q.29-3.57.64-7.12c0-.36.07-.72.11-1.08.22-2.21.48-4.41.75-6.6l.21-1.64c.25-2,.53-3.92.82-5.87l.36-2.37c.26-1.67.54-3.32.83-5,.18-1.09.37-2.17.57-3.25.24-1.33.5-2.64.76-4s.56-2.81.85-4.21c.2-1,.42-1.91.63-2.87.38-1.75.78-3.5,1.19-5.23.14-.58.29-1.16.43-1.74.51-2.1,1-4.2,1.6-6.28.05-.2.1-.4.16-.6a320.38,320.38,0,0,1,63.24-121.7l.8-.94c1.31-1.56,2.62-3.1,4-4.63.62-.72,1.26-1.43,1.89-2.14,1-1.11,2-2.23,3-3.33s2-2.19,3.05-3.27c.65-.7,1.29-1.39,1.95-2.08,1.4-1.47,2.83-2.92,4.26-4.36.29-.29.57-.59.87-.88a320.3,320.3,0,0,1,115.51-73.94l.58-.22c2-.74,4.07-1.45,6.12-2.15l1.68-.58q2.55-.86,5.11-1.66c.93-.3,1.86-.6,2.8-.88,1.37-.42,2.74-.83,4.12-1.23s2.57-.75,3.87-1.11l3.18-.87c1.62-.43,3.25-.86,4.88-1.27l2.33-.57c1.92-.46,3.84-.92,5.77-1.35l1.61-.35q3.24-.7,6.51-1.35l1.07-.2c2.33-.45,4.68-.88,7-1.28l.76-.12q3.63-.6,7.29-1.13l.75-.1c2.4-.34,4.8-.65,7.22-.94l1.08-.12q3.38-.39,6.76-.7l1.86-.16c1.93-.17,3.87-.32,5.8-.45l3.07-.2c1.49-.09,3-.16,4.47-.23s3-.13,4.48-.17l3.06-.08c1.94,0,3.88-.07,5.82-.08h1.87c2.27,0,4.53,0,6.79.09l1.09,0q3.64.11,7.28.28l.74,0c2.47.13,4.92.28,7.37.47l.77,0q3.57.29,7.12.64l1.08.11c2.21.22,4.41.48,6.6.75l1.64.21c2,.25,3.92.53,5.87.82l2.37.36c1.67.26,3.32.54,5,.83,1.09.18,2.17.37,3.25.57,1.33.24,2.64.5,4,.76l4.21.85c1,.2,1.91.42,2.87.63,1.75.38,3.5.78,5.23,1.19l1.74.43c2.1.51,4.2,1,6.28,1.6l.6.16a320.38,320.38,0,0,1,121.7,63.24l.94.8c1.56,1.31,3.1,2.62,4.63,4,.72.62,1.43,1.26,2.14,1.89,1.11,1,2.23,2,3.33,3s2.19,2,3.27,3.05c.7.65,1.39,1.29,2.08,1.95,1.47,1.4,2.92,2.83,4.36,4.26.29.29.59.57.88.87A320.3,320.3,0,0,1,230.94-89.11c.07.19.14.39.22.58.74,2,1.45,4.07,2.15,6.12.2.56.39,1.12.58,1.68q.86,2.55,1.66,5.11c.3.93.6,1.86.88,2.8.42,1.37.83,2.74,1.23,4.12s.75,2.57,1.11,3.87c.3,1.06.58,2.12.87,3.18.43,1.62.86,3.25,1.27,4.88l.57,2.33c.46,1.92.92,3.84,1.35,5.77.12.54.23,1.08.35,1.61q.7,3.24,1.35,6.51c.07.36.13.71.2,1.07.45,2.33.88,4.68,1.28,7l.12.76q.6,3.63,1.13,7.29c0,.25.07.5.1.75.34,2.4.65,4.8.94,7.22l.12,1.08q.39,3.38.7,6.76c.06.66.12,1.33.17,2,.15,1.69.29,3.38.4,5.07.08,1.13.15,2.27.22,3.4s.15,2.56.22,3.84c.09,1.89.16,3.78.21,5.68,0,.56,0,1.13.06,1.69.06,2.64.1,5.27.1,7.92a319.81,319.81,0,0,1-5.19,57.52c-.27,1.45-.55,2.9-.84,4.34-.16.78-.3,1.57-.46,2.35a319.14,319.14,0,0,1-51.93,119.7l0,0q-8.32,11.76-17.63,22.73c.24.33.47.65.69,1a318.19,318.19,0,0,0,56.89-97.21Q232.86,129.2,233.64,127Z"/><circle class="cls-4" cx="47.31" cy="68.23" r="143.23"/><circle class="cls-5" cx="136.89" cy="271.35" r="53.64"/><path class="cls-3" d="M234.46,127l.6-1.7A318.84,318.84,0,0,0,252,5.79c-.08-1.72-.19-3.44-.29-5.16,0-.52-.06-1-.1-1.56a318.64,318.64,0,0,0-25.24-104.89l-.63-1.47q-1-2.31-2.07-4.61c-.46-1-.92-2-1.39-3s-.95-2-1.43-3q-1.1-2.3-2.23-4.57l-.71-1.39a318.26,318.26,0,0,0-64.71-86.91c-.48-.47-1-.92-1.46-1.38-1.22-1.15-2.45-2.3-3.69-3.43s-2.49-2.26-3.75-3.37l-1.51-1.33a318.81,318.81,0,0,0-92.38-56.63l-1.45-.58q-2.37-.93-4.75-1.81c-1-.39-2.07-.78-3.1-1.15s-2.1-.75-3.15-1.11c-1.59-.56-3.18-1.12-4.78-1.65l-1.51-.49A318.44,318.44,0,0,0-75.63-299.41l-1.87.06c-1.71.05-3.42.1-5.12.18s-3.42.18-5.13.28l-1.86.11A318.52,318.52,0,0,0-195-273.5l-1.47.63q-2.31,1-4.61,2.06l-3,1.39-3,1.43c-1.53.73-3.06,1.47-4.57,2.23l-1.4.71A318.57,318.57,0,0,0-300-200.34l-1.38,1.47c-1.15,1.22-2.3,2.44-3.43,3.68s-2.25,2.5-3.37,3.75c-.44.51-.89,1-1.33,1.51a318.86,318.86,0,0,0-56.63,92.39l-.58,1.44q-.93,2.37-1.81,4.76c-.39,1-.77,2.06-1.15,3.09s-.74,2.1-1.11,3.15q-.84,2.38-1.64,4.78c-.17.5-.33,1-.5,1.52A318.85,318.85,0,0,0-388.6,28.44l.06,1.88c.05,1.71.11,3.41.19,5.12s.17,3.41.27,5.12c0,.62.07,1.24.11,1.86a318.71,318.71,0,0,0,25.28,105.4l.63,1.47c.67,1.54,1.37,3.08,2.07,4.62.46,1,.91,2,1.38,3s.95,2,1.43,3c.74,1.53,1.47,3.05,2.23,4.57l.71,1.39a318.82,318.82,0,0,0,64.71,86.91l1.48,1.39c1.21,1.15,2.44,2.29,3.67,3.42s2.5,2.26,3.76,3.37l1.5,1.33a318.43,318.43,0,0,0,92.39,56.63l1.44.58c1.59.62,3.17,1.22,4.77,1.81,1,.39,2.05.78,3.08,1.15l3.16,1.12c1.59.55,3.17,1.11,4.77,1.64l1.52.49A318.58,318.58,0,0,0-59.66,341.38l3.35-.1,2.21-.09A318.87,318.87,0,0,0,61,314.5l1-.43,3.48-1.57,2.91-1.35,1.5-.71A316.55,316.55,0,0,0,122.12,279c-.32-.24-.65-.5-1-.78q-11.54,8.53-23.89,16l0,0a318.06,318.06,0,0,1-67.68,31l-.4.13-4.44,1.38-1.66.5-3.22.95-3,.83-2,.54-4.27,1.12-.74.18a319.55,319.55,0,0,1-49.3,8.36c-2.64.24-5.28.44-7.92.62l-.82.05q-3.24.19-6.48.33l-1.75.08c-2.15.08-4.31.14-6.46.17l-3.75,0H-69c-2.26,0-4.53,0-6.79-.09l-1.09,0q-3.65-.11-7.28-.28l-.74,0c-2.46-.13-4.92-.28-7.37-.47l-.77,0q-3.57-.29-7.11-.64l-1.09-.11c-2.21-.22-4.41-.48-6.6-.75l-1.64-.21c-2-.25-3.92-.53-5.87-.82l-2.37-.36c-1.66-.26-3.32-.54-5-.83-1.08-.18-2.17-.37-3.25-.57-1.32-.24-2.64-.5-4-.76l-4.21-.85c-1-.2-1.91-.42-2.86-.63q-2.62-.57-5.24-1.19l-1.73-.43c-2.11-.51-4.2-1-6.29-1.6l-.59-.16a320.42,320.42,0,0,1-121.71-63.24l-.94-.8c-1.55-1.31-3.1-2.62-4.63-4-.72-.62-1.42-1.26-2.13-1.89-1.12-1-2.23-2-3.33-3s-2.19-2-3.28-3.05c-.69-.65-1.39-1.29-2.08-1.95-1.46-1.4-2.91-2.83-4.35-4.26-.3-.29-.59-.57-.88-.87a320.19,320.19,0,0,1-73.95-115.51l-.21-.58q-1.11-3-2.16-6.12l-.58-1.68q-.85-2.55-1.66-5.11c-.3-.93-.59-1.86-.88-2.8-.42-1.37-.83-2.74-1.23-4.12s-.75-2.57-1.11-3.87c-.3-1.06-.58-2.12-.86-3.18q-.66-2.43-1.28-4.88l-.57-2.33q-.69-2.88-1.34-5.77l-.36-1.61q-.7-3.24-1.34-6.51l-.21-1.07c-.45-2.33-.87-4.68-1.27-7,0-.26-.09-.51-.13-.76q-.6-3.63-1.13-7.29c0-.25-.07-.5-.1-.75-.34-2.4-.65-4.8-.93-7.22,0-.36-.09-.72-.13-1.08q-.37-3.37-.69-6.76c-.06-.62-.12-1.24-.17-1.86-.17-1.93-.32-3.87-.45-5.8-.07-1-.13-2-.19-3.07q-.13-2.23-.24-4.47c-.06-1.49-.12-3-.17-4.48,0-1-.06-2-.08-3.06,0-1.94-.07-3.88-.07-5.82,0-.63,0-1.25,0-1.87q0-3.4.09-6.79l0-1.09q.09-3.64.27-7.28c0-.25,0-.5,0-.74.13-2.47.29-4.92.47-7.37l.06-.77q.27-3.57.63-7.12c0-.36.07-.72.11-1.08q.35-3.31.76-6.6c.06-.55.13-1.1.2-1.64q.39-2.94.82-5.87l.36-2.37c.26-1.67.54-3.32.83-5,.19-1.09.37-2.17.57-3.25.24-1.33.5-2.64.76-4s.56-2.81.85-4.21l.63-2.87c.39-1.75.78-3.5,1.2-5.23.13-.58.28-1.16.42-1.74.51-2.1,1-4.2,1.6-6.28.05-.2.11-.4.16-.6a320.26,320.26,0,0,1,63.25-121.7c.26-.32.53-.63.79-.94q2-2.34,4-4.63l1.89-2.14c1-1.11,2-2.23,3-3.33s2-2.19,3.05-3.27l1.95-2.08q2.12-2.2,4.26-4.36l.87-.88A320.38,320.38,0,0,1-178.3-278.94l.58-.22c2-.74,4.07-1.45,6.12-2.15l1.68-.58c1.7-.57,3.41-1.12,5.11-1.66.93-.3,1.86-.6,2.8-.88,1.37-.42,2.75-.83,4.12-1.23s2.58-.75,3.87-1.11l3.18-.87c1.63-.43,3.25-.86,4.88-1.27l2.33-.57c1.92-.46,3.84-.92,5.77-1.35l1.62-.35q3.24-.7,6.5-1.35l1.07-.2c2.34-.45,4.68-.88,7-1.28l.75-.12q3.64-.6,7.3-1.13l.74-.1q3.6-.51,7.22-.94l1.09-.12c2.24-.26,4.5-.49,6.76-.7l1.85-.16q2.91-.25,5.8-.45l3.07-.2c1.49-.09,3-.16,4.47-.23s3-.13,4.48-.17l3.07-.08c1.93,0,3.87-.07,5.82-.08h1.86c2.27,0,4.53,0,6.79.09l1.09,0c2.44.07,4.86.16,7.28.28l.75,0c2.46.13,4.92.28,7.37.47l.76,0c2.38.19,4.76.4,7.12.64l1.09.11c2.2.22,4.4.48,6.6.75l1.63.21c2,.25,3.92.53,5.87.82l2.38.36c1.66.26,3.31.54,5,.83,1.08.18,2.17.37,3.25.57,1.32.24,2.64.5,4,.76l4.22.85L.63-291q2.63.57,5.24,1.19l1.73.43c2.1.51,4.2,1,6.28,1.6l.6.16a320.3,320.3,0,0,1,121.7,63.24l.94.8c1.56,1.31,3.11,2.62,4.64,4l2.13,1.89c1.11,1,2.23,2,3.33,3s2.19,2,3.28,3.05c.69.65,1.39,1.29,2.07,1.95,1.47,1.4,2.92,2.83,4.36,4.26.29.29.59.57.88.87A320.16,320.16,0,0,1,231.75-89.11l.22.58c.74,2,1.45,4.07,2.16,6.12l.57,1.68c.57,1.7,1.12,3.4,1.67,5.11.29.93.59,1.86.88,2.8.42,1.37.82,2.74,1.23,4.12s.75,2.57,1.11,3.87c.29,1.06.58,2.12.86,3.18.43,1.62.86,3.25,1.27,4.88.2.78.38,1.55.57,2.33q.71,2.88,1.35,5.77c.12.54.24,1.08.35,1.61q.7,3.24,1.35,6.51l.21,1.07c.44,2.33.87,4.68,1.27,7l.12.76c.41,2.42.78,4.85,1.13,7.29,0,.25.07.5.11.75.33,2.4.65,4.8.93,7.22l.12,1.08q.39,3.38.7,6.76l.18,2c.14,1.69.28,3.38.4,5.07.08,1.13.15,2.27.21,3.4s.16,2.56.22,3.84c.09,1.89.16,3.78.22,5.68,0,.56,0,1.13.05,1.69.07,2.64.1,5.27.1,7.92a319.81,319.81,0,0,1-5.19,57.52c-.26,1.45-.55,2.9-.84,4.34-.15.78-.3,1.57-.46,2.35a319.14,319.14,0,0,1-51.93,119.7l0,0q-8.31,11.76-17.63,22.73c.24.33.47.65.69,1a318,318,0,0,0,56.89-97.21C233.41,130,233.93,128.45,234.46,127Z"/></g></svg>