<svg xmlns="http://www.w3.org/2000/svg" xmlns:xlink="http://www.w3.org/1999/xlink" viewBox="0 0 646.21 276.86"><defs><style>.cls-1{fill:url(#Dégradé_sans_nom_215);}.cls-2{fill:url(#Dégradé_sans_nom_210);}.cls-3{fill:#fff;opacity:0.33;}</style><linearGradient id="Dégradé_sans_nom_215" x1="20.88" y1="-205.24" x2="-67.47" y2="-74.29" gradientTransform="translate(-84.79 150.47) rotate(105)" gradientUnits="userSpaceOnUse"><stop offset="0" stop-color="#6b81f7"/><stop offset="0.09" stop-color="#697ef2" stop-opacity="0.97"/><stop offset="0.22" stop-color="#6375e5" stop-opacity="0.9"/><stop offset="0.37" stop-color="#5966ce" stop-opacity="0.78"/><stop offset="0.53" stop-color="#4b51af" stop-opacity="0.62"/><stop offset="0.71" stop-color="#393787" stop-opacity="0.41"/><stop offset="0.9" stop-color="#241757" stop-opacity="0.16"/><stop offset="1" stop-color="#170339" stop-opacity="0"/></linearGradient><linearGradient id="Dégradé_sans_nom_210" x1="615" y1="89.95" x2="379.11" y2="439.56" gradientTransform="matrix(-0.71, -0.71, -0.71, 0.71, 801.31, 428.46)" gradientUnits="userSpaceOnUse"><stop offset="0" stop-color="#6b33f7"/><stop offset="0.09" stop-color="#6932f2" stop-opacity="0.97"/><stop offset="0.22" stop-color="#632ee5" stop-opacity="0.9"/><stop offset="0.37" stop-color="#5929ce" stop-opacity="0.78"/><stop offset="0.53" stop-color="#4b21af" stop-opacity="0.62"/><stop offset="0.71" stop-color="#391787" stop-opacity="0.41"/><stop offset="0.9" stop-color="#240a57" stop-opacity="0.16"/><stop offset="1" stop-color="#170339" stop-opacity="0"/></linearGradient></defs><g id="Calque_5" data-name="Calque 5"><circle class="cls-1" cx="53.66" cy="161.17" r="53.64"/><circle class="cls-2" cx="260.63" cy="274.5" r="143.23"/><path class="cls-3" d="M5.07,318.92c0,.6-.05,1.2-.06,1.8a318.77,318.77,0,0,0,19.78,119c.59,1.62,1.22,3.22,1.83,4.83l.56,1.46a318.7,318.7,0,0,0,55.6,92.46l1,1.21q1.67,1.9,3.36,3.78c.74.83,1.48,1.65,2.23,2.47l2.26,2.42c1.16,1.24,2.32,2.47,3.5,3.69l1.1,1.12a318.62,318.62,0,0,0,87.83,63.44l1.82.88c1.51.73,3,1.46,4.55,2.16s3.05,1.4,4.58,2.09l1.84.82A318.72,318.72,0,0,0,302,648.82l1.56.11q2.54.18,5.07.3l3.31.17c1.11.05,2.22.08,3.33.12,1.68.05,3.37.1,5,.13h1.6a318.6,318.6,0,0,0,107-17.26l1.77-.62c1.61-.56,3.22-1.12,4.83-1.71s3.21-1.19,4.8-1.8l1.75-.67A318.77,318.77,0,0,0,535,571.82l1.21-1q1.9-1.66,3.78-3.36c.83-.74,1.65-1.48,2.47-2.24s1.62-1.5,2.42-2.25c1.24-1.16,2.47-2.32,3.69-3.5l1.11-1.1a318.45,318.45,0,0,0,63.45-87.83c.3-.61.59-1.22.88-1.82.73-1.51,1.46-3,2.16-4.55s1.4-3.05,2.09-4.59l.82-1.83a318.78,318.78,0,0,0,26.25-105.13l.12-1.56c.11-1.69.21-3.39.3-5.08.06-1.1.12-2.2.16-3.3s.08-2.22.12-3.33c.05-1.69.1-3.37.13-5.05,0-.54,0-1.07,0-1.6a318.35,318.35,0,0,0-17.26-107c-.2-.59-.41-1.19-.62-1.78-.56-1.61-1.12-3.22-1.71-4.82s-1.19-3.21-1.8-4.8c-.23-.59-.44-1.17-.67-1.75a318.51,318.51,0,0,0-55.78-92.93l-1-1.21q-1.66-1.91-3.36-3.79c-.74-.82-1.48-1.65-2.23-2.46s-1.51-1.62-2.26-2.42c-1.16-1.24-2.32-2.47-3.5-3.69l-1.1-1.12A318.62,318.62,0,0,0,467,41.45l-1.83-.89q-2.25-1.1-4.53-2.15t-4.59-2.09l-1.84-.82A318.78,318.78,0,0,0,349.11,9.25l-1.56-.12c-1.69-.11-3.39-.21-5.08-.3-1.1-.06-2.2-.12-3.29-.16l-3.34-.12c-1.69-.05-3.37-.1-5-.13l-1.6,0A319,319,0,0,0,221.17,26L218,27.12l-2.08.76a318.78,318.78,0,0,0-101.73,60l-.8.71c-1,.84-1.9,1.68-2.85,2.54l-2.37,2.17L107,94.45a316.51,316.51,0,0,0-40.43,45.66c.38.14.77.29,1.15.45q8.46-11.59,18-22.46l0,0a318.07,318.07,0,0,1,55.26-49.87l.34-.24c1.26-.9,2.54-1.78,3.81-2.66l1.44-1,2.79-1.87q1.29-.85,2.58-1.68l1.72-1.12q1.86-1.18,3.75-2.35L158,57a321.71,321.71,0,0,1,44.51-22.78c2.45-1,4.91-2,7.37-3l.77-.29c2-.78,4.05-1.54,6.07-2.27l1.65-.6c2-.73,4.07-1.42,6.11-2.11l3.57-1.16,2.3-.72q3.25-1,6.51-2l1-.3c2.34-.67,4.69-1.31,7-1.93l.72-.19q3.59-.91,7.17-1.76l.75-.18q3.48-.81,7-1.53l1.07-.23c2.17-.44,4.35-.86,6.52-1.26l1.62-.29c2-.35,3.9-.67,5.85-1l2.37-.37c1.66-.25,3.33-.48,5-.71l3.27-.43,4-.46c1.43-.16,2.85-.32,4.28-.45,1-.1,1.94-.18,2.92-.27,1.78-.16,3.57-.31,5.35-.43l1.78-.12c2.16-.14,4.32-.27,6.47-.36l.62,0A320.18,320.18,0,0,1,446.75,33.58c.39.15.76.32,1.14.47,1.88.78,3.75,1.57,5.61,2.39l2.6,1.16c1.36.61,2.72,1.22,4.08,1.85s2.69,1.28,4,1.92l2.57,1.24q2.73,1.35,5.43,2.75l1.1.57a320.35,320.35,0,0,1,105.24,87.95c.12.17.25.33.38.49q2,2.58,3.89,5.19l1.06,1.43q1.58,2.17,3.12,4.38c.56.79,1.13,1.59,1.68,2.4.81,1.18,1.61,2.37,2.41,3.56s1.49,2.23,2.23,3.36l1.77,2.77c.91,1.42,1.8,2.84,2.68,4.28l1.25,2q1.53,2.53,3,5.1c.27.48.54,1,.82,1.44,1.09,1.92,2.18,3.85,3.24,5.8l.51,1c1.13,2.09,2.25,4.2,3.33,6.32l.35.69q1.66,3.28,3.27,6.61c.11.23.21.46.32.68q1.56,3.28,3.06,6.61c.15.33.3.67.44,1q1.38,3.09,2.7,6.23c.24.58.48,1.15.71,1.72.75,1.8,1.47,3.6,2.18,5.4l1.11,2.87c.53,1.39,1,2.79,1.56,4.19s1,2.81,1.51,4.22c.34,1,.67,1.94,1,2.9q.93,2.76,1.82,5.53c.19.6.38,1.19.56,1.78.68,2.17,1.33,4.33,2,6.5l.3,1c.67,2.34,1.31,4.69,1.93,7l.18.72q.93,3.59,1.77,7.17l.18.75q.81,3.48,1.53,7c.08.35.15.71.22,1.07q.67,3.25,1.27,6.52c.09.54.2,1.08.29,1.62.35,1.95.67,3.9,1,5.85.12.79.25,1.58.37,2.37.25,1.66.48,3.32.71,5,.14,1.09.29,2.18.43,3.27.16,1.33.31,2.67.46,4s.31,2.85.45,4.28c.1,1,.18,1.94.27,2.92.15,1.78.3,3.57.43,5.35l.12,1.78q.21,3.24.36,6.47l0,.62A320.36,320.36,0,0,1,621,450.22c-.15.38-.32.76-.48,1.14-.77,1.88-1.57,3.75-2.38,5.61-.38.87-.77,1.73-1.16,2.6-.61,1.36-1.22,2.72-1.85,4.08s-1.28,2.69-1.93,4c-.41.85-.82,1.71-1.24,2.56-.89,1.83-1.81,3.64-2.74,5.44l-.57,1.1a320.26,320.26,0,0,1-88,105.24l-.49.38q-2.57,2-5.18,3.89l-1.43,1.06q-2.18,1.57-4.38,3.12l-2.4,1.68c-1.18.81-2.37,1.61-3.56,2.41s-2.23,1.49-3.36,2.22l-2.77,1.78c-1.42.9-2.84,1.8-4.28,2.68l-2.05,1.24q-2.52,1.53-5.1,3l-1.43.83c-1.92,1.09-3.85,2.18-5.8,3.24l-1,.51q-3.13,1.7-6.32,3.33l-.69.35c-2.19,1.11-4.39,2.2-6.62,3.27l-.68.32q-3.27,1.56-6.6,3.06l-1,.44q-3.09,1.38-6.24,2.7l-1.71.71c-1.8.75-3.6,1.47-5.41,2.18l-2.86,1.1c-1.4.54-2.8,1.06-4.2,1.57s-2.8,1-4.21,1.51l-2.91,1q-2.74.93-5.53,1.82l-1.77.56q-3.25,1-6.51,2l-1,.3q-3.53,1-7,1.92l-.72.19q-3.59.93-7.17,1.77l-.75.18c-2.33.54-4.65,1-7,1.53l-1.07.22c-2.17.45-4.35.87-6.52,1.26l-1.62.3c-1.95.35-3.9.67-5.85,1l-2.37.37c-1.66.25-3.33.48-5,.71l-3.27.42c-1.33.17-2.67.32-4,.47s-2.85.31-4.28.45c-1,.1-1.94.18-2.92.27-1.78.15-3.57.3-5.35.43l-1.78.12q-3.24.21-6.48.36l-.61,0a320.4,320.4,0,0,1-135.09-23.75l-1.13-.48c-1.88-.77-3.75-1.57-5.61-2.38l-2.6-1.16c-1.36-.61-2.73-1.22-4.08-1.85s-2.69-1.28-4-1.93l-2.57-1.24q-2.73-1.34-5.43-2.75l-1.1-.56a320.26,320.26,0,0,1-105.24-88l-.38-.49c-1.32-1.71-2.61-3.44-3.89-5.18l-1.06-1.43q-1.58-2.18-3.12-4.38c-.56-.8-1.13-1.6-1.68-2.4-.81-1.18-1.61-2.37-2.41-3.56s-1.49-2.23-2.23-3.36L56,500.61c-.91-1.42-1.8-2.84-2.68-4.28l-1.25-2.05c-1-1.69-2-3.38-3-5.1l-.82-1.43Q46.61,484.87,45,482c-.17-.32-.34-.64-.52-1-1.12-2.09-2.24-4.2-3.32-6.33-.12-.22-.23-.45-.35-.68-1.11-2.19-2.2-4.39-3.27-6.62-.11-.22-.22-.45-.32-.68-1-2.18-2.06-4.39-3.06-6.6l-.45-1Q32.37,456,31,452.84c-.26-.61-.51-1.23-.77-1.84q-1-2.36-1.9-4.72-.63-1.57-1.23-3.18c-.46-1.19-.92-2.39-1.36-3.59-.65-1.77-1.29-3.56-1.91-5.35l-.57-1.6Q22,428.83,20.83,425A319.42,319.42,0,0,1,8.5,368.62c-.19-1.47-.34-2.93-.51-4.4-.08-.79-.18-1.58-.27-2.38A319.27,319.27,0,0,1,21.29,232.07h0q4.39-13.71,10-27c-.33-.24-.65-.48-1-.73a318.29,318.29,0,0,0-25,109.8C5.17,315.74,5.12,317.33,5.07,318.92Z"/></g></svg>