<svg xmlns="http://www.w3.org/2000/svg" xmlns:xlink="http://www.w3.org/1999/xlink" viewBox="0 0 267.93 356.42"><defs><style>.cls-1{fill:#fff;}.cls-2{fill:#0e0033;}.cls-3{fill:#9e3597;}.cls-4{fill:url(#Dégradé_sans_nom_268);}.cls-5{fill:url(#Dégradé_sans_nom_248);}.cls-6{fill:#a885ff;}.cls-6,.cls-7{opacity:0.38;}.cls-7{fill:#003;}.cls-8{fill:url(#Dégradé_sans_nom_268-2);}.cls-9{fill:url(#Dégradé_sans_nom_319);}</style><linearGradient id="Dégradé_sans_nom_268" x1="512.49" y1="-1790.32" x2="471.03" y2="-1790.32" gradientTransform="translate(-342.95 2028.86)" gradientUnits="userSpaceOnUse"><stop offset="0" stop-color="#842b86"/><stop offset="0.17" stop-color="#77267d"/><stop offset="0.48" stop-color="#541964"/><stop offset="0.9" stop-color="#1c053d"/><stop offset="1" stop-color="#0e0033"/></linearGradient><linearGradient id="Dégradé_sans_nom_248" x1="470.33" y1="-1790.32" x2="526.24" y2="-1790.32" gradientTransform="translate(178.03 2096.77) rotate(-16.25)" gradientUnits="userSpaceOnUse"><stop offset="0" stop-color="#0e0033"/><stop offset="0.29" stop-color="#0e0036"/><stop offset="0.48" stop-color="#0f003f"/><stop offset="0.65" stop-color="#11004e"/><stop offset="0.8" stop-color="#130064"/><stop offset="0.95" stop-color="#17007f"/><stop offset="1" stop-color="#18008c"/></linearGradient><linearGradient id="Dégradé_sans_nom_268-2" x1="524.9" y1="-1932.04" x2="466.96" y2="-1932.04" gradientTransform="translate(178.03 2096.77) rotate(-16.25)" xlink:href="#Dégradé_sans_nom_268"/><linearGradient id="Dégradé_sans_nom_319" x1="524.9" y1="-1932.04" x2="466.96" y2="-1932.04" gradientTransform="translate(178.03 2096.77) rotate(-16.25)" gradientUnits="userSpaceOnUse"><stop offset="0" stop-color="#18008a"/><stop offset="0.07" stop-color="#160078"/><stop offset="0.19" stop-color="#13005f"/><stop offset="0.32" stop-color="#11004b"/><stop offset="0.47" stop-color="#0f003d"/><stop offset="0.66" stop-color="#0e0035"/><stop offset="1" stop-color="#0e0033"/></linearGradient></defs><g id="icones"><path class="cls-1" d="M149.4,280.43c-15.76,0-30.34-12.26-35.46-29.83-6.13-21,3.51-42.41,21.48-47.65l8.79-2.57a29.68,29.68,0,0,1,8.27-1.18c15.76,0,30.34,12.27,35.46,29.83a43.35,43.35,0,0,1-1.44,29.26c-4,9.27-11.13,15.8-20,18.4l-8.79,2.56a29.31,29.31,0,0,1-8.27,1.18Z"/><path class="cls-1" d="M152.48,205.2c12.77,0,25.25,10.25,29.7,25.51,5.21,17.89-2.58,35.9-17.4,40.22L156,273.49a23.33,23.33,0,0,1-6.59.94c-12.77,0-25.25-10.25-29.7-25.51-5.21-17.89,2.58-35.89,17.4-40.21l8.79-2.57a23.69,23.69,0,0,1,6.59-.94m0-12a35.61,35.61,0,0,0-9.95,1.42l-8.79,2.57c-10.51,3.06-19.2,11-23.87,21.77a49.38,49.38,0,0,0-1.69,33.32C114,272.39,131,286.43,149.4,286.43a35.61,35.61,0,0,0,9.95-1.42l8.79-2.56c10.5-3.06,19.2-11,23.87-21.78a49.37,49.37,0,0,0,1.69-33.32c-5.87-20.1-22.81-34.15-41.22-34.15Z"/><path class="cls-1" d="M126.23,199.32c-10.41,0-20-6.89-24-17.15L51.89,50.89a27.59,27.59,0,0,1,.91-22,24.32,24.32,0,0,1,15-12.78L98.7,7a22.77,22.77,0,0,1,2.69-.62c.46-.08.91-.15,1.37-.2A23.76,23.76,0,0,1,105.43,6a23.23,23.23,0,0,1,4,.34,23.57,23.57,0,0,1,2.56.58q.65.18,1.26.39a25.54,25.54,0,0,1,5.84,2.87,27.11,27.11,0,0,1,8.16,8.55,28,28,0,0,1,3.48,9l27.4,138a27.29,27.29,0,0,1-2.85,18.62,26.13,26.13,0,0,1-2.64,3.84,24.07,24.07,0,0,1-3.32,3.3,23.72,23.72,0,0,1-8.43,4.47L133,198.36l-.21,0a23.54,23.54,0,0,1-6.52.91Z"/><path class="cls-1" d="M105.43,12h0a18.53,18.53,0,0,1,3,.25,18,18,0,0,1,1.93.44c.32.09.64.19,1,.3a19.15,19.15,0,0,1,4.47,2.2,20.86,20.86,0,0,1,6.33,6.64,21.91,21.91,0,0,1,2.74,7.09l27.39,138a21.2,21.2,0,0,1-2.2,14.52,19.65,19.65,0,0,1-2,2.94,18.35,18.35,0,0,1-8.83,5.85h-.05l-7.88,2.32,0,0h0a17.79,17.79,0,0,1-5,.71c-7.81,0-15.25-5.13-18.38-13.29L57.5,48.75C53.17,37.46,58.73,25,69.5,21.82l7.93-2.33,11.48-3.38,11.48-3.38a16.11,16.11,0,0,1,2-.47c.33-.06.67-.11,1-.15a19.15,19.15,0,0,1,2-.11m0-12h0a29,29,0,0,0-3.36.19c-.56.06-1.14.15-1.7.24A31,31,0,0,0,97,1.22L85.52,4.6,74,8l-7.92,2.33A30.27,30.27,0,0,0,47.42,26.2,33.58,33.58,0,0,0,46.29,53L96.65,184.32c4.82,12.56,16.71,21,29.58,21a30.1,30.1,0,0,0,8-1.09l.35-.1,0,0,7.88-2.31.06,0a29.81,29.81,0,0,0,10.55-5.59,31.29,31.29,0,0,0,4.12-4.1,31.7,31.7,0,0,0,3.26-4.75,33.2,33.2,0,0,0,3.5-22.72l-27.39-138a34,34,0,0,0-4.23-10.95,33.15,33.15,0,0,0-10-10.45,31.65,31.65,0,0,0-7.22-3.55c-.5-.18-1-.34-1.55-.49a32.12,32.12,0,0,0-3.2-.72,29.68,29.68,0,0,0-5-.42Z"/><path class="cls-1" d="M266.94,159l-53.56,59.53a3.76,3.76,0,0,0,1.37,6L264,244.7a3.76,3.76,0,0,1-.54,7.13l-51.84,12.45a3.76,3.76,0,0,0-2.32,5.63l41.39,66.6a3.75,3.75,0,0,1-5.25,5.12L181,299.29a3.75,3.75,0,0,0-5.73,2.34L164,353.46a3.75,3.75,0,0,1-7.11.7l-21.29-49a3.75,3.75,0,0,0-5.92-1.32L78,349.12A3.76,3.76,0,0,1,72,345l23.94-63.31a3.76,3.76,0,0,0-3.77-5.08L4,282.66a3.75,3.75,0,0,1-1.89-7.12l79.25-38.42a3.76,3.76,0,0,0,.89-6.16l-39.2-35.61a3.76,3.76,0,0,1,3-6.52l53.34,6.08a3.76,3.76,0,0,0,4.15-4.24l-7.24-53.19a3.76,3.76,0,0,1,6.45-3.1L139.41,173a3.75,3.75,0,0,0,6-.82l36.31-68.33a3.75,3.75,0,0,1,7.06,2L185,181.44a3.76,3.76,0,0,0,5.27,3.62l72.33-32A3.76,3.76,0,0,1,266.94,159Z"/><ellipse class="cls-2" cx="146.54" cy="241.1" rx="27.96" ry="33.74" transform="translate(-61.62 50.65) rotate(-16.25)"/><rect class="cls-2" x="146.36" y="206.08" width="9.16" height="67.48" transform="translate(-61.09 51.83) rotate(-16.25)"/><ellipse class="cls-3" cx="155.34" cy="238.54" rx="26.03" ry="31.41" transform="translate(-60.55 53.01) rotate(-16.25)"/><ellipse class="cls-4" cx="155.34" cy="238.54" rx="26.03" ry="31.41" transform="translate(-60.55 53.01) rotate(-16.25)"/><path class="cls-5" d="M147.24,210.77c12.25-3.57,25.84,6,30.31,21.29s-1.87,30.67-14.12,34.24-25.84-6-30.31-21.29,1.87-30.67,14.12-34.24m-1.35-4.63c-14.82,4.32-22.61,22.33-17.39,40.22s21.46,28.89,36.28,24.57,22.61-22.33,17.4-40.22-21.46-28.89-36.29-24.57Z"/><path class="cls-6" d="M160.58,216.92c11.88,2.84,18.65,26.07,10.93,37.49C172.88,240.33,169.33,227.8,160.58,216.92Z"/><path class="cls-7" d="M140.24,214.32c-16.87,14.46-10.4,48.72,16.44,52.94C139,256.37,131.22,235,140.24,214.32Z"/><path class="cls-2" d="M82.53,24.79,71.81,27.91C61.75,30.84,56.56,42.38,60.6,52.81l47,121.39c3.55,9.16,13,14.2,21.86,11.62h0c8.83-2.57,14.11-11.91,12.18-21.55L116.08,36.63c-2.2-11-12.77-17.9-22.83-15Z"/><path class="cls-8" d="M89.94,22.63,79.22,25.75C69.16,28.69,64,40.22,68,50.65L115,172c3.55,9.16,13,14.2,21.86,11.63h0c8.84-2.58,14.12-11.92,12.19-21.55L123.49,34.48c-2.2-11-12.78-17.91-22.84-15Z"/><path class="cls-9" d="M102,24.13a12.4,12.4,0,0,1,10,1.41,15,15,0,0,1,6.8,9.88l25.58,127.64c1.45,7.22-2.34,14.09-8.81,16s-13.35-1.87-16-8.74L72.5,48.91a15,15,0,0,1,.43-12,12.39,12.39,0,0,1,7.64-6.54l10.71-3.12L102,24.13m-1.35-4.63L89.94,22.63,79.22,25.75C69.16,28.69,64,40.22,68,50.65L115,172c3.55,9.16,13,14.2,21.86,11.63s14.12-11.92,12.19-21.55L123.49,34.48c-2.2-11-12.78-17.91-22.84-15Z"/><polygon class="cls-2" points="129.43 185.84 136.83 183.68 134.96 180.71 127.56 182.87 129.43 185.84"/><path class="cls-7" d="M84.76,29.16c-9,2.76,37.46,153.41,46.43,150.64l-2.32.68-7.23-2.41L68.73,41.36,73.25,31Z"/><path class="cls-6" d="M101.89,31.82c-1.15-.69-.13-2.55,1.35-2.72,9.19-1,13.06,17,31.84,112.8.08.42-.72.62-.83.21C122.17,96.16,112.48,38.15,101.89,31.82Z"/></g></svg>