<svg xmlns="http://www.w3.org/2000/svg" xmlns:xlink="http://www.w3.org/1999/xlink" viewBox="0 0 308.32 317.35"><defs><style>.cls-1{opacity:0.54;fill:url(#Dégradé_sans_nom_44);}.cls-2,.cls-4{fill:#fff;}.cls-2,.cls-3{opacity:0.48;}</style><linearGradient id="Dégradé_sans_nom_44" x1="2040.21" y1="-2984.98" x2="1813.75" y2="-2649.34" gradientTransform="translate(1614.94 3205.85) rotate(-60)" gradientUnits="userSpaceOnUse"><stop offset="0" stop-color="#9e3597"/><stop offset="0.12" stop-color="#993393" stop-opacity="0.96"/><stop offset="0.3" stop-color="#8a2d89" stop-opacity="0.85"/><stop offset="0.49" stop-color="#712477" stop-opacity="0.66"/><stop offset="0.71" stop-color="#4e175f" stop-opacity="0.41"/><stop offset="0.95" stop-color="#220741" stop-opacity="0.08"/><stop offset="1" stop-color="#170339" stop-opacity="0"/></linearGradient></defs><g id="Calque_5" data-name="Calque 5"><circle class="cls-1" cx="143.12" cy="137.52" r="137.5"/><path class="cls-2" d="M94.42,105.28C132.34,67.36,175,36.94,213,21.28c18.91-7.8,35.72-11.71,49.77-11.71S288.14,13.5,296,21.35c15.68,15.68,15.7,45.17.07,83S250.9,184.1,213,222,133.3,289.43,95.35,305.1c-18.9,7.81-35.71,11.71-49.76,11.7S20.18,312.88,12.32,305c-15.68-15.68-15.7-45.16-.07-83a210.92,210.92,0,0,1,9.07-20.15,6.4,6.4,0,0,0,0-1c-3.88,7.34-6.64,13.83-9.58,20.95-15.72,38.08-15.65,67.77.19,83.62,8,8,19.41,11.94,33.66,11.94s31-3.92,50-11.74c38-15.7,79.84-45.25,117.8-83.21s67.51-79.8,83.21-117.8,15.65-67.79-.2-83.63-45.54-15.92-83.63-.2S132,66.94,94,104.9Z"/><g class="cls-3"><path class="cls-4" d="M94.91,106.61l-9.3,13.89a19.73,19.73,0,0,1-9.73,5.59h0a1.45,1.45,0,0,1-1.76-1.67h0a19.83,19.83,0,0,1,5.13-10l13.62-9.8a.76.76,0,0,1,1,.07l1,1A.74.74,0,0,1,94.91,106.61Z"/><path class="cls-4" d="M87.7,117.16l6.67-3.27a17.53,17.53,0,0,0,4.95-3.63l2.91-3.05a.31.31,0,0,0-.28-.51L93,108.58Z"/><path class="cls-4" d="M82.49,112.19l3-6.82a17.7,17.7,0,0,1,3.39-5.12l2.91-3a.31.31,0,0,1,.52.26l-1.45,9Z"/></g></g></svg>