<svg xmlns="http://www.w3.org/2000/svg" xmlns:xlink="http://www.w3.org/1999/xlink" viewBox="0 0 372.11 283.85"><defs><style>.cls-1{fill:url(#Dégradé_sans_nom_3);}.cls-2{isolation:isolate;fill:url(#Dégradé_sans_nom_2);}.cls-3{fill:#fff;stroke:#fff;stroke-miterlimit:10;stroke-width:3px;}</style><linearGradient id="Dégradé_sans_nom_3" x1="1337.19" y1="531.73" x2="1335.99" y2="529.95" gradientTransform="matrix(65, 0, 0, -65, -86551.44, 34565.96)" gradientUnits="userSpaceOnUse"><stop offset="0" stop-color="#6b81f7"/><stop offset="0.09" stop-color="#697ef2" stop-opacity="0.97"/><stop offset="0.22" stop-color="#6375e5" stop-opacity="0.9"/><stop offset="0.37" stop-color="#5966ce" stop-opacity="0.78"/><stop offset="0.53" stop-color="#4b51af" stop-opacity="0.62"/><stop offset="0.71" stop-color="#393787" stop-opacity="0.41"/><stop offset="0.9" stop-color="#241757" stop-opacity="0.16"/><stop offset="1" stop-color="#170339" stop-opacity="0"/></linearGradient><linearGradient id="Dégradé_sans_nom_2" x1="1339.35" y1="532.24" x2="1340.55" y2="530.45" gradientTransform="matrix(81, 0, 0, -81, -108479.29, 43260.14)" gradientUnits="userSpaceOnUse"><stop offset="0" stop-color="#9e3597"/><stop offset="0.12" stop-color="#993393" stop-opacity="0.96"/><stop offset="0.3" stop-color="#8a2d89" stop-opacity="0.85"/><stop offset="0.49" stop-color="#712477" stop-opacity="0.66"/><stop offset="0.71" stop-color="#4e175f" stop-opacity="0.41"/><stop offset="0.95" stop-color="#220741" stop-opacity="0.08"/><stop offset="1" stop-color="#170339" stop-opacity="0"/></linearGradient></defs><g id="Calque_5" data-name="Calque 5"><circle id="Ellipse_56" data-name="Ellipse 56" class="cls-1" cx="324.68" cy="64.23" r="47.43"/><circle id="Ellipse_57" data-name="Ellipse 57" class="cls-2" cx="59.1" cy="224.75" r="59.1"/><path id="Tracé_269" data-name="Tracé 269" class="cls-3" d="M308.59,37.16l-.33-.42a82.39,82.39,0,0,0-30.34-22.66l-.54-.24-1.73-.73-1.14-.46-1.15-.45-1.79-.68-.55-.2a123.57,123.57,0,0,0-43.09-6.67l-.86,0-2.17,0-2.18.08-.87,0a180.43,180.43,0,0,0-48.66,9.53l-.7.24c-.77.26-1.53.53-2.3.81-.49.16-1,.35-1.49.53l-1.5.55c-.76.28-1.52.56-2.27.86l-.72.28a223.38,223.38,0,0,0-46.94,25.2c-.26.18-.52.35-.76.54q-1,.72-2.07,1.47l-2,1.49-.74.55A217.34,217.34,0,0,0,73.28,83.18l-.49.58L71.3,85.62l-1,1.22-1,1.23c-.49.63-1,1.27-1.45,1.9l-.44.58a167,167,0,0,0-23.28,42.32c-.1.26-.19.53-.29.8-.24.66-.47,1.32-.7,2s-.45,1.33-.67,2c-.08.27-.17.53-.25.8a110.86,110.86,0,0,0-5.6,41.76l0,.57c.05.62.1,1.24.17,1.85,0,.39.07.8.11,1.19s.1.8.14,1.2l.24,1.81.09.56a78,78,0,0,0,14,34.65,4.6,4.6,0,0,0,.38.52c.35.47.69.94,1.05,1.4s.73.92,1.1,1.37a6.12,6.12,0,0,0,.39.5,82.19,82.19,0,0,0,30.46,22.79l.53.25,1.73.73,1.14.46,1.16.45,1.78.68.56.2a123.48,123.48,0,0,0,43.08,6.67h.87l2.16-.05,2.18-.09.88,0a180.45,180.45,0,0,0,48.66-9.54l.7-.23,2.3-.81,1.48-.53,1.51-.55,2.27-.86.72-.28A223.94,223.94,0,0,0,246,219.54l1.36-1,.88-.63a218.75,218.75,0,0,0,42.08-39.35l.32-.4c.39-.47.77-.93,1.13-1.41s.65-.8.94-1.18l.48-.62a181.72,181.72,0,0,0,15.42-23.33c-.18,0-.36,0-.56.06-2.07,3.74-4.32,7.44-6.74,11.13h0a197.81,197.81,0,0,1-21.83,27.47l-.14.15-1.55,1.61-.59.6L276,193.84,275,194.9l-.72.71-1.54,1.5-.26.25a222.81,222.81,0,0,1-18.61,16c-1,.8-2.09,1.59-3.13,2.37l-.33.24-2.6,1.89-.7.5c-.87.63-1.74,1.24-2.61,1.84l-2.53,1.7c-.93.63-1.86,1.26-2.8,1.85l-.45.31-3,1.93-.31.2c-1,.65-2.07,1.29-3.11,1.91l-.32.21c-1,.61-2,1.2-3,1.79l-.46.27c-1,.55-1.9,1.08-2.85,1.61l-.71.4-2.56,1.39-1,.55L219,235.45c-.48.26-1,.5-1.44.74l-1.78.89-1.89.92-1.3.62q-1.19.57-2.37,1.11l-.79.36c-1,.43-1.91.88-2.88,1.28l-.27.12a191.24,191.24,0,0,1-61.94,15.74l-.54,0c-.88.06-1.77.11-2.66.15l-1.23.05-1.94.08c-.65,0-1.28,0-1.92,0l-1.22,0h-3.13c-19.64-.21-37.48-4.37-52.32-12.21l-.2-.1c-.69-.36-1.37-.75-2-1.13l-.56-.31-1.66-1-.89-.55c-.44-.27-.87-.54-1.29-.82l-1.19-.78-1-.66c-.49-.34-1-.68-1.46-1l-.67-.5c-.56-.42-1.11-.83-1.66-1.26l-.45-.36-1.79-1.46-.29-.25-1.86-1.62-.19-.19c-.62-.57-1.24-1.15-1.85-1.74a1.07,1.07,0,0,0-.19-.18c-.59-.59-1.18-1.18-1.76-1.78l-.25-.28c-.54-.56-1.06-1.13-1.58-1.71l-.42-.48c-.43-.5-.86-1-1.29-1.52-.22-.26-.43-.53-.66-.81l-1-1.2c-.31-.4-.62-.81-.92-1.22s-.41-.55-.62-.84c-.37-.55-.77-1.08-1.14-1.63l-.37-.54c-.43-.64-.86-1.28-1.26-2l-.21-.3c-.43-.71-.85-1.42-1.27-2.14l-.14-.21c-.42-.73-.82-1.46-1.21-2.21l-.15-.22c-.37-.73-.74-1.45-1.09-2.19a1.44,1.44,0,0,1-.16-.33c-.33-.69-.65-1.38-1-2.07l-.23-.53c-.28-.63-.53-1.25-.78-1.88l-.31-.77c-.21-.55-.41-1.09-.61-1.64-.14-.36-.26-.72-.39-1.08s-.3-.88-.45-1.34-.3-.95-.45-1.42-.19-.66-.29-1q-.27-.9-.51-1.8c-.06-.2-.1-.41-.16-.61-.19-.74-.39-1.47-.54-2.22a1.6,1.6,0,0,1,0-.21c-3.57-15.95-2.65-33.65,2.72-51.88l.15-.49c.24-.8.48-1.6.75-2.41.12-.38.25-.75.37-1.13.2-.59.4-1.18.59-1.77s.41-1.17.63-1.77c.13-.37.26-.75.4-1.12.3-.8.61-1.61.92-2.41.06-.17.12-.33.19-.49A178.22,178.22,0,0,1,79,77l.2-.23c.68-.76,1.39-1.53,2.1-2.29l.58-.63c.59-.63,1.18-1.26,1.78-1.88.32-.34.64-.69,1-1,.47-.5,1-1,1.45-1.49s.92-.92,1.38-1.38L88.61,67l1.75-1.71.85-.81c.7-.66,1.4-1.32,2.11-2l.59-.55,2.41-2.18.4-.35,2.63-2.3.28-.24c.92-.78,1.84-1.56,2.78-2.34l.28-.23c.92-.76,1.85-1.51,2.78-2.26l.42-.34,2.64-2.06.73-.56,2.3-1.73,1.22-.91,1.78-1.3,1.81-1.28,1.24-.87L120,41.36l.76-.51c.93-.63,1.86-1.25,2.8-1.85l.45-.3,3-1.94.31-.2c1-.65,2.07-1.28,3.11-1.91l.32-.21c1-.61,2-1.2,3-1.79l.46-.27c1-.55,1.9-1.08,2.85-1.61l.71-.39c.87-.49,1.71-.94,2.57-1.4l1-.55,2.21-1.14,1.44-.74,1.78-.89,1.89-.92,1.3-.62L152.41,23l.79-.36c1-.43,1.92-.88,2.88-1.28l.27-.12A191.47,191.47,0,0,1,218.29,5.48l.53,0c.89-.06,1.77-.12,2.66-.15.41,0,.83,0,1.24-.06l1.93-.07c.65,0,1.28,0,1.93,0l1.21,0c.88,0,1.74,0,2.61,0h.52c19.67.19,37.55,4.35,52.41,12.19l.2.11c.69.36,1.37.75,2.05,1.13l.56.31,1.66,1,.89.55c.44.27.87.54,1.29.82l1.19.78,1,.66,1.45,1,.67.5c.56.41,1.12.83,1.66,1.26l.45.35,1.79,1.47.29.25c.63.53,1.25,1.08,1.86,1.62l.19.18c.62.58,1.24,1.16,1.85,1.75a1.62,1.62,0,0,0,.19.18c.59.59,1.18,1.18,1.76,1.78l.25.28c.54.56,1.06,1.13,1.58,1.71l.45.52c.38.44.76.87,1.13,1.32l.74.9C308.69,38.05,309,37.61,308.59,37.16Z"/></g></svg>